G75*
%MOIN*%
%OFA0B0*%
%FSLAX25Y25*%
%IPPOS*%
%LPD*%
%AMOC8*
5,1,8,0,0,1.08239X$1,22.5*
%
%ADD10C,0.04059*%
%ADD11C,0.03223*%
%ADD12R,0.13098X0.27469*%
%ADD13C,0.01664*%
%ADD14C,0.00100*%
%ADD15C,0.04455*%
%ADD16C,0.02054*%
%ADD17R,0.05815X0.02075*%
%ADD18C,0.06500*%
%ADD19R,0.06799X0.02075*%
%ADD20C,0.05049*%
%ADD21R,0.07200X0.00600*%
D10*
X0162129Y0050971D02*
X0162171Y0050971D01*
X0162171Y0048529D01*
X0162129Y0048529D01*
X0162129Y0050971D01*
X0170029Y0050971D02*
X0170071Y0050971D01*
X0170071Y0048529D01*
X0170029Y0048529D01*
X0170029Y0050971D01*
X0217129Y0052221D02*
X0217171Y0052221D01*
X0217171Y0049779D01*
X0217129Y0049779D01*
X0217129Y0052221D01*
X0225029Y0052221D02*
X0225071Y0052221D01*
X0225071Y0049779D01*
X0225029Y0049779D01*
X0225029Y0052221D01*
X0262129Y0049779D02*
X0262171Y0049779D01*
X0262129Y0049779D02*
X0262129Y0052221D01*
X0262171Y0052221D01*
X0262171Y0049779D01*
X0270029Y0049779D02*
X0270071Y0049779D01*
X0270029Y0049779D02*
X0270029Y0052221D01*
X0270071Y0052221D01*
X0270071Y0049779D01*
X0294879Y0039971D02*
X0294879Y0039929D01*
X0294879Y0039971D02*
X0297321Y0039971D01*
X0297321Y0039929D01*
X0294879Y0039929D01*
X0309879Y0039929D02*
X0309879Y0039971D01*
X0312321Y0039971D01*
X0312321Y0039929D01*
X0309879Y0039929D01*
X0324879Y0039929D02*
X0324879Y0039971D01*
X0327321Y0039971D01*
X0327321Y0039929D01*
X0324879Y0039929D01*
X0339879Y0039929D02*
X0339879Y0039971D01*
X0342321Y0039971D01*
X0342321Y0039929D01*
X0339879Y0039929D01*
X0354879Y0039929D02*
X0354879Y0039971D01*
X0357321Y0039971D01*
X0357321Y0039929D01*
X0354879Y0039929D01*
X0369879Y0039929D02*
X0369879Y0039971D01*
X0372321Y0039971D01*
X0372321Y0039929D01*
X0369879Y0039929D01*
X0369879Y0032071D02*
X0369879Y0032029D01*
X0369879Y0032071D02*
X0372321Y0032071D01*
X0372321Y0032029D01*
X0369879Y0032029D01*
X0354879Y0032029D02*
X0354879Y0032071D01*
X0357321Y0032071D01*
X0357321Y0032029D01*
X0354879Y0032029D01*
X0339879Y0032029D02*
X0339879Y0032071D01*
X0342321Y0032071D01*
X0342321Y0032029D01*
X0339879Y0032029D01*
X0324879Y0032029D02*
X0324879Y0032071D01*
X0327321Y0032071D01*
X0327321Y0032029D01*
X0324879Y0032029D01*
X0309879Y0032029D02*
X0309879Y0032071D01*
X0312321Y0032071D01*
X0312321Y0032029D01*
X0309879Y0032029D01*
X0294879Y0032029D02*
X0294879Y0032071D01*
X0297321Y0032071D01*
X0297321Y0032029D01*
X0294879Y0032029D01*
X0294879Y0024971D02*
X0294879Y0024929D01*
X0294879Y0024971D02*
X0297321Y0024971D01*
X0297321Y0024929D01*
X0294879Y0024929D01*
X0309879Y0024929D02*
X0309879Y0024971D01*
X0312321Y0024971D01*
X0312321Y0024929D01*
X0309879Y0024929D01*
X0324879Y0024929D02*
X0324879Y0024971D01*
X0327321Y0024971D01*
X0327321Y0024929D01*
X0324879Y0024929D01*
X0339879Y0024929D02*
X0339879Y0024971D01*
X0342321Y0024971D01*
X0342321Y0024929D01*
X0339879Y0024929D01*
X0354879Y0024929D02*
X0354879Y0024971D01*
X0357321Y0024971D01*
X0357321Y0024929D01*
X0354879Y0024929D01*
X0369879Y0024929D02*
X0369879Y0024971D01*
X0372321Y0024971D01*
X0372321Y0024929D01*
X0369879Y0024929D01*
X0369879Y0017071D02*
X0369879Y0017029D01*
X0369879Y0017071D02*
X0372321Y0017071D01*
X0372321Y0017029D01*
X0369879Y0017029D01*
X0354879Y0017029D02*
X0354879Y0017071D01*
X0357321Y0017071D01*
X0357321Y0017029D01*
X0354879Y0017029D01*
X0339879Y0017029D02*
X0339879Y0017071D01*
X0342321Y0017071D01*
X0342321Y0017029D01*
X0339879Y0017029D01*
X0324879Y0017029D02*
X0324879Y0017071D01*
X0327321Y0017071D01*
X0327321Y0017029D01*
X0324879Y0017029D01*
X0309879Y0017029D02*
X0309879Y0017071D01*
X0312321Y0017071D01*
X0312321Y0017029D01*
X0309879Y0017029D01*
X0294879Y0017029D02*
X0294879Y0017071D01*
X0297321Y0017071D01*
X0297321Y0017029D01*
X0294879Y0017029D01*
X0322129Y0049779D02*
X0322171Y0049779D01*
X0322129Y0049779D02*
X0322129Y0052221D01*
X0322171Y0052221D01*
X0322171Y0049779D01*
X0330029Y0049779D02*
X0330071Y0049779D01*
X0330029Y0049779D02*
X0330029Y0052221D01*
X0330071Y0052221D01*
X0330071Y0049779D01*
X0397321Y0047471D02*
X0397321Y0047429D01*
X0394879Y0047429D01*
X0394879Y0047471D01*
X0397321Y0047471D01*
X0419821Y0047471D02*
X0419821Y0047429D01*
X0417379Y0047429D01*
X0417379Y0047471D01*
X0419821Y0047471D01*
X0419821Y0039571D02*
X0419821Y0039529D01*
X0417379Y0039529D01*
X0417379Y0039571D01*
X0419821Y0039571D01*
X0397321Y0039571D02*
X0397321Y0039529D01*
X0394879Y0039529D01*
X0394879Y0039571D01*
X0397321Y0039571D01*
X0302321Y0112029D02*
X0302321Y0112071D01*
X0302321Y0112029D02*
X0299879Y0112029D01*
X0299879Y0112071D01*
X0302321Y0112071D01*
X0302321Y0119929D02*
X0302321Y0119971D01*
X0302321Y0119929D02*
X0299879Y0119929D01*
X0299879Y0119971D01*
X0302321Y0119971D01*
X0302321Y0127029D02*
X0302321Y0127071D01*
X0302321Y0127029D02*
X0299879Y0127029D01*
X0299879Y0127071D01*
X0302321Y0127071D01*
X0302321Y0134929D02*
X0302321Y0134971D01*
X0302321Y0134929D02*
X0299879Y0134929D01*
X0299879Y0134971D01*
X0302321Y0134971D01*
X0272321Y0134971D02*
X0272321Y0134929D01*
X0269879Y0134929D01*
X0269879Y0134971D01*
X0272321Y0134971D01*
X0272321Y0127071D02*
X0272321Y0127029D01*
X0269879Y0127029D01*
X0269879Y0127071D01*
X0272321Y0127071D01*
X0272321Y0119971D02*
X0272321Y0119929D01*
X0269879Y0119929D01*
X0269879Y0119971D01*
X0272321Y0119971D01*
X0272321Y0112071D02*
X0272321Y0112029D01*
X0269879Y0112029D01*
X0269879Y0112071D01*
X0272321Y0112071D01*
X0222379Y0137029D02*
X0222379Y0137071D01*
X0224821Y0137071D01*
X0224821Y0137029D01*
X0222379Y0137029D01*
X0212379Y0137029D02*
X0212379Y0137071D01*
X0214821Y0137071D01*
X0214821Y0137029D01*
X0212379Y0137029D01*
X0212379Y0144929D02*
X0212379Y0144971D01*
X0214821Y0144971D01*
X0214821Y0144929D01*
X0212379Y0144929D01*
X0222379Y0144929D02*
X0222379Y0144971D01*
X0224821Y0144971D01*
X0224821Y0144929D01*
X0222379Y0144929D01*
X0237379Y0144571D02*
X0237379Y0144529D01*
X0237379Y0144571D02*
X0239821Y0144571D01*
X0239821Y0144529D01*
X0237379Y0144529D01*
X0247379Y0144529D02*
X0247379Y0144571D01*
X0249821Y0144571D01*
X0249821Y0144529D01*
X0247379Y0144529D01*
X0247379Y0152429D02*
X0247379Y0152471D01*
X0249821Y0152471D01*
X0249821Y0152429D01*
X0247379Y0152429D01*
X0237379Y0152429D02*
X0237379Y0152471D01*
X0239821Y0152471D01*
X0239821Y0152429D01*
X0237379Y0152429D01*
X0115071Y0107279D02*
X0115029Y0107279D01*
X0115029Y0109721D01*
X0115071Y0109721D01*
X0115071Y0107279D01*
X0107171Y0107279D02*
X0107129Y0107279D01*
X0107129Y0109721D01*
X0107171Y0109721D01*
X0107171Y0107279D01*
X0074879Y0104571D02*
X0074879Y0104529D01*
X0074879Y0104571D02*
X0077321Y0104571D01*
X0077321Y0104529D01*
X0074879Y0104529D01*
X0064879Y0104529D02*
X0064879Y0104571D01*
X0067321Y0104571D01*
X0067321Y0104529D01*
X0064879Y0104529D01*
X0064879Y0112429D02*
X0064879Y0112471D01*
X0067321Y0112471D01*
X0067321Y0112429D01*
X0064879Y0112429D01*
X0074879Y0112429D02*
X0074879Y0112471D01*
X0077321Y0112471D01*
X0077321Y0112429D01*
X0074879Y0112429D01*
X0034879Y0112429D02*
X0034879Y0112471D01*
X0037321Y0112471D01*
X0037321Y0112429D01*
X0034879Y0112429D01*
X0034879Y0104571D02*
X0034879Y0104529D01*
X0034879Y0104571D02*
X0037321Y0104571D01*
X0037321Y0104529D01*
X0034879Y0104529D01*
X0382129Y0147221D02*
X0382171Y0147221D01*
X0382171Y0144779D01*
X0382129Y0144779D01*
X0382129Y0147221D01*
X0390029Y0147221D02*
X0390071Y0147221D01*
X0390071Y0144779D01*
X0390029Y0144779D01*
X0390029Y0147221D01*
X0397379Y0137471D02*
X0397379Y0137429D01*
X0397379Y0137471D02*
X0399821Y0137471D01*
X0399821Y0137429D01*
X0397379Y0137429D01*
X0397379Y0129571D02*
X0397379Y0129529D01*
X0397379Y0129571D02*
X0399821Y0129571D01*
X0399821Y0129529D01*
X0397379Y0129529D01*
D11*
X0409843Y0129383D02*
X0409877Y0129383D01*
X0409877Y0128169D01*
X0409843Y0128169D01*
X0409843Y0129383D01*
X0413583Y0129383D02*
X0413617Y0129383D01*
X0413617Y0128169D01*
X0413583Y0128169D01*
X0413583Y0129383D01*
X0417323Y0129383D02*
X0417357Y0129383D01*
X0417357Y0128169D01*
X0417323Y0128169D01*
X0417323Y0129383D01*
X0417323Y0138831D02*
X0417357Y0138831D01*
X0417357Y0137617D01*
X0417323Y0137617D01*
X0417323Y0138831D01*
X0413617Y0138831D02*
X0413583Y0138831D01*
X0413617Y0138831D02*
X0413617Y0137617D01*
X0413583Y0137617D01*
X0413583Y0138831D01*
X0409877Y0138831D02*
X0409843Y0138831D01*
X0409877Y0138831D02*
X0409877Y0137617D01*
X0409843Y0137617D01*
X0409843Y0138831D01*
X0054857Y0113831D02*
X0054823Y0113831D01*
X0054857Y0113831D02*
X0054857Y0112617D01*
X0054823Y0112617D01*
X0054823Y0113831D01*
X0051117Y0113831D02*
X0051083Y0113831D01*
X0051117Y0113831D02*
X0051117Y0112617D01*
X0051083Y0112617D01*
X0051083Y0113831D01*
X0047377Y0113831D02*
X0047343Y0113831D01*
X0047377Y0113831D02*
X0047377Y0112617D01*
X0047343Y0112617D01*
X0047343Y0113831D01*
X0047343Y0104383D02*
X0047377Y0104383D01*
X0047377Y0103169D01*
X0047343Y0103169D01*
X0047343Y0104383D01*
X0051083Y0104383D02*
X0051117Y0104383D01*
X0051117Y0103169D01*
X0051083Y0103169D01*
X0051083Y0104383D01*
X0054823Y0104383D02*
X0054857Y0104383D01*
X0054857Y0103169D01*
X0054823Y0103169D01*
X0054823Y0104383D01*
D12*
X0053935Y0133500D03*
X0033265Y0133500D03*
D13*
X0105915Y0118528D02*
X0105915Y0114968D01*
X0105915Y0118528D02*
X0105931Y0118528D01*
X0105931Y0114968D01*
X0105915Y0114968D01*
X0105931Y0116631D02*
X0105915Y0116631D01*
X0105915Y0118294D02*
X0105931Y0118294D01*
X0107883Y0118528D02*
X0107883Y0114968D01*
X0107883Y0118528D02*
X0107899Y0118528D01*
X0107899Y0114968D01*
X0107883Y0114968D01*
X0107899Y0116631D02*
X0107883Y0116631D01*
X0107883Y0118294D02*
X0107899Y0118294D01*
X0109852Y0118528D02*
X0109852Y0114968D01*
X0109852Y0118528D02*
X0109868Y0118528D01*
X0109868Y0114968D01*
X0109852Y0114968D01*
X0109868Y0116631D02*
X0109852Y0116631D01*
X0109852Y0118294D02*
X0109868Y0118294D01*
X0111820Y0118528D02*
X0111820Y0114968D01*
X0111820Y0118528D02*
X0111836Y0118528D01*
X0111836Y0114968D01*
X0111820Y0114968D01*
X0111836Y0116631D02*
X0111820Y0116631D01*
X0111820Y0118294D02*
X0111836Y0118294D01*
X0113789Y0118528D02*
X0113789Y0114968D01*
X0113789Y0118528D02*
X0113805Y0118528D01*
X0113805Y0114968D01*
X0113789Y0114968D01*
X0113805Y0116631D02*
X0113789Y0116631D01*
X0113789Y0118294D02*
X0113805Y0118294D01*
X0115757Y0118528D02*
X0115757Y0114968D01*
X0115757Y0118528D02*
X0115773Y0118528D01*
X0115773Y0114968D01*
X0115757Y0114968D01*
X0115773Y0116631D02*
X0115757Y0116631D01*
X0115757Y0118294D02*
X0115773Y0118294D01*
X0117726Y0118528D02*
X0117726Y0114968D01*
X0117726Y0118528D02*
X0117742Y0118528D01*
X0117742Y0114968D01*
X0117726Y0114968D01*
X0117742Y0116631D02*
X0117726Y0116631D01*
X0117726Y0118294D02*
X0117742Y0118294D01*
X0119694Y0118528D02*
X0119694Y0114968D01*
X0119694Y0118528D02*
X0119710Y0118528D01*
X0119710Y0114968D01*
X0119694Y0114968D01*
X0119710Y0116631D02*
X0119694Y0116631D01*
X0119694Y0118294D02*
X0119710Y0118294D01*
X0121663Y0118528D02*
X0121663Y0114968D01*
X0121663Y0118528D02*
X0121679Y0118528D01*
X0121679Y0114968D01*
X0121663Y0114968D01*
X0121679Y0116631D02*
X0121663Y0116631D01*
X0121663Y0118294D02*
X0121679Y0118294D01*
X0123631Y0118528D02*
X0123631Y0114968D01*
X0123631Y0118528D02*
X0123647Y0118528D01*
X0123647Y0114968D01*
X0123631Y0114968D01*
X0123647Y0116631D02*
X0123631Y0116631D01*
X0123631Y0118294D02*
X0123647Y0118294D01*
X0125600Y0118528D02*
X0125600Y0114968D01*
X0125600Y0118528D02*
X0125616Y0118528D01*
X0125616Y0114968D01*
X0125600Y0114968D01*
X0125616Y0116631D02*
X0125600Y0116631D01*
X0125600Y0118294D02*
X0125616Y0118294D01*
X0127568Y0118528D02*
X0127568Y0114968D01*
X0127568Y0118528D02*
X0127584Y0118528D01*
X0127584Y0114968D01*
X0127568Y0114968D01*
X0127584Y0116631D02*
X0127568Y0116631D01*
X0127568Y0118294D02*
X0127584Y0118294D01*
X0129537Y0118528D02*
X0129537Y0114968D01*
X0129537Y0118528D02*
X0129553Y0118528D01*
X0129553Y0114968D01*
X0129537Y0114968D01*
X0129553Y0116631D02*
X0129537Y0116631D01*
X0129537Y0118294D02*
X0129553Y0118294D01*
X0131505Y0118528D02*
X0131505Y0114968D01*
X0131505Y0118528D02*
X0131521Y0118528D01*
X0131521Y0114968D01*
X0131505Y0114968D01*
X0131521Y0116631D02*
X0131505Y0116631D01*
X0131505Y0118294D02*
X0131521Y0118294D01*
X0133474Y0118528D02*
X0133474Y0114968D01*
X0133474Y0118528D02*
X0133490Y0118528D01*
X0133490Y0114968D01*
X0133474Y0114968D01*
X0133490Y0116631D02*
X0133474Y0116631D01*
X0133474Y0118294D02*
X0133490Y0118294D01*
X0135442Y0118528D02*
X0135442Y0114968D01*
X0135442Y0118528D02*
X0135458Y0118528D01*
X0135458Y0114968D01*
X0135442Y0114968D01*
X0135458Y0116631D02*
X0135442Y0116631D01*
X0135442Y0118294D02*
X0135458Y0118294D01*
X0137411Y0118528D02*
X0137411Y0114968D01*
X0137411Y0118528D02*
X0137427Y0118528D01*
X0137427Y0114968D01*
X0137411Y0114968D01*
X0137427Y0116631D02*
X0137411Y0116631D01*
X0137411Y0118294D02*
X0137427Y0118294D01*
X0139379Y0118528D02*
X0139379Y0114968D01*
X0139379Y0118528D02*
X0139395Y0118528D01*
X0139395Y0114968D01*
X0139379Y0114968D01*
X0139395Y0116631D02*
X0139379Y0116631D01*
X0139379Y0118294D02*
X0139395Y0118294D01*
X0141348Y0118528D02*
X0141348Y0114968D01*
X0141348Y0118528D02*
X0141364Y0118528D01*
X0141364Y0114968D01*
X0141348Y0114968D01*
X0141364Y0116631D02*
X0141348Y0116631D01*
X0141348Y0118294D02*
X0141364Y0118294D01*
X0143316Y0118528D02*
X0143316Y0114968D01*
X0143316Y0118528D02*
X0143332Y0118528D01*
X0143332Y0114968D01*
X0143316Y0114968D01*
X0143332Y0116631D02*
X0143316Y0116631D01*
X0143316Y0118294D02*
X0143332Y0118294D01*
X0145285Y0118528D02*
X0145285Y0114968D01*
X0145285Y0118528D02*
X0145301Y0118528D01*
X0145301Y0114968D01*
X0145285Y0114968D01*
X0145301Y0116631D02*
X0145285Y0116631D01*
X0145285Y0118294D02*
X0145301Y0118294D01*
X0147253Y0118528D02*
X0147253Y0114968D01*
X0147253Y0118528D02*
X0147269Y0118528D01*
X0147269Y0114968D01*
X0147253Y0114968D01*
X0147269Y0116631D02*
X0147253Y0116631D01*
X0147253Y0118294D02*
X0147269Y0118294D01*
X0149222Y0118528D02*
X0149222Y0114968D01*
X0149222Y0118528D02*
X0149238Y0118528D01*
X0149238Y0114968D01*
X0149222Y0114968D01*
X0149238Y0116631D02*
X0149222Y0116631D01*
X0149222Y0118294D02*
X0149238Y0118294D01*
X0151190Y0118528D02*
X0151190Y0114968D01*
X0151190Y0118528D02*
X0151206Y0118528D01*
X0151206Y0114968D01*
X0151190Y0114968D01*
X0151206Y0116631D02*
X0151190Y0116631D01*
X0151190Y0118294D02*
X0151206Y0118294D01*
X0153159Y0118528D02*
X0153159Y0114968D01*
X0153159Y0118528D02*
X0153175Y0118528D01*
X0153175Y0114968D01*
X0153159Y0114968D01*
X0153175Y0116631D02*
X0153159Y0116631D01*
X0153159Y0118294D02*
X0153175Y0118294D01*
X0155127Y0118528D02*
X0155127Y0114968D01*
X0155127Y0118528D02*
X0155143Y0118528D01*
X0155143Y0114968D01*
X0155127Y0114968D01*
X0155143Y0116631D02*
X0155127Y0116631D01*
X0155127Y0118294D02*
X0155143Y0118294D01*
X0157096Y0118528D02*
X0157096Y0114968D01*
X0157096Y0118528D02*
X0157112Y0118528D01*
X0157112Y0114968D01*
X0157096Y0114968D01*
X0157112Y0116631D02*
X0157096Y0116631D01*
X0157096Y0118294D02*
X0157112Y0118294D01*
X0159064Y0118528D02*
X0159064Y0114968D01*
X0159064Y0118528D02*
X0159080Y0118528D01*
X0159080Y0114968D01*
X0159064Y0114968D01*
X0159080Y0116631D02*
X0159064Y0116631D01*
X0159064Y0118294D02*
X0159080Y0118294D01*
X0161033Y0118528D02*
X0161033Y0114968D01*
X0161033Y0118528D02*
X0161049Y0118528D01*
X0161049Y0114968D01*
X0161033Y0114968D01*
X0161049Y0116631D02*
X0161033Y0116631D01*
X0161033Y0118294D02*
X0161049Y0118294D01*
X0163001Y0118528D02*
X0163001Y0114968D01*
X0163001Y0118528D02*
X0163017Y0118528D01*
X0163017Y0114968D01*
X0163001Y0114968D01*
X0163017Y0116631D02*
X0163001Y0116631D01*
X0163001Y0118294D02*
X0163017Y0118294D01*
X0164970Y0118528D02*
X0164970Y0114968D01*
X0164970Y0118528D02*
X0164986Y0118528D01*
X0164986Y0114968D01*
X0164970Y0114968D01*
X0164986Y0116631D02*
X0164970Y0116631D01*
X0164970Y0118294D02*
X0164986Y0118294D01*
X0166938Y0118528D02*
X0166938Y0114968D01*
X0166938Y0118528D02*
X0166954Y0118528D01*
X0166954Y0114968D01*
X0166938Y0114968D01*
X0166954Y0116631D02*
X0166938Y0116631D01*
X0166938Y0118294D02*
X0166954Y0118294D01*
X0168907Y0118528D02*
X0168907Y0114968D01*
X0168907Y0118528D02*
X0168923Y0118528D01*
X0168923Y0114968D01*
X0168907Y0114968D01*
X0168923Y0116631D02*
X0168907Y0116631D01*
X0168907Y0118294D02*
X0168923Y0118294D01*
X0170875Y0118528D02*
X0170875Y0114968D01*
X0170875Y0118528D02*
X0170891Y0118528D01*
X0170891Y0114968D01*
X0170875Y0114968D01*
X0170891Y0116631D02*
X0170875Y0116631D01*
X0170875Y0118294D02*
X0170891Y0118294D01*
X0172844Y0118528D02*
X0172844Y0114968D01*
X0172844Y0118528D02*
X0172860Y0118528D01*
X0172860Y0114968D01*
X0172844Y0114968D01*
X0172860Y0116631D02*
X0172844Y0116631D01*
X0172844Y0118294D02*
X0172860Y0118294D01*
X0174812Y0118528D02*
X0174812Y0114968D01*
X0174812Y0118528D02*
X0174828Y0118528D01*
X0174828Y0114968D01*
X0174812Y0114968D01*
X0174828Y0116631D02*
X0174812Y0116631D01*
X0174812Y0118294D02*
X0174828Y0118294D01*
X0176781Y0118528D02*
X0176781Y0114968D01*
X0176781Y0118528D02*
X0176797Y0118528D01*
X0176797Y0114968D01*
X0176781Y0114968D01*
X0176797Y0116631D02*
X0176781Y0116631D01*
X0176781Y0118294D02*
X0176797Y0118294D01*
X0178749Y0118528D02*
X0178749Y0114968D01*
X0178749Y0118528D02*
X0178765Y0118528D01*
X0178765Y0114968D01*
X0178749Y0114968D01*
X0178765Y0116631D02*
X0178749Y0116631D01*
X0178749Y0118294D02*
X0178765Y0118294D01*
X0180718Y0118528D02*
X0180718Y0114968D01*
X0180718Y0118528D02*
X0180734Y0118528D01*
X0180734Y0114968D01*
X0180718Y0114968D01*
X0180734Y0116631D02*
X0180718Y0116631D01*
X0180718Y0118294D02*
X0180734Y0118294D01*
X0182686Y0118528D02*
X0182686Y0114968D01*
X0182686Y0118528D02*
X0182702Y0118528D01*
X0182702Y0114968D01*
X0182686Y0114968D01*
X0182702Y0116631D02*
X0182686Y0116631D01*
X0182686Y0118294D02*
X0182702Y0118294D01*
D14*
X0186238Y0122654D02*
X0192537Y0122654D01*
X0192537Y0125803D01*
X0195687Y0125803D01*
X0195687Y0132102D01*
X0186238Y0132102D01*
X0186238Y0122654D01*
X0186238Y0122661D02*
X0192537Y0122661D01*
X0192537Y0122760D02*
X0186238Y0122760D01*
X0186238Y0122859D02*
X0192537Y0122859D01*
X0192537Y0122957D02*
X0186238Y0122957D01*
X0186238Y0123056D02*
X0192537Y0123056D01*
X0192537Y0123154D02*
X0186238Y0123154D01*
X0186238Y0123253D02*
X0192537Y0123253D01*
X0192537Y0123351D02*
X0186238Y0123351D01*
X0186238Y0123450D02*
X0192537Y0123450D01*
X0192537Y0123548D02*
X0186238Y0123548D01*
X0186238Y0123647D02*
X0192537Y0123647D01*
X0192537Y0123745D02*
X0186238Y0123745D01*
X0186238Y0123844D02*
X0192537Y0123844D01*
X0192537Y0123942D02*
X0186238Y0123942D01*
X0186238Y0124041D02*
X0192537Y0124041D01*
X0192537Y0124139D02*
X0186238Y0124139D01*
X0186238Y0124238D02*
X0192537Y0124238D01*
X0192537Y0124336D02*
X0186238Y0124336D01*
X0186238Y0124435D02*
X0192537Y0124435D01*
X0192537Y0124533D02*
X0186238Y0124533D01*
X0186238Y0124632D02*
X0192537Y0124632D01*
X0192537Y0124730D02*
X0186238Y0124730D01*
X0186238Y0124829D02*
X0192537Y0124829D01*
X0192537Y0124927D02*
X0186238Y0124927D01*
X0186238Y0125026D02*
X0192537Y0125026D01*
X0192537Y0125124D02*
X0186238Y0125124D01*
X0186238Y0125223D02*
X0192537Y0125223D01*
X0192537Y0125321D02*
X0186238Y0125321D01*
X0186238Y0125420D02*
X0192537Y0125420D01*
X0192537Y0125518D02*
X0186238Y0125518D01*
X0186238Y0125617D02*
X0192537Y0125617D01*
X0192537Y0125715D02*
X0186238Y0125715D01*
X0186238Y0125814D02*
X0195687Y0125814D01*
X0195687Y0125912D02*
X0186238Y0125912D01*
X0186238Y0126011D02*
X0195687Y0126011D01*
X0195687Y0126109D02*
X0186238Y0126109D01*
X0186238Y0126208D02*
X0195687Y0126208D01*
X0195687Y0126306D02*
X0186238Y0126306D01*
X0186238Y0126405D02*
X0195687Y0126405D01*
X0195687Y0126503D02*
X0186238Y0126503D01*
X0186238Y0126602D02*
X0195687Y0126602D01*
X0195687Y0126700D02*
X0186238Y0126700D01*
X0186238Y0126799D02*
X0195687Y0126799D01*
X0195687Y0126897D02*
X0186238Y0126897D01*
X0186238Y0126996D02*
X0195687Y0126996D01*
X0195687Y0127094D02*
X0186238Y0127094D01*
X0186238Y0127193D02*
X0195687Y0127193D01*
X0195687Y0127292D02*
X0186238Y0127292D01*
X0186238Y0127390D02*
X0195687Y0127390D01*
X0195687Y0127489D02*
X0186238Y0127489D01*
X0186238Y0127587D02*
X0195687Y0127587D01*
X0195687Y0127686D02*
X0186238Y0127686D01*
X0186238Y0127784D02*
X0195687Y0127784D01*
X0195687Y0127883D02*
X0186238Y0127883D01*
X0186238Y0127981D02*
X0195687Y0127981D01*
X0195687Y0128080D02*
X0186238Y0128080D01*
X0186238Y0128178D02*
X0195687Y0128178D01*
X0195687Y0128277D02*
X0186238Y0128277D01*
X0186238Y0128375D02*
X0195687Y0128375D01*
X0195687Y0128474D02*
X0186238Y0128474D01*
X0186238Y0128572D02*
X0195687Y0128572D01*
X0195687Y0128671D02*
X0186238Y0128671D01*
X0186238Y0128769D02*
X0195687Y0128769D01*
X0195687Y0128868D02*
X0186238Y0128868D01*
X0186238Y0128966D02*
X0195687Y0128966D01*
X0195687Y0129065D02*
X0186238Y0129065D01*
X0186238Y0129163D02*
X0195687Y0129163D01*
X0195687Y0129262D02*
X0186238Y0129262D01*
X0186238Y0129360D02*
X0195687Y0129360D01*
X0195687Y0129459D02*
X0186238Y0129459D01*
X0186238Y0129557D02*
X0195687Y0129557D01*
X0195687Y0129656D02*
X0186238Y0129656D01*
X0186238Y0129754D02*
X0195687Y0129754D01*
X0195687Y0129853D02*
X0186238Y0129853D01*
X0186238Y0129951D02*
X0195687Y0129951D01*
X0195687Y0130050D02*
X0186238Y0130050D01*
X0186238Y0130148D02*
X0195687Y0130148D01*
X0195687Y0130247D02*
X0186238Y0130247D01*
X0186238Y0130345D02*
X0195687Y0130345D01*
X0195687Y0130444D02*
X0186238Y0130444D01*
X0186238Y0130542D02*
X0195687Y0130542D01*
X0195687Y0130641D02*
X0186238Y0130641D01*
X0186238Y0130739D02*
X0195687Y0130739D01*
X0195687Y0130838D02*
X0186238Y0130838D01*
X0186238Y0130936D02*
X0195687Y0130936D01*
X0195687Y0131035D02*
X0186238Y0131035D01*
X0186238Y0131133D02*
X0195687Y0131133D01*
X0195687Y0131232D02*
X0186238Y0131232D01*
X0186238Y0131330D02*
X0195687Y0131330D01*
X0195687Y0131429D02*
X0186238Y0131429D01*
X0186238Y0131527D02*
X0195687Y0131527D01*
X0195687Y0131626D02*
X0186238Y0131626D01*
X0186238Y0131725D02*
X0195687Y0131725D01*
X0195687Y0131823D02*
X0186238Y0131823D01*
X0186238Y0131922D02*
X0195687Y0131922D01*
X0195687Y0132020D02*
X0186238Y0132020D01*
X0102380Y0132020D02*
X0092931Y0132020D01*
X0092931Y0132102D02*
X0092931Y0125803D01*
X0096080Y0125803D01*
X0096080Y0122654D01*
X0102380Y0122654D01*
X0102380Y0132102D01*
X0092931Y0132102D01*
X0092931Y0131922D02*
X0102380Y0131922D01*
X0102380Y0131823D02*
X0092931Y0131823D01*
X0092931Y0131725D02*
X0102380Y0131725D01*
X0102380Y0131626D02*
X0092931Y0131626D01*
X0092931Y0131527D02*
X0102380Y0131527D01*
X0102380Y0131429D02*
X0092931Y0131429D01*
X0092931Y0131330D02*
X0102380Y0131330D01*
X0102380Y0131232D02*
X0092931Y0131232D01*
X0092931Y0131133D02*
X0102380Y0131133D01*
X0102380Y0131035D02*
X0092931Y0131035D01*
X0092931Y0130936D02*
X0102380Y0130936D01*
X0102380Y0130838D02*
X0092931Y0130838D01*
X0092931Y0130739D02*
X0102380Y0130739D01*
X0102380Y0130641D02*
X0092931Y0130641D01*
X0092931Y0130542D02*
X0102380Y0130542D01*
X0102380Y0130444D02*
X0092931Y0130444D01*
X0092931Y0130345D02*
X0102380Y0130345D01*
X0102380Y0130247D02*
X0092931Y0130247D01*
X0092931Y0130148D02*
X0102380Y0130148D01*
X0102380Y0130050D02*
X0092931Y0130050D01*
X0092931Y0129951D02*
X0102380Y0129951D01*
X0102380Y0129853D02*
X0092931Y0129853D01*
X0092931Y0129754D02*
X0102380Y0129754D01*
X0102380Y0129656D02*
X0092931Y0129656D01*
X0092931Y0129557D02*
X0102380Y0129557D01*
X0102380Y0129459D02*
X0092931Y0129459D01*
X0092931Y0129360D02*
X0102380Y0129360D01*
X0102380Y0129262D02*
X0092931Y0129262D01*
X0092931Y0129163D02*
X0102380Y0129163D01*
X0102380Y0129065D02*
X0092931Y0129065D01*
X0092931Y0128966D02*
X0102380Y0128966D01*
X0102380Y0128868D02*
X0092931Y0128868D01*
X0092931Y0128769D02*
X0102380Y0128769D01*
X0102380Y0128671D02*
X0092931Y0128671D01*
X0092931Y0128572D02*
X0102380Y0128572D01*
X0102380Y0128474D02*
X0092931Y0128474D01*
X0092931Y0128375D02*
X0102380Y0128375D01*
X0102380Y0128277D02*
X0092931Y0128277D01*
X0092931Y0128178D02*
X0102380Y0128178D01*
X0102380Y0128080D02*
X0092931Y0128080D01*
X0092931Y0127981D02*
X0102380Y0127981D01*
X0102380Y0127883D02*
X0092931Y0127883D01*
X0092931Y0127784D02*
X0102380Y0127784D01*
X0102380Y0127686D02*
X0092931Y0127686D01*
X0092931Y0127587D02*
X0102380Y0127587D01*
X0102380Y0127489D02*
X0092931Y0127489D01*
X0092931Y0127390D02*
X0102380Y0127390D01*
X0102380Y0127292D02*
X0092931Y0127292D01*
X0092931Y0127193D02*
X0102380Y0127193D01*
X0102380Y0127094D02*
X0092931Y0127094D01*
X0092931Y0126996D02*
X0102380Y0126996D01*
X0102380Y0126897D02*
X0092931Y0126897D01*
X0092931Y0126799D02*
X0102380Y0126799D01*
X0102380Y0126700D02*
X0092931Y0126700D01*
X0092931Y0126602D02*
X0102380Y0126602D01*
X0102380Y0126503D02*
X0092931Y0126503D01*
X0092931Y0126405D02*
X0102380Y0126405D01*
X0102380Y0126306D02*
X0092931Y0126306D01*
X0092931Y0126208D02*
X0102380Y0126208D01*
X0102380Y0126109D02*
X0092931Y0126109D01*
X0092931Y0126011D02*
X0102380Y0126011D01*
X0102380Y0125912D02*
X0092931Y0125912D01*
X0092931Y0125814D02*
X0102380Y0125814D01*
X0102380Y0125715D02*
X0096080Y0125715D01*
X0096080Y0125617D02*
X0102380Y0125617D01*
X0102380Y0125518D02*
X0096080Y0125518D01*
X0096080Y0125420D02*
X0102380Y0125420D01*
X0102380Y0125321D02*
X0096080Y0125321D01*
X0096080Y0125223D02*
X0102380Y0125223D01*
X0102380Y0125124D02*
X0096080Y0125124D01*
X0096080Y0125026D02*
X0102380Y0125026D01*
X0102380Y0124927D02*
X0096080Y0124927D01*
X0096080Y0124829D02*
X0102380Y0124829D01*
X0102380Y0124730D02*
X0096080Y0124730D01*
X0096080Y0124632D02*
X0102380Y0124632D01*
X0102380Y0124533D02*
X0096080Y0124533D01*
X0096080Y0124435D02*
X0102380Y0124435D01*
X0102380Y0124336D02*
X0096080Y0124336D01*
X0096080Y0124238D02*
X0102380Y0124238D01*
X0102380Y0124139D02*
X0096080Y0124139D01*
X0096080Y0124041D02*
X0102380Y0124041D01*
X0102380Y0123942D02*
X0096080Y0123942D01*
X0096080Y0123844D02*
X0102380Y0123844D01*
X0102380Y0123745D02*
X0096080Y0123745D01*
X0096080Y0123647D02*
X0102380Y0123647D01*
X0102380Y0123548D02*
X0096080Y0123548D01*
X0096080Y0123450D02*
X0102380Y0123450D01*
X0102380Y0123351D02*
X0096080Y0123351D01*
X0096080Y0123253D02*
X0102380Y0123253D01*
X0102380Y0123154D02*
X0096080Y0123154D01*
X0096080Y0123056D02*
X0102380Y0123056D01*
X0102380Y0122957D02*
X0096080Y0122957D01*
X0096080Y0122859D02*
X0102380Y0122859D01*
X0102380Y0122760D02*
X0096080Y0122760D01*
X0096080Y0122661D02*
X0102380Y0122661D01*
D15*
X0281577Y0119727D02*
X0281623Y0119727D01*
X0281577Y0119727D02*
X0281577Y0119773D01*
X0281623Y0119773D01*
X0281623Y0119727D01*
X0290577Y0115977D02*
X0290623Y0115977D01*
X0290577Y0115977D02*
X0290577Y0116023D01*
X0290623Y0116023D01*
X0290623Y0115977D01*
X0281623Y0112227D02*
X0281577Y0112227D01*
X0281577Y0112273D01*
X0281623Y0112273D01*
X0281623Y0112227D01*
X0281623Y0127227D02*
X0281577Y0127227D01*
X0281577Y0127273D01*
X0281623Y0127273D01*
X0281623Y0127227D01*
X0290577Y0130977D02*
X0290623Y0130977D01*
X0290577Y0130977D02*
X0290577Y0131023D01*
X0290623Y0131023D01*
X0290623Y0130977D01*
X0281623Y0134727D02*
X0281577Y0134727D01*
X0281577Y0134773D01*
X0281623Y0134773D01*
X0281623Y0134727D01*
X0382327Y0137977D02*
X0382327Y0138023D01*
X0382373Y0138023D01*
X0382373Y0137977D01*
X0382327Y0137977D01*
X0389827Y0137977D02*
X0389827Y0138023D01*
X0389873Y0138023D01*
X0389873Y0137977D01*
X0389827Y0137977D01*
X0386077Y0129023D02*
X0386077Y0128977D01*
X0386077Y0129023D02*
X0386123Y0129023D01*
X0386123Y0128977D01*
X0386077Y0128977D01*
D16*
X0256996Y0129770D02*
X0253236Y0129770D01*
X0253236Y0129790D01*
X0256996Y0129790D01*
X0256996Y0129770D01*
X0256996Y0132329D02*
X0253236Y0132329D01*
X0253236Y0132349D01*
X0256996Y0132349D01*
X0256996Y0132329D01*
X0256996Y0134888D02*
X0253236Y0134888D01*
X0253236Y0134908D01*
X0256996Y0134908D01*
X0256996Y0134888D01*
X0256996Y0137447D02*
X0253236Y0137447D01*
X0253236Y0137467D01*
X0256996Y0137467D01*
X0256996Y0137447D01*
X0233964Y0134888D02*
X0230204Y0134888D01*
X0230204Y0134908D01*
X0233964Y0134908D01*
X0233964Y0134888D01*
X0233964Y0132329D02*
X0230204Y0132329D01*
X0230204Y0132349D01*
X0233964Y0132349D01*
X0233964Y0132329D01*
X0233964Y0129770D02*
X0230204Y0129770D01*
X0230204Y0129790D01*
X0233964Y0129790D01*
X0233964Y0129770D01*
X0233964Y0127210D02*
X0230204Y0127210D01*
X0230204Y0127230D01*
X0233964Y0127230D01*
X0233964Y0127210D01*
X0233964Y0124651D02*
X0230204Y0124651D01*
X0230204Y0124671D01*
X0233964Y0124671D01*
X0233964Y0124651D01*
X0233964Y0122092D02*
X0230204Y0122092D01*
X0230204Y0122112D01*
X0233964Y0122112D01*
X0233964Y0122092D01*
X0233964Y0119533D02*
X0230204Y0119533D01*
X0230204Y0119553D01*
X0233964Y0119553D01*
X0233964Y0119533D01*
X0253236Y0119533D02*
X0256996Y0119533D01*
X0253236Y0119533D02*
X0253236Y0119553D01*
X0256996Y0119553D01*
X0256996Y0119533D01*
X0256996Y0122092D02*
X0253236Y0122092D01*
X0253236Y0122112D01*
X0256996Y0122112D01*
X0256996Y0122092D01*
X0256996Y0124651D02*
X0253236Y0124651D01*
X0253236Y0124671D01*
X0256996Y0124671D01*
X0256996Y0124651D01*
X0256996Y0127210D02*
X0253236Y0127210D01*
X0253236Y0127230D01*
X0256996Y0127230D01*
X0256996Y0127210D01*
X0395598Y0082260D02*
X0400342Y0082260D01*
X0400342Y0082240D01*
X0395598Y0082240D01*
X0395598Y0082260D01*
X0395598Y0079760D02*
X0400342Y0079760D01*
X0400342Y0079740D01*
X0395598Y0079740D01*
X0395598Y0079760D01*
X0395598Y0077260D02*
X0400342Y0077260D01*
X0400342Y0077240D01*
X0395598Y0077240D01*
X0395598Y0077260D01*
X0395598Y0074760D02*
X0400342Y0074760D01*
X0400342Y0074740D01*
X0395598Y0074740D01*
X0395598Y0074760D01*
X0395598Y0072260D02*
X0400342Y0072260D01*
X0400342Y0072240D01*
X0395598Y0072240D01*
X0395598Y0072260D01*
X0395598Y0069760D02*
X0400342Y0069760D01*
X0400342Y0069740D01*
X0395598Y0069740D01*
X0395598Y0069760D01*
X0395598Y0067260D02*
X0400342Y0067260D01*
X0400342Y0067240D01*
X0395598Y0067240D01*
X0395598Y0067260D01*
X0395598Y0064760D02*
X0400342Y0064760D01*
X0400342Y0064740D01*
X0395598Y0064740D01*
X0395598Y0064760D01*
X0395598Y0062260D02*
X0400342Y0062260D01*
X0400342Y0062240D01*
X0395598Y0062240D01*
X0395598Y0062260D01*
X0395598Y0059760D02*
X0400342Y0059760D01*
X0400342Y0059740D01*
X0395598Y0059740D01*
X0395598Y0059760D01*
X0395598Y0057260D02*
X0400342Y0057260D01*
X0400342Y0057240D01*
X0395598Y0057240D01*
X0395598Y0057260D01*
X0395598Y0054760D02*
X0400342Y0054760D01*
X0400342Y0054740D01*
X0395598Y0054740D01*
X0395598Y0054760D01*
X0416858Y0057260D02*
X0421602Y0057260D01*
X0421602Y0057240D01*
X0416858Y0057240D01*
X0416858Y0057260D01*
X0416858Y0059760D02*
X0421602Y0059760D01*
X0421602Y0059740D01*
X0416858Y0059740D01*
X0416858Y0059760D01*
X0416858Y0062260D02*
X0421602Y0062260D01*
X0421602Y0062240D01*
X0416858Y0062240D01*
X0416858Y0062260D01*
X0416858Y0064760D02*
X0421602Y0064760D01*
X0421602Y0064740D01*
X0416858Y0064740D01*
X0416858Y0064760D01*
X0416858Y0067260D02*
X0421602Y0067260D01*
X0421602Y0067240D01*
X0416858Y0067240D01*
X0416858Y0067260D01*
X0416858Y0069760D02*
X0421602Y0069760D01*
X0421602Y0069740D01*
X0416858Y0069740D01*
X0416858Y0069760D01*
X0416858Y0072260D02*
X0421602Y0072260D01*
X0421602Y0072240D01*
X0416858Y0072240D01*
X0416858Y0072260D01*
X0416858Y0074760D02*
X0421602Y0074760D01*
X0421602Y0074740D01*
X0416858Y0074740D01*
X0416858Y0074760D01*
X0416858Y0077260D02*
X0421602Y0077260D01*
X0421602Y0077240D01*
X0416858Y0077240D01*
X0416858Y0077260D01*
X0416858Y0079760D02*
X0421602Y0079760D01*
X0421602Y0079740D01*
X0416858Y0079740D01*
X0416858Y0079760D01*
X0416858Y0082260D02*
X0421602Y0082260D01*
X0421602Y0082240D01*
X0416858Y0082240D01*
X0416858Y0082260D01*
X0354496Y0076187D02*
X0350736Y0076187D01*
X0354496Y0076187D02*
X0354496Y0076167D01*
X0350736Y0076167D01*
X0350736Y0076187D01*
X0350736Y0073628D02*
X0354496Y0073628D01*
X0354496Y0073608D01*
X0350736Y0073608D01*
X0350736Y0073628D01*
X0350736Y0071069D02*
X0354496Y0071069D01*
X0354496Y0071049D01*
X0350736Y0071049D01*
X0350736Y0071069D01*
X0350736Y0068510D02*
X0354496Y0068510D01*
X0354496Y0068490D01*
X0350736Y0068490D01*
X0350736Y0068510D01*
X0350736Y0065951D02*
X0354496Y0065951D01*
X0354496Y0065931D01*
X0350736Y0065931D01*
X0350736Y0065951D01*
X0350736Y0063392D02*
X0354496Y0063392D01*
X0354496Y0063372D01*
X0350736Y0063372D01*
X0350736Y0063392D01*
X0350736Y0060833D02*
X0354496Y0060833D01*
X0354496Y0060813D01*
X0350736Y0060813D01*
X0350736Y0060833D01*
X0331464Y0060833D02*
X0327704Y0060833D01*
X0331464Y0060833D02*
X0331464Y0060813D01*
X0327704Y0060813D01*
X0327704Y0060833D01*
X0327704Y0063392D02*
X0331464Y0063392D01*
X0331464Y0063372D01*
X0327704Y0063372D01*
X0327704Y0063392D01*
X0327704Y0065951D02*
X0331464Y0065951D01*
X0331464Y0065931D01*
X0327704Y0065931D01*
X0327704Y0065951D01*
X0327704Y0068510D02*
X0331464Y0068510D01*
X0331464Y0068490D01*
X0327704Y0068490D01*
X0327704Y0068510D01*
X0327704Y0071069D02*
X0331464Y0071069D01*
X0331464Y0071049D01*
X0327704Y0071049D01*
X0327704Y0071069D01*
X0327704Y0073628D02*
X0331464Y0073628D01*
X0331464Y0073608D01*
X0327704Y0073608D01*
X0327704Y0073628D01*
X0327704Y0076187D02*
X0331464Y0076187D01*
X0331464Y0076167D01*
X0327704Y0076167D01*
X0327704Y0076187D01*
X0294496Y0077467D02*
X0290736Y0077467D01*
X0294496Y0077467D02*
X0294496Y0077447D01*
X0290736Y0077447D01*
X0290736Y0077467D01*
X0290736Y0074908D02*
X0294496Y0074908D01*
X0294496Y0074888D01*
X0290736Y0074888D01*
X0290736Y0074908D01*
X0290736Y0072349D02*
X0294496Y0072349D01*
X0294496Y0072329D01*
X0290736Y0072329D01*
X0290736Y0072349D01*
X0290736Y0069790D02*
X0294496Y0069790D01*
X0294496Y0069770D01*
X0290736Y0069770D01*
X0290736Y0069790D01*
X0290736Y0067230D02*
X0294496Y0067230D01*
X0294496Y0067210D01*
X0290736Y0067210D01*
X0290736Y0067230D01*
X0290736Y0064671D02*
X0294496Y0064671D01*
X0294496Y0064651D01*
X0290736Y0064651D01*
X0290736Y0064671D01*
X0290736Y0062112D02*
X0294496Y0062112D01*
X0294496Y0062092D01*
X0290736Y0062092D01*
X0290736Y0062112D01*
X0271464Y0062112D02*
X0267704Y0062112D01*
X0271464Y0062112D02*
X0271464Y0062092D01*
X0267704Y0062092D01*
X0267704Y0062112D01*
X0267704Y0064671D02*
X0271464Y0064671D01*
X0271464Y0064651D01*
X0267704Y0064651D01*
X0267704Y0064671D01*
X0267704Y0067230D02*
X0271464Y0067230D01*
X0271464Y0067210D01*
X0267704Y0067210D01*
X0267704Y0067230D01*
X0267704Y0069790D02*
X0271464Y0069790D01*
X0271464Y0069770D01*
X0267704Y0069770D01*
X0267704Y0069790D01*
X0267704Y0072349D02*
X0271464Y0072349D01*
X0271464Y0072329D01*
X0267704Y0072329D01*
X0267704Y0072349D01*
X0267704Y0074908D02*
X0271464Y0074908D01*
X0271464Y0074888D01*
X0267704Y0074888D01*
X0267704Y0074908D01*
X0267704Y0077467D02*
X0271464Y0077467D01*
X0271464Y0077447D01*
X0267704Y0077447D01*
X0267704Y0077467D01*
X0234496Y0076187D02*
X0230736Y0076187D01*
X0234496Y0076187D02*
X0234496Y0076167D01*
X0230736Y0076167D01*
X0230736Y0076187D01*
X0230736Y0073628D02*
X0234496Y0073628D01*
X0234496Y0073608D01*
X0230736Y0073608D01*
X0230736Y0073628D01*
X0230736Y0071069D02*
X0234496Y0071069D01*
X0234496Y0071049D01*
X0230736Y0071049D01*
X0230736Y0071069D01*
X0230736Y0068510D02*
X0234496Y0068510D01*
X0234496Y0068490D01*
X0230736Y0068490D01*
X0230736Y0068510D01*
X0230736Y0065951D02*
X0234496Y0065951D01*
X0234496Y0065931D01*
X0230736Y0065931D01*
X0230736Y0065951D01*
X0230736Y0063392D02*
X0234496Y0063392D01*
X0234496Y0063372D01*
X0230736Y0063372D01*
X0230736Y0063392D01*
X0230736Y0060833D02*
X0234496Y0060833D01*
X0234496Y0060813D01*
X0230736Y0060813D01*
X0230736Y0060833D01*
X0211464Y0060833D02*
X0207704Y0060833D01*
X0211464Y0060833D02*
X0211464Y0060813D01*
X0207704Y0060813D01*
X0207704Y0060833D01*
X0207704Y0063392D02*
X0211464Y0063392D01*
X0211464Y0063372D01*
X0207704Y0063372D01*
X0207704Y0063392D01*
X0207704Y0065951D02*
X0211464Y0065951D01*
X0211464Y0065931D01*
X0207704Y0065931D01*
X0207704Y0065951D01*
X0207704Y0068510D02*
X0211464Y0068510D01*
X0211464Y0068490D01*
X0207704Y0068490D01*
X0207704Y0068510D01*
X0207704Y0071069D02*
X0211464Y0071069D01*
X0211464Y0071049D01*
X0207704Y0071049D01*
X0207704Y0071069D01*
X0207704Y0073628D02*
X0211464Y0073628D01*
X0211464Y0073608D01*
X0207704Y0073608D01*
X0207704Y0073628D01*
X0207704Y0076187D02*
X0211464Y0076187D01*
X0211464Y0076167D01*
X0207704Y0076167D01*
X0207704Y0076187D01*
X0179496Y0077467D02*
X0175736Y0077467D01*
X0179496Y0077467D02*
X0179496Y0077447D01*
X0175736Y0077447D01*
X0175736Y0077467D01*
X0175736Y0074908D02*
X0179496Y0074908D01*
X0179496Y0074888D01*
X0175736Y0074888D01*
X0175736Y0074908D01*
X0175736Y0072349D02*
X0179496Y0072349D01*
X0179496Y0072329D01*
X0175736Y0072329D01*
X0175736Y0072349D01*
X0175736Y0069790D02*
X0179496Y0069790D01*
X0179496Y0069770D01*
X0175736Y0069770D01*
X0175736Y0069790D01*
X0175736Y0067230D02*
X0179496Y0067230D01*
X0179496Y0067210D01*
X0175736Y0067210D01*
X0175736Y0067230D01*
X0175736Y0064671D02*
X0179496Y0064671D01*
X0179496Y0064651D01*
X0175736Y0064651D01*
X0175736Y0064671D01*
X0175736Y0062112D02*
X0179496Y0062112D01*
X0179496Y0062092D01*
X0175736Y0062092D01*
X0175736Y0062112D01*
X0156464Y0062112D02*
X0152704Y0062112D01*
X0156464Y0062112D02*
X0156464Y0062092D01*
X0152704Y0062092D01*
X0152704Y0062112D01*
X0152704Y0064671D02*
X0156464Y0064671D01*
X0156464Y0064651D01*
X0152704Y0064651D01*
X0152704Y0064671D01*
X0152704Y0067230D02*
X0156464Y0067230D01*
X0156464Y0067210D01*
X0152704Y0067210D01*
X0152704Y0067230D01*
X0152704Y0069790D02*
X0156464Y0069790D01*
X0156464Y0069770D01*
X0152704Y0069770D01*
X0152704Y0069790D01*
X0152704Y0072349D02*
X0156464Y0072349D01*
X0156464Y0072329D01*
X0152704Y0072329D01*
X0152704Y0072349D01*
X0152704Y0074908D02*
X0156464Y0074908D01*
X0156464Y0074888D01*
X0152704Y0074888D01*
X0152704Y0074908D01*
X0152704Y0077467D02*
X0156464Y0077467D01*
X0156464Y0077447D01*
X0152704Y0077447D01*
X0152704Y0077467D01*
X0152704Y0059553D02*
X0156464Y0059553D01*
X0156464Y0059533D01*
X0152704Y0059533D01*
X0152704Y0059553D01*
X0267704Y0059553D02*
X0271464Y0059553D01*
X0271464Y0059533D01*
X0267704Y0059533D01*
X0267704Y0059553D01*
D17*
X0292616Y0059543D03*
X0177616Y0059543D03*
X0232084Y0137457D03*
D18*
X0445600Y0136000D02*
X0451600Y0136000D01*
X0451600Y0126000D02*
X0445600Y0126000D01*
X0445600Y0116000D02*
X0451600Y0116000D01*
X0451600Y0106000D02*
X0445600Y0106000D01*
X0445600Y0096000D02*
X0451600Y0096000D01*
X0451600Y0086000D02*
X0445600Y0086000D01*
X0445600Y0076000D02*
X0451600Y0076000D01*
X0451600Y0066000D02*
X0445600Y0066000D01*
X0445600Y0056000D02*
X0451600Y0056000D01*
X0451600Y0046000D02*
X0445600Y0046000D01*
X0445600Y0036000D02*
X0451600Y0036000D01*
X0451600Y0026000D02*
X0445600Y0026000D01*
X0445600Y0016000D02*
X0451600Y0016000D01*
X0451600Y0146000D02*
X0445600Y0146000D01*
D19*
X0419230Y0054750D03*
D20*
X0280224Y0145474D02*
X0280224Y0145526D01*
X0281976Y0145526D01*
X0281976Y0145474D01*
X0280224Y0145474D01*
X0270224Y0145474D02*
X0270224Y0145526D01*
X0271976Y0145526D01*
X0271976Y0145474D01*
X0270224Y0145474D01*
X0270224Y0151474D02*
X0270224Y0151526D01*
X0271976Y0151526D01*
X0271976Y0151474D01*
X0270224Y0151474D01*
X0280224Y0151474D02*
X0280224Y0151526D01*
X0281976Y0151526D01*
X0281976Y0151474D01*
X0280224Y0151474D01*
D21*
X0281100Y0148500D03*
X0271100Y0148500D03*
M02*
