G75*
%MOIN*%
%OFA0B0*%
%FSLAX25Y25*%
%IPPOS*%
%LPD*%
%AMOC8*
5,1,8,0,0,1.08239X$1,22.5*
%
%ADD10C,0.06000*%
%ADD11C,0.01000*%
%ADD12C,0.02200*%
%ADD13C,0.00600*%
D10*
X0445600Y0016000D02*
X0451600Y0016000D01*
X0451600Y0026000D02*
X0445600Y0026000D01*
X0445600Y0036000D02*
X0451600Y0036000D01*
X0451600Y0046000D02*
X0445600Y0046000D01*
X0445600Y0056000D02*
X0451600Y0056000D01*
X0451600Y0066000D02*
X0445600Y0066000D01*
X0445600Y0076000D02*
X0451600Y0076000D01*
X0451600Y0086000D02*
X0445600Y0086000D01*
X0445600Y0096000D02*
X0451600Y0096000D01*
X0451600Y0106000D02*
X0445600Y0106000D01*
X0445600Y0116000D02*
X0451600Y0116000D01*
X0451600Y0126000D02*
X0445600Y0126000D01*
X0445600Y0136000D02*
X0451600Y0136000D01*
X0451600Y0146000D02*
X0445600Y0146000D01*
D11*
X0003000Y0162500D02*
X0003000Y0003000D01*
X0474200Y0003000D01*
X0474200Y0162500D01*
X0003000Y0162500D01*
X0003000Y0161760D02*
X0474200Y0161760D01*
X0474200Y0160762D02*
X0003000Y0160762D01*
X0003000Y0159763D02*
X0474200Y0159763D01*
X0474200Y0158765D02*
X0367696Y0158765D01*
X0368300Y0158161D02*
X0367011Y0159450D01*
X0365189Y0159450D01*
X0363900Y0158161D01*
X0363900Y0156339D01*
X0364700Y0155539D01*
X0364700Y0153961D01*
X0363900Y0153161D01*
X0363900Y0151339D01*
X0365189Y0150050D01*
X0367011Y0150050D01*
X0368300Y0151339D01*
X0368300Y0153161D01*
X0367500Y0153961D01*
X0367500Y0155539D01*
X0368300Y0156339D01*
X0368300Y0158161D01*
X0368300Y0157766D02*
X0474200Y0157766D01*
X0474200Y0156768D02*
X0368300Y0156768D01*
X0367731Y0155769D02*
X0474200Y0155769D01*
X0474200Y0154771D02*
X0367500Y0154771D01*
X0367689Y0153772D02*
X0474200Y0153772D01*
X0474200Y0152774D02*
X0368300Y0152774D01*
X0368300Y0151775D02*
X0474200Y0151775D01*
X0474200Y0150777D02*
X0367738Y0150777D01*
X0364462Y0150777D02*
X0357738Y0150777D01*
X0358300Y0151339D02*
X0358300Y0153161D01*
X0357500Y0153961D01*
X0357500Y0155539D01*
X0358300Y0156339D01*
X0358300Y0158161D01*
X0357011Y0159450D01*
X0355189Y0159450D01*
X0353900Y0158161D01*
X0353900Y0156339D01*
X0354700Y0155539D01*
X0354700Y0153961D01*
X0353900Y0153161D01*
X0353900Y0151339D01*
X0355189Y0150050D01*
X0357011Y0150050D01*
X0358300Y0151339D01*
X0358300Y0151775D02*
X0363900Y0151775D01*
X0363900Y0152774D02*
X0358300Y0152774D01*
X0357689Y0153772D02*
X0364511Y0153772D01*
X0364700Y0154771D02*
X0357500Y0154771D01*
X0357731Y0155769D02*
X0364469Y0155769D01*
X0363900Y0156768D02*
X0358300Y0156768D01*
X0358300Y0157766D02*
X0363900Y0157766D01*
X0364504Y0158765D02*
X0357696Y0158765D01*
X0354504Y0158765D02*
X0003000Y0158765D01*
X0003000Y0157766D02*
X0353900Y0157766D01*
X0353900Y0156768D02*
X0003000Y0156768D01*
X0003000Y0155769D02*
X0354469Y0155769D01*
X0354700Y0154771D02*
X0003000Y0154771D01*
X0003000Y0153772D02*
X0354511Y0153772D01*
X0353900Y0152774D02*
X0003000Y0152774D01*
X0003000Y0151775D02*
X0353900Y0151775D01*
X0354462Y0150777D02*
X0003000Y0150777D01*
X0003000Y0149778D02*
X0443144Y0149778D01*
X0443241Y0149849D02*
X0442668Y0149432D01*
X0442168Y0148932D01*
X0441751Y0148359D01*
X0441430Y0147727D01*
X0441211Y0147054D01*
X0441123Y0146500D01*
X0448100Y0146500D01*
X0448100Y0150500D01*
X0445246Y0150500D01*
X0444546Y0150389D01*
X0443873Y0150170D01*
X0443241Y0149849D01*
X0442057Y0148780D02*
X0003000Y0148780D01*
X0003000Y0147781D02*
X0441457Y0147781D01*
X0441168Y0146783D02*
X0003000Y0146783D01*
X0003000Y0145784D02*
X0448100Y0145784D01*
X0448100Y0145500D02*
X0448100Y0146500D01*
X0449100Y0146500D01*
X0449100Y0150500D01*
X0451954Y0150500D01*
X0452654Y0150389D01*
X0453327Y0150170D01*
X0453959Y0149849D01*
X0454532Y0149432D01*
X0455032Y0148932D01*
X0455449Y0148359D01*
X0455770Y0147727D01*
X0455989Y0147054D01*
X0456077Y0146500D01*
X0449100Y0146500D01*
X0449100Y0145500D01*
X0456077Y0145500D01*
X0455989Y0144946D01*
X0455770Y0144273D01*
X0455449Y0143641D01*
X0455032Y0143068D01*
X0454532Y0142568D01*
X0453959Y0142151D01*
X0453327Y0141830D01*
X0452654Y0141611D01*
X0451954Y0141500D01*
X0449100Y0141500D01*
X0449100Y0145500D01*
X0448100Y0145500D01*
X0448100Y0141500D01*
X0445246Y0141500D01*
X0444546Y0141611D01*
X0443873Y0141830D01*
X0443241Y0142151D01*
X0442668Y0142568D01*
X0442168Y0143068D01*
X0441751Y0143641D01*
X0441430Y0144273D01*
X0441211Y0144946D01*
X0441123Y0145500D01*
X0448100Y0145500D01*
X0448100Y0144786D02*
X0449100Y0144786D01*
X0449100Y0145784D02*
X0474200Y0145784D01*
X0474200Y0144786D02*
X0455937Y0144786D01*
X0455523Y0143787D02*
X0474200Y0143787D01*
X0474200Y0142789D02*
X0454753Y0142789D01*
X0453206Y0141790D02*
X0474200Y0141790D01*
X0474200Y0140792D02*
X0003000Y0140792D01*
X0003000Y0141790D02*
X0443994Y0141790D01*
X0442447Y0142789D02*
X0003000Y0142789D01*
X0003000Y0143787D02*
X0441677Y0143787D01*
X0441263Y0144786D02*
X0003000Y0144786D01*
X0003000Y0139793D02*
X0444044Y0139793D01*
X0444784Y0140100D02*
X0443278Y0139476D01*
X0442124Y0138322D01*
X0441500Y0136816D01*
X0441500Y0135184D01*
X0442124Y0133678D01*
X0443278Y0132524D01*
X0444784Y0131900D01*
X0452416Y0131900D01*
X0453922Y0132524D01*
X0455076Y0133678D01*
X0455700Y0135184D01*
X0455700Y0136816D01*
X0455076Y0138322D01*
X0453922Y0139476D01*
X0452416Y0140100D01*
X0444784Y0140100D01*
X0442596Y0138795D02*
X0003000Y0138795D01*
X0003000Y0137796D02*
X0441906Y0137796D01*
X0441500Y0136798D02*
X0003000Y0136798D01*
X0003000Y0135799D02*
X0441500Y0135799D01*
X0441659Y0134801D02*
X0003000Y0134801D01*
X0003000Y0133802D02*
X0442073Y0133802D01*
X0442998Y0132803D02*
X0003000Y0132803D01*
X0003000Y0131805D02*
X0474200Y0131805D01*
X0474200Y0132803D02*
X0454202Y0132803D01*
X0455127Y0133802D02*
X0474200Y0133802D01*
X0474200Y0134801D02*
X0455541Y0134801D01*
X0455700Y0135799D02*
X0474200Y0135799D01*
X0474200Y0136798D02*
X0455700Y0136798D01*
X0455294Y0137796D02*
X0474200Y0137796D01*
X0474200Y0138795D02*
X0454604Y0138795D01*
X0453156Y0139793D02*
X0474200Y0139793D01*
X0474200Y0146783D02*
X0456032Y0146783D01*
X0455743Y0147781D02*
X0474200Y0147781D01*
X0474200Y0148780D02*
X0455143Y0148780D01*
X0454056Y0149778D02*
X0474200Y0149778D01*
X0449100Y0149778D02*
X0448100Y0149778D01*
X0448100Y0148780D02*
X0449100Y0148780D01*
X0449100Y0147781D02*
X0448100Y0147781D01*
X0448100Y0146783D02*
X0449100Y0146783D01*
X0449100Y0143787D02*
X0448100Y0143787D01*
X0448100Y0142789D02*
X0449100Y0142789D01*
X0449100Y0141790D02*
X0448100Y0141790D01*
X0474200Y0130806D02*
X0003000Y0130806D01*
X0003000Y0129808D02*
X0444079Y0129808D01*
X0444784Y0130100D02*
X0443278Y0129476D01*
X0442124Y0128322D01*
X0441500Y0126816D01*
X0441500Y0125184D01*
X0442124Y0123678D01*
X0443278Y0122524D01*
X0444784Y0121900D01*
X0452416Y0121900D01*
X0453922Y0122524D01*
X0455076Y0123678D01*
X0455700Y0125184D01*
X0455700Y0126816D01*
X0455076Y0128322D01*
X0453922Y0129476D01*
X0452416Y0130100D01*
X0444784Y0130100D01*
X0442611Y0128809D02*
X0003000Y0128809D01*
X0003000Y0127811D02*
X0441912Y0127811D01*
X0441500Y0126812D02*
X0003000Y0126812D01*
X0003000Y0125814D02*
X0441500Y0125814D01*
X0441653Y0124815D02*
X0003000Y0124815D01*
X0003000Y0123817D02*
X0442066Y0123817D01*
X0442983Y0122818D02*
X0003000Y0122818D01*
X0003000Y0121820D02*
X0474200Y0121820D01*
X0474200Y0122818D02*
X0454217Y0122818D01*
X0455134Y0123817D02*
X0474200Y0123817D01*
X0474200Y0124815D02*
X0455547Y0124815D01*
X0455700Y0125814D02*
X0474200Y0125814D01*
X0474200Y0126812D02*
X0455700Y0126812D01*
X0455288Y0127811D02*
X0474200Y0127811D01*
X0474200Y0128809D02*
X0454589Y0128809D01*
X0453121Y0129808D02*
X0474200Y0129808D01*
X0474200Y0120821D02*
X0003000Y0120821D01*
X0003000Y0119823D02*
X0444115Y0119823D01*
X0444784Y0120100D02*
X0443278Y0119476D01*
X0442124Y0118322D01*
X0441500Y0116816D01*
X0441500Y0115184D01*
X0442124Y0113678D01*
X0443278Y0112524D01*
X0444784Y0111900D01*
X0452416Y0111900D01*
X0453922Y0112524D01*
X0455076Y0113678D01*
X0455700Y0115184D01*
X0455700Y0116816D01*
X0455076Y0118322D01*
X0453922Y0119476D01*
X0452416Y0120100D01*
X0444784Y0120100D01*
X0442626Y0118824D02*
X0003000Y0118824D01*
X0003000Y0117826D02*
X0441918Y0117826D01*
X0441505Y0116827D02*
X0003000Y0116827D01*
X0003000Y0115829D02*
X0441500Y0115829D01*
X0441647Y0114830D02*
X0003000Y0114830D01*
X0003000Y0113832D02*
X0158372Y0113832D01*
X0159000Y0114460D02*
X0157711Y0113171D01*
X0157711Y0111349D01*
X0158511Y0110549D01*
X0158511Y0106874D01*
X0158511Y0105714D01*
X0183009Y0081217D01*
X0183009Y0075342D01*
X0181789Y0074122D01*
X0181789Y0072299D01*
X0183077Y0071011D01*
X0184900Y0071011D01*
X0186189Y0072299D01*
X0186189Y0074122D01*
X0185809Y0074502D01*
X0185809Y0080397D01*
X0202428Y0080397D01*
X0202564Y0080533D01*
X0203696Y0080533D01*
X0204984Y0081821D01*
X0204984Y0083644D01*
X0203696Y0084933D01*
X0201873Y0084933D01*
X0200584Y0083644D01*
X0200584Y0083197D01*
X0184989Y0083197D01*
X0161311Y0106874D01*
X0161311Y0110549D01*
X0162111Y0111349D01*
X0162111Y0113171D01*
X0160823Y0114460D01*
X0159000Y0114460D01*
X0157711Y0112833D02*
X0003000Y0112833D01*
X0003000Y0111835D02*
X0157711Y0111835D01*
X0158224Y0110836D02*
X0003000Y0110836D01*
X0003000Y0109838D02*
X0158511Y0109838D01*
X0158511Y0108839D02*
X0003000Y0108839D01*
X0003000Y0107841D02*
X0158511Y0107841D01*
X0158511Y0106842D02*
X0003000Y0106842D01*
X0003000Y0105844D02*
X0158511Y0105844D01*
X0159380Y0104845D02*
X0003000Y0104845D01*
X0003000Y0103847D02*
X0160379Y0103847D01*
X0161377Y0102848D02*
X0146982Y0102848D01*
X0147360Y0102470D02*
X0146072Y0103759D01*
X0144249Y0103759D01*
X0142960Y0102470D01*
X0142960Y0100648D01*
X0144249Y0099359D01*
X0145380Y0099359D01*
X0184319Y0060420D01*
X0185139Y0059600D01*
X0234082Y0059600D01*
X0234799Y0058883D01*
X0234799Y0057752D01*
X0236088Y0056463D01*
X0237910Y0056463D01*
X0238547Y0057100D01*
X0323020Y0057100D01*
X0332200Y0047920D01*
X0333020Y0047100D01*
X0371680Y0047100D01*
X0393280Y0068700D01*
X0394100Y0069520D01*
X0394100Y0075539D01*
X0394900Y0076339D01*
X0394900Y0078161D01*
X0393611Y0079450D01*
X0391788Y0079450D01*
X0390500Y0078161D01*
X0390500Y0076339D01*
X0391300Y0075539D01*
X0391300Y0070680D01*
X0370520Y0049900D01*
X0334180Y0049900D01*
X0324593Y0059487D01*
X0367510Y0059487D01*
X0380090Y0072067D01*
X0381222Y0072067D01*
X0382510Y0073356D01*
X0382510Y0075179D01*
X0381222Y0076467D01*
X0379399Y0076467D01*
X0378110Y0075179D01*
X0378110Y0074047D01*
X0366350Y0062287D01*
X0324061Y0062287D01*
X0324561Y0062787D01*
X0324561Y0064609D01*
X0324019Y0065151D01*
X0325804Y0065151D01*
X0326604Y0065951D01*
X0356496Y0065951D01*
X0356785Y0065662D01*
X0358607Y0065662D01*
X0359896Y0066951D01*
X0359896Y0068253D01*
X0360437Y0067712D01*
X0360437Y0066581D01*
X0361726Y0065292D01*
X0363548Y0065292D01*
X0364837Y0066581D01*
X0364837Y0068403D01*
X0363548Y0069692D01*
X0362417Y0069692D01*
X0351478Y0080631D01*
X0318460Y0080631D01*
X0286433Y0112659D01*
X0169540Y0112659D01*
X0168740Y0113459D01*
X0166917Y0113459D01*
X0165629Y0112170D01*
X0165629Y0110348D01*
X0166917Y0109059D01*
X0168740Y0109059D01*
X0169540Y0109859D01*
X0285273Y0109859D01*
X0316480Y0078652D01*
X0317300Y0077831D01*
X0350318Y0077831D01*
X0358087Y0070062D01*
X0356785Y0070062D01*
X0355496Y0068773D01*
X0355496Y0068751D01*
X0326604Y0068751D01*
X0325804Y0069551D01*
X0323981Y0069551D01*
X0322693Y0068262D01*
X0322693Y0066440D01*
X0323234Y0065898D01*
X0322141Y0065898D01*
X0289000Y0099039D01*
X0289000Y0101354D01*
X0289800Y0102154D01*
X0289800Y0103976D01*
X0288511Y0105265D01*
X0286689Y0105265D01*
X0285400Y0103976D01*
X0285400Y0102154D01*
X0286200Y0101354D01*
X0286200Y0097879D01*
X0320161Y0063918D01*
X0320161Y0062787D01*
X0320660Y0062287D01*
X0240426Y0062287D01*
X0239551Y0063162D01*
X0239551Y0064293D01*
X0238262Y0065582D01*
X0236440Y0065582D01*
X0235640Y0064782D01*
X0187380Y0064782D01*
X0185346Y0066816D01*
X0185346Y0067947D01*
X0184057Y0069236D01*
X0182234Y0069236D01*
X0180946Y0067947D01*
X0180946Y0067753D01*
X0147360Y0101339D01*
X0147360Y0102470D01*
X0147360Y0101850D02*
X0162376Y0101850D01*
X0163374Y0100851D02*
X0147848Y0100851D01*
X0148847Y0099853D02*
X0164373Y0099853D01*
X0165371Y0098854D02*
X0149845Y0098854D01*
X0150844Y0097856D02*
X0166370Y0097856D01*
X0167369Y0096857D02*
X0151842Y0096857D01*
X0152841Y0095859D02*
X0168367Y0095859D01*
X0169366Y0094860D02*
X0153839Y0094860D01*
X0154838Y0093862D02*
X0170364Y0093862D01*
X0171363Y0092863D02*
X0155836Y0092863D01*
X0156835Y0091865D02*
X0172361Y0091865D01*
X0173360Y0090866D02*
X0157833Y0090866D01*
X0158832Y0089868D02*
X0174358Y0089868D01*
X0175357Y0088869D02*
X0159830Y0088869D01*
X0160829Y0087870D02*
X0176355Y0087870D01*
X0177354Y0086872D02*
X0161827Y0086872D01*
X0162826Y0085873D02*
X0178352Y0085873D01*
X0179351Y0084875D02*
X0163824Y0084875D01*
X0164823Y0083876D02*
X0180349Y0083876D01*
X0181348Y0082878D02*
X0165821Y0082878D01*
X0166820Y0081879D02*
X0182346Y0081879D01*
X0183009Y0080881D02*
X0167818Y0080881D01*
X0168817Y0079882D02*
X0183009Y0079882D01*
X0183009Y0078884D02*
X0169815Y0078884D01*
X0170814Y0077885D02*
X0183009Y0077885D01*
X0183009Y0076887D02*
X0171812Y0076887D01*
X0172811Y0075888D02*
X0183009Y0075888D01*
X0182557Y0074890D02*
X0173809Y0074890D01*
X0174808Y0073891D02*
X0181789Y0073891D01*
X0181789Y0072893D02*
X0175806Y0072893D01*
X0176805Y0071894D02*
X0182194Y0071894D01*
X0185784Y0071894D02*
X0259002Y0071894D01*
X0260001Y0070896D02*
X0177803Y0070896D01*
X0178802Y0069897D02*
X0260999Y0069897D01*
X0261998Y0068899D02*
X0184394Y0068899D01*
X0185346Y0067900D02*
X0262996Y0067900D01*
X0263995Y0066902D02*
X0185346Y0066902D01*
X0186258Y0065903D02*
X0264993Y0065903D01*
X0265992Y0064905D02*
X0238939Y0064905D01*
X0239551Y0063906D02*
X0266990Y0063906D01*
X0267096Y0063800D02*
X0295623Y0063800D01*
X0296423Y0063000D01*
X0298246Y0063000D01*
X0299535Y0064289D01*
X0299535Y0066112D01*
X0298246Y0067400D01*
X0296423Y0067400D01*
X0295623Y0066600D01*
X0268256Y0066600D01*
X0259798Y0075059D01*
X0259798Y0076190D01*
X0258509Y0077479D01*
X0256686Y0077479D01*
X0255398Y0076190D01*
X0255398Y0074367D01*
X0256686Y0073079D01*
X0257818Y0073079D01*
X0266276Y0064620D01*
X0267096Y0063800D01*
X0267955Y0066902D02*
X0295925Y0066902D01*
X0298745Y0066902D02*
X0317177Y0066902D01*
X0316178Y0067900D02*
X0266956Y0067900D01*
X0265957Y0068899D02*
X0315180Y0068899D01*
X0314181Y0069897D02*
X0264959Y0069897D01*
X0263960Y0070896D02*
X0313183Y0070896D01*
X0312184Y0071894D02*
X0262962Y0071894D01*
X0261963Y0072893D02*
X0311186Y0072893D01*
X0310187Y0073891D02*
X0260965Y0073891D01*
X0259966Y0074890D02*
X0309189Y0074890D01*
X0308190Y0075888D02*
X0259798Y0075888D01*
X0259101Y0076887D02*
X0307192Y0076887D01*
X0306193Y0077885D02*
X0185809Y0077885D01*
X0185809Y0076887D02*
X0256094Y0076887D01*
X0255398Y0075888D02*
X0185809Y0075888D01*
X0185809Y0074890D02*
X0255398Y0074890D01*
X0255874Y0073891D02*
X0186189Y0073891D01*
X0186189Y0072893D02*
X0258004Y0072893D01*
X0235762Y0064905D02*
X0187257Y0064905D01*
X0181832Y0062908D02*
X0152731Y0062908D01*
X0152031Y0063608D02*
X0152031Y0064739D01*
X0150742Y0066028D01*
X0148920Y0066028D01*
X0147631Y0064739D01*
X0147631Y0062917D01*
X0148920Y0061628D01*
X0150051Y0061628D01*
X0156246Y0055433D01*
X0207521Y0055433D01*
X0207521Y0053621D01*
X0208321Y0052821D01*
X0208321Y0043699D01*
X0209085Y0042935D01*
X0209085Y0041803D01*
X0210374Y0040515D01*
X0212197Y0040515D01*
X0213485Y0041803D01*
X0213485Y0043626D01*
X0212197Y0044915D01*
X0211121Y0044915D01*
X0211121Y0052821D01*
X0211921Y0053621D01*
X0211921Y0055433D01*
X0226328Y0055433D01*
X0227547Y0054213D01*
X0229370Y0054213D01*
X0230659Y0055502D01*
X0230659Y0057325D01*
X0229370Y0058613D01*
X0227547Y0058613D01*
X0227167Y0058233D01*
X0157406Y0058233D01*
X0152031Y0063608D01*
X0152031Y0063906D02*
X0180833Y0063906D01*
X0179835Y0064905D02*
X0151866Y0064905D01*
X0150867Y0065903D02*
X0178836Y0065903D01*
X0177838Y0066902D02*
X0003000Y0066902D01*
X0003000Y0067900D02*
X0176839Y0067900D01*
X0175841Y0068899D02*
X0003000Y0068899D01*
X0003000Y0069897D02*
X0174842Y0069897D01*
X0173844Y0070896D02*
X0003000Y0070896D01*
X0003000Y0071894D02*
X0172845Y0071894D01*
X0171847Y0072893D02*
X0003000Y0072893D01*
X0003000Y0073891D02*
X0170848Y0073891D01*
X0169850Y0074890D02*
X0003000Y0074890D01*
X0003000Y0075888D02*
X0168851Y0075888D01*
X0167853Y0076887D02*
X0003000Y0076887D01*
X0003000Y0077885D02*
X0166854Y0077885D01*
X0165855Y0078884D02*
X0003000Y0078884D01*
X0003000Y0079882D02*
X0164857Y0079882D01*
X0163858Y0080881D02*
X0003000Y0080881D01*
X0003000Y0081879D02*
X0162860Y0081879D01*
X0161861Y0082878D02*
X0003000Y0082878D01*
X0003000Y0083876D02*
X0160863Y0083876D01*
X0159864Y0084875D02*
X0003000Y0084875D01*
X0003000Y0085873D02*
X0158866Y0085873D01*
X0157867Y0086872D02*
X0003000Y0086872D01*
X0003000Y0087870D02*
X0156869Y0087870D01*
X0155870Y0088869D02*
X0003000Y0088869D01*
X0003000Y0089868D02*
X0154872Y0089868D01*
X0153873Y0090866D02*
X0003000Y0090866D01*
X0003000Y0091865D02*
X0152875Y0091865D01*
X0151876Y0092863D02*
X0003000Y0092863D01*
X0003000Y0093862D02*
X0150878Y0093862D01*
X0149879Y0094860D02*
X0003000Y0094860D01*
X0003000Y0095859D02*
X0148881Y0095859D01*
X0147882Y0096857D02*
X0003000Y0096857D01*
X0003000Y0097856D02*
X0146884Y0097856D01*
X0145885Y0098854D02*
X0003000Y0098854D01*
X0003000Y0099853D02*
X0143755Y0099853D01*
X0142960Y0100851D02*
X0003000Y0100851D01*
X0003000Y0101850D02*
X0142960Y0101850D01*
X0143338Y0102848D02*
X0003000Y0102848D01*
X0003000Y0065903D02*
X0148795Y0065903D01*
X0147797Y0064905D02*
X0003000Y0064905D01*
X0003000Y0063906D02*
X0147631Y0063906D01*
X0147640Y0062908D02*
X0003000Y0062908D01*
X0003000Y0061909D02*
X0148639Y0061909D01*
X0150768Y0060911D02*
X0003000Y0060911D01*
X0003000Y0059912D02*
X0151767Y0059912D01*
X0152765Y0058914D02*
X0003000Y0058914D01*
X0003000Y0057915D02*
X0153764Y0057915D01*
X0154763Y0056917D02*
X0003000Y0056917D01*
X0003000Y0055918D02*
X0155761Y0055918D01*
X0156725Y0058914D02*
X0234769Y0058914D01*
X0234799Y0057915D02*
X0230068Y0057915D01*
X0230659Y0056917D02*
X0235634Y0056917D01*
X0238363Y0056917D02*
X0323203Y0056917D01*
X0324202Y0055918D02*
X0230659Y0055918D01*
X0230076Y0054920D02*
X0325200Y0054920D01*
X0326199Y0053921D02*
X0211921Y0053921D01*
X0211921Y0054920D02*
X0226841Y0054920D01*
X0211223Y0052923D02*
X0327198Y0052923D01*
X0328196Y0051924D02*
X0211121Y0051924D01*
X0211121Y0050926D02*
X0329195Y0050926D01*
X0330193Y0049927D02*
X0211121Y0049927D01*
X0211121Y0048929D02*
X0331192Y0048929D01*
X0332190Y0047930D02*
X0211121Y0047930D01*
X0211121Y0046932D02*
X0441548Y0046932D01*
X0441500Y0046816D02*
X0441500Y0045184D01*
X0442124Y0043678D01*
X0443278Y0042524D01*
X0444784Y0041900D01*
X0452416Y0041900D01*
X0453922Y0042524D01*
X0455076Y0043678D01*
X0455700Y0045184D01*
X0455700Y0046816D01*
X0455076Y0048322D01*
X0453922Y0049476D01*
X0452416Y0050100D01*
X0444784Y0050100D01*
X0443278Y0049476D01*
X0442124Y0048322D01*
X0441500Y0046816D01*
X0441500Y0045933D02*
X0211121Y0045933D01*
X0211121Y0044934D02*
X0398798Y0044934D01*
X0398275Y0044411D02*
X0399564Y0045700D01*
X0401386Y0045700D01*
X0401986Y0045100D01*
X0404589Y0045100D01*
X0405189Y0045700D01*
X0407011Y0045700D01*
X0408300Y0044411D01*
X0408300Y0042589D01*
X0407011Y0041300D01*
X0405189Y0041300D01*
X0404589Y0041900D01*
X0401986Y0041900D01*
X0401386Y0041300D01*
X0399564Y0041300D01*
X0398275Y0042589D01*
X0398275Y0044411D01*
X0398275Y0043936D02*
X0213175Y0043936D01*
X0213485Y0042937D02*
X0398275Y0042937D01*
X0398925Y0041939D02*
X0213485Y0041939D01*
X0212623Y0040940D02*
X0474200Y0040940D01*
X0474200Y0039942D02*
X0452797Y0039942D01*
X0452416Y0040100D02*
X0453922Y0039476D01*
X0455076Y0038322D01*
X0455700Y0036816D01*
X0455700Y0035184D01*
X0455076Y0033678D01*
X0453922Y0032524D01*
X0452416Y0031900D01*
X0444784Y0031900D01*
X0443278Y0032524D01*
X0442124Y0033678D01*
X0441500Y0035184D01*
X0441500Y0036816D01*
X0442124Y0038322D01*
X0443278Y0039476D01*
X0444784Y0040100D01*
X0452416Y0040100D01*
X0452510Y0041939D02*
X0474200Y0041939D01*
X0474200Y0042937D02*
X0454336Y0042937D01*
X0455183Y0043936D02*
X0474200Y0043936D01*
X0474200Y0044934D02*
X0455596Y0044934D01*
X0455700Y0045933D02*
X0474200Y0045933D01*
X0474200Y0046932D02*
X0455652Y0046932D01*
X0455238Y0047930D02*
X0474200Y0047930D01*
X0474200Y0048929D02*
X0454470Y0048929D01*
X0452833Y0049927D02*
X0474200Y0049927D01*
X0474200Y0050926D02*
X0375505Y0050926D01*
X0374507Y0049927D02*
X0444367Y0049927D01*
X0442730Y0048929D02*
X0373508Y0048929D01*
X0372510Y0047930D02*
X0441962Y0047930D01*
X0441604Y0044934D02*
X0407777Y0044934D01*
X0408300Y0043936D02*
X0442017Y0043936D01*
X0442864Y0042937D02*
X0408300Y0042937D01*
X0407650Y0041939D02*
X0444690Y0041939D01*
X0444403Y0039942D02*
X0003000Y0039942D01*
X0003000Y0040940D02*
X0209948Y0040940D01*
X0209085Y0041939D02*
X0003000Y0041939D01*
X0003000Y0042937D02*
X0209083Y0042937D01*
X0208321Y0043936D02*
X0003000Y0043936D01*
X0003000Y0044934D02*
X0208321Y0044934D01*
X0208321Y0045933D02*
X0003000Y0045933D01*
X0003000Y0046932D02*
X0208321Y0046932D01*
X0208321Y0047930D02*
X0003000Y0047930D01*
X0003000Y0048929D02*
X0208321Y0048929D01*
X0208321Y0049927D02*
X0003000Y0049927D01*
X0003000Y0050926D02*
X0208321Y0050926D01*
X0208321Y0051924D02*
X0003000Y0051924D01*
X0003000Y0052923D02*
X0208220Y0052923D01*
X0207521Y0053921D02*
X0003000Y0053921D01*
X0003000Y0054920D02*
X0207521Y0054920D01*
X0184827Y0059912D02*
X0155727Y0059912D01*
X0154728Y0060911D02*
X0183829Y0060911D01*
X0182830Y0061909D02*
X0153730Y0061909D01*
X0179800Y0068899D02*
X0181897Y0068899D01*
X0180946Y0067900D02*
X0180799Y0067900D01*
X0185809Y0078884D02*
X0305195Y0078884D01*
X0304196Y0079882D02*
X0213681Y0079882D01*
X0214134Y0080336D02*
X0214134Y0082158D01*
X0212846Y0083447D01*
X0211714Y0083447D01*
X0196327Y0098834D01*
X0185305Y0098834D01*
X0184505Y0099634D01*
X0182682Y0099634D01*
X0181394Y0098345D01*
X0181394Y0096523D01*
X0182682Y0095234D01*
X0184505Y0095234D01*
X0185305Y0096034D01*
X0195167Y0096034D01*
X0209734Y0081467D01*
X0209734Y0080336D01*
X0211023Y0079047D01*
X0212846Y0079047D01*
X0214134Y0080336D01*
X0214134Y0080881D02*
X0303198Y0080881D01*
X0302199Y0081879D02*
X0214134Y0081879D01*
X0213414Y0082878D02*
X0301201Y0082878D01*
X0300202Y0083876D02*
X0211285Y0083876D01*
X0210286Y0084875D02*
X0299204Y0084875D01*
X0298205Y0085873D02*
X0209288Y0085873D01*
X0208289Y0086872D02*
X0297207Y0086872D01*
X0296208Y0087870D02*
X0207291Y0087870D01*
X0206292Y0088869D02*
X0295210Y0088869D01*
X0294211Y0089868D02*
X0205293Y0089868D01*
X0204295Y0090866D02*
X0293213Y0090866D01*
X0292214Y0091865D02*
X0203296Y0091865D01*
X0202298Y0092863D02*
X0291216Y0092863D01*
X0290217Y0093862D02*
X0201299Y0093862D01*
X0200301Y0094860D02*
X0289219Y0094860D01*
X0288220Y0095859D02*
X0199302Y0095859D01*
X0198304Y0096857D02*
X0287222Y0096857D01*
X0286223Y0097856D02*
X0197305Y0097856D01*
X0195343Y0095859D02*
X0185130Y0095859D01*
X0182058Y0095859D02*
X0172327Y0095859D01*
X0171328Y0096857D02*
X0181394Y0096857D01*
X0181394Y0097856D02*
X0170330Y0097856D01*
X0169331Y0098854D02*
X0181903Y0098854D01*
X0185285Y0098854D02*
X0286200Y0098854D01*
X0286200Y0099853D02*
X0168333Y0099853D01*
X0167334Y0100851D02*
X0286200Y0100851D01*
X0285704Y0101850D02*
X0166336Y0101850D01*
X0165337Y0102848D02*
X0285400Y0102848D01*
X0285400Y0103847D02*
X0164339Y0103847D01*
X0163340Y0104845D02*
X0286269Y0104845D01*
X0288931Y0104845D02*
X0290287Y0104845D01*
X0289800Y0103847D02*
X0291285Y0103847D01*
X0292284Y0102848D02*
X0289800Y0102848D01*
X0289496Y0101850D02*
X0293282Y0101850D01*
X0294281Y0100851D02*
X0289000Y0100851D01*
X0289000Y0099853D02*
X0295279Y0099853D01*
X0296278Y0098854D02*
X0289184Y0098854D01*
X0290183Y0097856D02*
X0297276Y0097856D01*
X0298275Y0096857D02*
X0291181Y0096857D01*
X0292180Y0095859D02*
X0299273Y0095859D01*
X0300272Y0094860D02*
X0293178Y0094860D01*
X0294177Y0093862D02*
X0301270Y0093862D01*
X0302269Y0092863D02*
X0295176Y0092863D01*
X0296174Y0091865D02*
X0303267Y0091865D01*
X0304266Y0090866D02*
X0297173Y0090866D01*
X0298171Y0089868D02*
X0305264Y0089868D01*
X0306263Y0088869D02*
X0299170Y0088869D01*
X0300168Y0087870D02*
X0307261Y0087870D01*
X0308260Y0086872D02*
X0301167Y0086872D01*
X0302165Y0085873D02*
X0309258Y0085873D01*
X0310257Y0084875D02*
X0303164Y0084875D01*
X0304162Y0083876D02*
X0311255Y0083876D01*
X0312254Y0082878D02*
X0305161Y0082878D01*
X0306159Y0081879D02*
X0313252Y0081879D01*
X0314251Y0080881D02*
X0307158Y0080881D01*
X0308156Y0079882D02*
X0315250Y0079882D01*
X0316248Y0078884D02*
X0309155Y0078884D01*
X0310153Y0077885D02*
X0317247Y0077885D01*
X0318211Y0080881D02*
X0474200Y0080881D01*
X0474200Y0081879D02*
X0317212Y0081879D01*
X0316214Y0082878D02*
X0442924Y0082878D01*
X0443278Y0082524D02*
X0442124Y0083678D01*
X0441500Y0085184D01*
X0441500Y0086816D01*
X0442124Y0088322D01*
X0443278Y0089476D01*
X0444784Y0090100D01*
X0452416Y0090100D01*
X0453922Y0089476D01*
X0455076Y0088322D01*
X0455700Y0086816D01*
X0455700Y0085184D01*
X0455076Y0083678D01*
X0453922Y0082524D01*
X0452416Y0081900D01*
X0444784Y0081900D01*
X0443278Y0082524D01*
X0442042Y0083876D02*
X0315215Y0083876D01*
X0314217Y0084875D02*
X0441628Y0084875D01*
X0441500Y0085873D02*
X0313218Y0085873D01*
X0312220Y0086872D02*
X0441523Y0086872D01*
X0441937Y0087870D02*
X0311221Y0087870D01*
X0310223Y0088869D02*
X0442671Y0088869D01*
X0444223Y0089868D02*
X0309224Y0089868D01*
X0308226Y0090866D02*
X0474200Y0090866D01*
X0474200Y0089868D02*
X0452977Y0089868D01*
X0454529Y0088869D02*
X0474200Y0088869D01*
X0474200Y0087870D02*
X0455263Y0087870D01*
X0455677Y0086872D02*
X0474200Y0086872D01*
X0474200Y0085873D02*
X0455700Y0085873D01*
X0455572Y0084875D02*
X0474200Y0084875D01*
X0474200Y0083876D02*
X0455158Y0083876D01*
X0454276Y0082878D02*
X0474200Y0082878D01*
X0474200Y0079882D02*
X0452941Y0079882D01*
X0452416Y0080100D02*
X0453922Y0079476D01*
X0455076Y0078322D01*
X0455700Y0076816D01*
X0455700Y0075184D01*
X0455076Y0073678D01*
X0453922Y0072524D01*
X0452416Y0071900D01*
X0444784Y0071900D01*
X0443278Y0072524D01*
X0442124Y0073678D01*
X0441500Y0075184D01*
X0441500Y0076816D01*
X0442124Y0078322D01*
X0443278Y0079476D01*
X0444784Y0080100D01*
X0452416Y0080100D01*
X0454514Y0078884D02*
X0474200Y0078884D01*
X0474200Y0077885D02*
X0455257Y0077885D01*
X0455670Y0076887D02*
X0474200Y0076887D01*
X0474200Y0075888D02*
X0455700Y0075888D01*
X0455578Y0074890D02*
X0474200Y0074890D01*
X0474200Y0073891D02*
X0455164Y0073891D01*
X0454291Y0072893D02*
X0474200Y0072893D01*
X0474200Y0071894D02*
X0394100Y0071894D01*
X0394100Y0070896D02*
X0474200Y0070896D01*
X0474200Y0069897D02*
X0452905Y0069897D01*
X0452416Y0070100D02*
X0453922Y0069476D01*
X0455076Y0068322D01*
X0455700Y0066816D01*
X0455700Y0065184D01*
X0455076Y0063678D01*
X0453922Y0062524D01*
X0452416Y0061900D01*
X0444784Y0061900D01*
X0443278Y0062524D01*
X0442124Y0063678D01*
X0441500Y0065184D01*
X0441500Y0066816D01*
X0442124Y0068322D01*
X0443278Y0069476D01*
X0444784Y0070100D01*
X0452416Y0070100D01*
X0454499Y0068899D02*
X0474200Y0068899D01*
X0474200Y0067900D02*
X0455251Y0067900D01*
X0455664Y0066902D02*
X0474200Y0066902D01*
X0474200Y0065903D02*
X0455700Y0065903D01*
X0455584Y0064905D02*
X0474200Y0064905D01*
X0474200Y0063906D02*
X0455171Y0063906D01*
X0454306Y0062908D02*
X0474200Y0062908D01*
X0474200Y0061909D02*
X0452438Y0061909D01*
X0452416Y0060100D02*
X0444784Y0060100D01*
X0443278Y0059476D01*
X0442124Y0058322D01*
X0441500Y0056816D01*
X0441500Y0055184D01*
X0442124Y0053678D01*
X0443278Y0052524D01*
X0444784Y0051900D01*
X0452416Y0051900D01*
X0453922Y0052524D01*
X0455076Y0053678D01*
X0455700Y0055184D01*
X0455700Y0056816D01*
X0455076Y0058322D01*
X0453922Y0059476D01*
X0452416Y0060100D01*
X0452869Y0059912D02*
X0474200Y0059912D01*
X0474200Y0058914D02*
X0454485Y0058914D01*
X0455245Y0057915D02*
X0474200Y0057915D01*
X0474200Y0056917D02*
X0455658Y0056917D01*
X0455700Y0055918D02*
X0474200Y0055918D01*
X0474200Y0054920D02*
X0455590Y0054920D01*
X0455177Y0053921D02*
X0474200Y0053921D01*
X0474200Y0052923D02*
X0454321Y0052923D01*
X0452474Y0051924D02*
X0474200Y0051924D01*
X0474200Y0060911D02*
X0385491Y0060911D01*
X0386489Y0061909D02*
X0444762Y0061909D01*
X0444331Y0059912D02*
X0384492Y0059912D01*
X0383494Y0058914D02*
X0442715Y0058914D01*
X0441955Y0057915D02*
X0382495Y0057915D01*
X0381497Y0056917D02*
X0441542Y0056917D01*
X0441500Y0055918D02*
X0380498Y0055918D01*
X0379500Y0054920D02*
X0441610Y0054920D01*
X0442023Y0053921D02*
X0378501Y0053921D01*
X0377502Y0052923D02*
X0442879Y0052923D01*
X0444726Y0051924D02*
X0376504Y0051924D01*
X0374541Y0053921D02*
X0371202Y0053921D01*
X0371202Y0053173D02*
X0369913Y0051884D01*
X0368091Y0051884D01*
X0366802Y0053173D01*
X0366802Y0054021D01*
X0366022Y0054801D01*
X0337599Y0054801D01*
X0336999Y0054201D01*
X0335177Y0054201D01*
X0333888Y0055490D01*
X0333888Y0057312D01*
X0335177Y0058601D01*
X0336999Y0058601D01*
X0337599Y0058001D01*
X0367348Y0058001D01*
X0369065Y0056284D01*
X0369913Y0056284D01*
X0371202Y0054995D01*
X0371202Y0053173D01*
X0370952Y0052923D02*
X0373543Y0052923D01*
X0372544Y0051924D02*
X0369953Y0051924D01*
X0371546Y0050926D02*
X0333154Y0050926D01*
X0332156Y0051924D02*
X0368050Y0051924D01*
X0367052Y0052923D02*
X0331157Y0052923D01*
X0330159Y0053921D02*
X0366802Y0053921D01*
X0369002Y0054084D02*
X0366685Y0056401D01*
X0336088Y0056401D01*
X0334491Y0057915D02*
X0326165Y0057915D01*
X0327163Y0056917D02*
X0333888Y0056917D01*
X0333888Y0055918D02*
X0328162Y0055918D01*
X0329160Y0054920D02*
X0334458Y0054920D01*
X0325166Y0058914D02*
X0379534Y0058914D01*
X0380532Y0059912D02*
X0367935Y0059912D01*
X0368933Y0060911D02*
X0381531Y0060911D01*
X0382529Y0061909D02*
X0369932Y0061909D01*
X0370931Y0062908D02*
X0383528Y0062908D01*
X0384526Y0063906D02*
X0371929Y0063906D01*
X0372928Y0064905D02*
X0385525Y0064905D01*
X0386523Y0065903D02*
X0373926Y0065903D01*
X0374925Y0066902D02*
X0387522Y0066902D01*
X0388520Y0067900D02*
X0375923Y0067900D01*
X0376922Y0068899D02*
X0389519Y0068899D01*
X0390517Y0069897D02*
X0377920Y0069897D01*
X0378919Y0070896D02*
X0391300Y0070896D01*
X0391300Y0071894D02*
X0379917Y0071894D01*
X0382047Y0072893D02*
X0391300Y0072893D01*
X0391300Y0073891D02*
X0382510Y0073891D01*
X0382510Y0074890D02*
X0391300Y0074890D01*
X0390950Y0075888D02*
X0381800Y0075888D01*
X0378820Y0075888D02*
X0356221Y0075888D01*
X0357219Y0074890D02*
X0378110Y0074890D01*
X0377954Y0073891D02*
X0358218Y0073891D01*
X0359216Y0072893D02*
X0376956Y0072893D01*
X0375957Y0071894D02*
X0360215Y0071894D01*
X0361213Y0070896D02*
X0374959Y0070896D01*
X0373960Y0069897D02*
X0362212Y0069897D01*
X0364342Y0068899D02*
X0372962Y0068899D01*
X0371963Y0067900D02*
X0364837Y0067900D01*
X0364837Y0066902D02*
X0370965Y0066902D01*
X0369966Y0065903D02*
X0364159Y0065903D01*
X0361115Y0065903D02*
X0358848Y0065903D01*
X0359847Y0066902D02*
X0360437Y0066902D01*
X0360249Y0067900D02*
X0359896Y0067900D01*
X0356620Y0069897D02*
X0318141Y0069897D01*
X0319140Y0068899D02*
X0323329Y0068899D01*
X0322693Y0067900D02*
X0320138Y0067900D01*
X0321137Y0066902D02*
X0322693Y0066902D01*
X0323229Y0065903D02*
X0322135Y0065903D01*
X0324265Y0064905D02*
X0368968Y0064905D01*
X0367969Y0063906D02*
X0324561Y0063906D01*
X0324561Y0062908D02*
X0366971Y0062908D01*
X0356544Y0065903D02*
X0326556Y0065903D01*
X0326456Y0068899D02*
X0355621Y0068899D01*
X0357253Y0070896D02*
X0317143Y0070896D01*
X0316144Y0071894D02*
X0356255Y0071894D01*
X0355256Y0072893D02*
X0315146Y0072893D01*
X0314147Y0073891D02*
X0354258Y0073891D01*
X0353259Y0074890D02*
X0313149Y0074890D01*
X0312150Y0075888D02*
X0352261Y0075888D01*
X0351262Y0076887D02*
X0311152Y0076887D01*
X0318176Y0065903D02*
X0299535Y0065903D01*
X0299535Y0064905D02*
X0319174Y0064905D01*
X0320161Y0063906D02*
X0299152Y0063906D01*
X0320161Y0062908D02*
X0239805Y0062908D01*
X0210187Y0079882D02*
X0185809Y0079882D01*
X0184309Y0083876D02*
X0200817Y0083876D01*
X0201815Y0084875D02*
X0183310Y0084875D01*
X0182312Y0085873D02*
X0205328Y0085873D01*
X0206326Y0084875D02*
X0203753Y0084875D01*
X0204752Y0083876D02*
X0207325Y0083876D01*
X0208323Y0082878D02*
X0204984Y0082878D01*
X0204984Y0081879D02*
X0209322Y0081879D01*
X0209734Y0080881D02*
X0204044Y0080881D01*
X0204329Y0086872D02*
X0181313Y0086872D01*
X0180315Y0087870D02*
X0203331Y0087870D01*
X0202332Y0088869D02*
X0179316Y0088869D01*
X0178318Y0089868D02*
X0201334Y0089868D01*
X0200335Y0090866D02*
X0177319Y0090866D01*
X0176321Y0091865D02*
X0199337Y0091865D01*
X0198338Y0092863D02*
X0175322Y0092863D01*
X0174324Y0093862D02*
X0197340Y0093862D01*
X0196341Y0094860D02*
X0173325Y0094860D01*
X0162342Y0105844D02*
X0289288Y0105844D01*
X0288290Y0106842D02*
X0161343Y0106842D01*
X0161311Y0107841D02*
X0287291Y0107841D01*
X0286293Y0108839D02*
X0161311Y0108839D01*
X0161311Y0109838D02*
X0166139Y0109838D01*
X0165629Y0110836D02*
X0161599Y0110836D01*
X0162111Y0111835D02*
X0165629Y0111835D01*
X0166292Y0112833D02*
X0162111Y0112833D01*
X0161451Y0113832D02*
X0442060Y0113832D01*
X0442968Y0112833D02*
X0169366Y0112833D01*
X0169519Y0109838D02*
X0285294Y0109838D01*
X0287257Y0111835D02*
X0474200Y0111835D01*
X0474200Y0112833D02*
X0454232Y0112833D01*
X0455140Y0113832D02*
X0474200Y0113832D01*
X0474200Y0114830D02*
X0455553Y0114830D01*
X0455700Y0115829D02*
X0474200Y0115829D01*
X0474200Y0116827D02*
X0455695Y0116827D01*
X0455282Y0117826D02*
X0474200Y0117826D01*
X0474200Y0118824D02*
X0454574Y0118824D01*
X0453085Y0119823D02*
X0474200Y0119823D01*
X0474200Y0110836D02*
X0288255Y0110836D01*
X0289254Y0109838D02*
X0444151Y0109838D01*
X0444784Y0110100D02*
X0443278Y0109476D01*
X0442124Y0108322D01*
X0441500Y0106816D01*
X0441500Y0105184D01*
X0442124Y0103678D01*
X0443278Y0102524D01*
X0444784Y0101900D01*
X0452416Y0101900D01*
X0453922Y0102524D01*
X0455076Y0103678D01*
X0455700Y0105184D01*
X0455700Y0106816D01*
X0455076Y0108322D01*
X0453922Y0109476D01*
X0452416Y0110100D01*
X0444784Y0110100D01*
X0442641Y0108839D02*
X0290252Y0108839D01*
X0291251Y0107841D02*
X0441925Y0107841D01*
X0441511Y0106842D02*
X0292249Y0106842D01*
X0293248Y0105844D02*
X0441500Y0105844D01*
X0441641Y0104845D02*
X0294247Y0104845D01*
X0295245Y0103847D02*
X0442054Y0103847D01*
X0442954Y0102848D02*
X0296244Y0102848D01*
X0297242Y0101850D02*
X0474200Y0101850D01*
X0474200Y0102848D02*
X0454246Y0102848D01*
X0455146Y0103847D02*
X0474200Y0103847D01*
X0474200Y0104845D02*
X0455559Y0104845D01*
X0455700Y0105844D02*
X0474200Y0105844D01*
X0474200Y0106842D02*
X0455689Y0106842D01*
X0455275Y0107841D02*
X0474200Y0107841D01*
X0474200Y0108839D02*
X0454559Y0108839D01*
X0453049Y0109838D02*
X0474200Y0109838D01*
X0474200Y0100851D02*
X0298241Y0100851D01*
X0299239Y0099853D02*
X0444187Y0099853D01*
X0444784Y0100100D02*
X0443278Y0099476D01*
X0442124Y0098322D01*
X0441500Y0096816D01*
X0441500Y0095184D01*
X0442124Y0093678D01*
X0443278Y0092524D01*
X0444784Y0091900D01*
X0452416Y0091900D01*
X0453922Y0092524D01*
X0455076Y0093678D01*
X0455700Y0095184D01*
X0455700Y0096816D01*
X0455076Y0098322D01*
X0453922Y0099476D01*
X0452416Y0100100D01*
X0444784Y0100100D01*
X0442656Y0098854D02*
X0300238Y0098854D01*
X0301236Y0097856D02*
X0441931Y0097856D01*
X0441517Y0096857D02*
X0302235Y0096857D01*
X0303233Y0095859D02*
X0441500Y0095859D01*
X0441634Y0094860D02*
X0304232Y0094860D01*
X0305230Y0093862D02*
X0442048Y0093862D01*
X0442939Y0092863D02*
X0306229Y0092863D01*
X0307227Y0091865D02*
X0474200Y0091865D01*
X0474200Y0092863D02*
X0454261Y0092863D01*
X0455152Y0093862D02*
X0474200Y0093862D01*
X0474200Y0094860D02*
X0455566Y0094860D01*
X0455700Y0095859D02*
X0474200Y0095859D01*
X0474200Y0096857D02*
X0455683Y0096857D01*
X0455269Y0097856D02*
X0474200Y0097856D01*
X0474200Y0098854D02*
X0454544Y0098854D01*
X0453013Y0099853D02*
X0474200Y0099853D01*
X0444259Y0079882D02*
X0352227Y0079882D01*
X0353225Y0078884D02*
X0391222Y0078884D01*
X0390500Y0077885D02*
X0354224Y0077885D01*
X0355222Y0076887D02*
X0390500Y0076887D01*
X0394449Y0075888D02*
X0441500Y0075888D01*
X0441530Y0076887D02*
X0394900Y0076887D01*
X0394900Y0077885D02*
X0441943Y0077885D01*
X0442686Y0078884D02*
X0394177Y0078884D01*
X0394100Y0074890D02*
X0441622Y0074890D01*
X0442036Y0073891D02*
X0394100Y0073891D01*
X0394100Y0072893D02*
X0442909Y0072893D01*
X0444295Y0069897D02*
X0394100Y0069897D01*
X0393479Y0068899D02*
X0442701Y0068899D01*
X0441949Y0067900D02*
X0392480Y0067900D01*
X0391482Y0066902D02*
X0441536Y0066902D01*
X0441500Y0065903D02*
X0390483Y0065903D01*
X0389485Y0064905D02*
X0441616Y0064905D01*
X0442029Y0063906D02*
X0388486Y0063906D01*
X0387488Y0062908D02*
X0442894Y0062908D01*
X0406100Y0043500D02*
X0400475Y0043500D01*
X0370547Y0049927D02*
X0334153Y0049927D01*
X0367433Y0057915D02*
X0378535Y0057915D01*
X0377537Y0056917D02*
X0368432Y0056917D01*
X0370279Y0055918D02*
X0376538Y0055918D01*
X0375540Y0054920D02*
X0371202Y0054920D01*
X0441554Y0036946D02*
X0003000Y0036946D01*
X0003000Y0035948D02*
X0441500Y0035948D01*
X0441597Y0034949D02*
X0003000Y0034949D01*
X0003000Y0033951D02*
X0442011Y0033951D01*
X0442849Y0032952D02*
X0003000Y0032952D01*
X0003000Y0031954D02*
X0444654Y0031954D01*
X0444784Y0030100D02*
X0443278Y0029476D01*
X0442124Y0028322D01*
X0441500Y0026816D01*
X0441500Y0025184D01*
X0442124Y0023678D01*
X0443278Y0022524D01*
X0444784Y0021900D01*
X0452416Y0021900D01*
X0453922Y0022524D01*
X0455076Y0023678D01*
X0455700Y0025184D01*
X0455700Y0026816D01*
X0455076Y0028322D01*
X0453922Y0029476D01*
X0452416Y0030100D01*
X0444784Y0030100D01*
X0444439Y0029957D02*
X0003000Y0029957D01*
X0003000Y0030955D02*
X0474200Y0030955D01*
X0474200Y0029957D02*
X0452761Y0029957D01*
X0454440Y0028958D02*
X0474200Y0028958D01*
X0474200Y0027960D02*
X0455226Y0027960D01*
X0455640Y0026961D02*
X0474200Y0026961D01*
X0474200Y0025963D02*
X0455700Y0025963D01*
X0455609Y0024964D02*
X0474200Y0024964D01*
X0474200Y0023966D02*
X0455195Y0023966D01*
X0454366Y0022967D02*
X0474200Y0022967D01*
X0474200Y0021969D02*
X0452581Y0021969D01*
X0452654Y0020389D02*
X0451954Y0020500D01*
X0449100Y0020500D01*
X0449100Y0016500D01*
X0448100Y0016500D01*
X0448100Y0020500D01*
X0445246Y0020500D01*
X0444546Y0020389D01*
X0443873Y0020170D01*
X0443241Y0019849D01*
X0442668Y0019432D01*
X0442168Y0018932D01*
X0441751Y0018359D01*
X0441430Y0017727D01*
X0441211Y0017054D01*
X0441123Y0016500D01*
X0448100Y0016500D01*
X0448100Y0015500D01*
X0449100Y0015500D01*
X0449100Y0016500D01*
X0456077Y0016500D01*
X0455989Y0017054D01*
X0455770Y0017727D01*
X0455449Y0018359D01*
X0455032Y0018932D01*
X0454532Y0019432D01*
X0453959Y0019849D01*
X0453327Y0020170D01*
X0452654Y0020389D01*
X0453717Y0019972D02*
X0474200Y0019972D01*
X0474200Y0020970D02*
X0003000Y0020970D01*
X0003000Y0019972D02*
X0443483Y0019972D01*
X0442209Y0018973D02*
X0003000Y0018973D01*
X0003000Y0017975D02*
X0441556Y0017975D01*
X0441199Y0016976D02*
X0003000Y0016976D01*
X0003000Y0015978D02*
X0448100Y0015978D01*
X0448100Y0015500D02*
X0441123Y0015500D01*
X0441211Y0014946D01*
X0441430Y0014273D01*
X0441751Y0013641D01*
X0442168Y0013068D01*
X0442668Y0012568D01*
X0443241Y0012151D01*
X0443873Y0011830D01*
X0444546Y0011611D01*
X0445246Y0011500D01*
X0448100Y0011500D01*
X0448100Y0015500D01*
X0448100Y0014979D02*
X0449100Y0014979D01*
X0449100Y0015500D02*
X0449100Y0011500D01*
X0451954Y0011500D01*
X0452654Y0011611D01*
X0453327Y0011830D01*
X0453959Y0012151D01*
X0454532Y0012568D01*
X0455032Y0013068D01*
X0455449Y0013641D01*
X0455770Y0014273D01*
X0455989Y0014946D01*
X0456077Y0015500D01*
X0449100Y0015500D01*
X0449100Y0015978D02*
X0474200Y0015978D01*
X0474200Y0016976D02*
X0456001Y0016976D01*
X0455644Y0017975D02*
X0474200Y0017975D01*
X0474200Y0018973D02*
X0454991Y0018973D01*
X0455994Y0014979D02*
X0474200Y0014979D01*
X0474200Y0013981D02*
X0455622Y0013981D01*
X0454946Y0012982D02*
X0474200Y0012982D01*
X0474200Y0011984D02*
X0453630Y0011984D01*
X0449100Y0011984D02*
X0448100Y0011984D01*
X0448100Y0012982D02*
X0449100Y0012982D01*
X0449100Y0013981D02*
X0448100Y0013981D01*
X0443570Y0011984D02*
X0003000Y0011984D01*
X0003000Y0012982D02*
X0442254Y0012982D01*
X0441578Y0013981D02*
X0003000Y0013981D01*
X0003000Y0014979D02*
X0441206Y0014979D01*
X0448100Y0016976D02*
X0449100Y0016976D01*
X0449100Y0017975D02*
X0448100Y0017975D01*
X0448100Y0018973D02*
X0449100Y0018973D01*
X0449100Y0019972D02*
X0448100Y0019972D01*
X0444618Y0021969D02*
X0003000Y0021969D01*
X0003000Y0022967D02*
X0442834Y0022967D01*
X0442005Y0023966D02*
X0003000Y0023966D01*
X0003000Y0024964D02*
X0441591Y0024964D01*
X0441500Y0025963D02*
X0003000Y0025963D01*
X0003000Y0026961D02*
X0441560Y0026961D01*
X0441974Y0027960D02*
X0003000Y0027960D01*
X0003000Y0028958D02*
X0442760Y0028958D01*
X0452546Y0031954D02*
X0474200Y0031954D01*
X0474200Y0032952D02*
X0454351Y0032952D01*
X0455189Y0033951D02*
X0474200Y0033951D01*
X0474200Y0034949D02*
X0455603Y0034949D01*
X0455700Y0035948D02*
X0474200Y0035948D01*
X0474200Y0036946D02*
X0455646Y0036946D01*
X0455232Y0037945D02*
X0474200Y0037945D01*
X0474200Y0038943D02*
X0454455Y0038943D01*
X0442745Y0038943D02*
X0003000Y0038943D01*
X0003000Y0037945D02*
X0441968Y0037945D01*
X0474200Y0010985D02*
X0003000Y0010985D01*
X0003000Y0009987D02*
X0474200Y0009987D01*
X0474200Y0008988D02*
X0003000Y0008988D01*
X0003000Y0007990D02*
X0474200Y0007990D01*
X0474200Y0006991D02*
X0003000Y0006991D01*
X0003000Y0005993D02*
X0474200Y0005993D01*
X0474200Y0004994D02*
X0003000Y0004994D01*
X0003000Y0003996D02*
X0474200Y0003996D01*
D12*
X0396100Y0036000D03*
X0413600Y0039750D03*
X0406100Y0043500D03*
X0400475Y0043500D03*
X0369002Y0054084D03*
X0391725Y0059750D03*
X0362637Y0067492D03*
X0357696Y0067862D03*
X0357379Y0076506D03*
X0380310Y0074267D03*
X0392700Y0077250D03*
X0391725Y0082250D03*
X0424700Y0080151D03*
X0336088Y0056401D03*
X0322361Y0063698D03*
X0324893Y0067351D03*
X0297335Y0065200D03*
X0297430Y0077747D03*
X0257598Y0075279D03*
X0237351Y0063382D03*
X0236999Y0058663D03*
X0228459Y0056413D03*
X0228970Y0051360D03*
X0209721Y0054532D03*
X0182975Y0059543D03*
X0183146Y0067036D03*
X0187820Y0069883D03*
X0183989Y0073211D03*
X0177350Y0080375D03*
X0202784Y0082733D03*
X0211934Y0081247D03*
X0183594Y0097434D03*
X0145160Y0101559D03*
X0159911Y0112260D03*
X0167829Y0111259D03*
X0226888Y0124661D03*
X0228763Y0144950D03*
X0287600Y0103065D03*
X0149831Y0063828D03*
X0174225Y0049750D03*
X0211285Y0042715D03*
X0316406Y0049792D03*
X0347724Y0017050D03*
X0103600Y0108500D03*
X0051100Y0117250D03*
X0036100Y0117250D03*
X0356100Y0152250D03*
X0366100Y0152250D03*
X0366100Y0157250D03*
X0356100Y0157250D03*
D13*
X0356100Y0152250D01*
X0366100Y0152250D02*
X0366100Y0157250D01*
X0317880Y0079231D02*
X0285853Y0111259D01*
X0167829Y0111259D01*
X0159911Y0112260D02*
X0159911Y0106294D01*
X0184409Y0081797D01*
X0201848Y0081797D01*
X0202784Y0082733D01*
X0211934Y0081247D02*
X0195747Y0097434D01*
X0183594Y0097434D01*
X0185719Y0061000D02*
X0145160Y0101559D01*
X0184409Y0081797D02*
X0184409Y0073631D01*
X0183989Y0073211D01*
X0183146Y0067036D02*
X0186800Y0063382D01*
X0237351Y0063382D01*
X0239846Y0060887D01*
X0366930Y0060887D01*
X0380310Y0074267D01*
X0392700Y0077250D02*
X0392700Y0070100D01*
X0371100Y0048500D01*
X0333600Y0048500D01*
X0323600Y0058500D01*
X0237162Y0058500D01*
X0236999Y0058663D01*
X0234662Y0061000D01*
X0223600Y0061000D01*
X0185719Y0061000D01*
X0209721Y0054532D02*
X0209721Y0044279D01*
X0211285Y0042715D01*
X0228039Y0056833D02*
X0156826Y0056833D01*
X0149831Y0063828D01*
X0228039Y0056833D02*
X0228459Y0056413D01*
X0257598Y0075279D02*
X0267676Y0065200D01*
X0297335Y0065200D01*
X0322361Y0063698D02*
X0287600Y0098459D01*
X0287600Y0103065D01*
X0317880Y0079231D02*
X0350898Y0079231D01*
X0362637Y0067492D01*
X0357696Y0067862D02*
X0357185Y0067351D01*
X0324893Y0067351D01*
M02*
