G75*
%MOIN*%
%OFA0B0*%
%FSLAX25Y25*%
%IPPOS*%
%LPD*%
%AMOC8*
5,1,8,0,0,1.08239X$1,22.5*
%
%ADD10C,0.00400*%
%ADD11C,0.01200*%
%ADD12C,0.00500*%
%ADD13C,0.01969*%
%ADD14C,0.04000*%
%ADD15C,0.02559*%
%ADD16C,0.00600*%
%ADD17C,0.03000*%
%ADD18R,0.02000X0.03000*%
%ADD19R,0.04000X0.03000*%
D10*
X0161696Y0040717D02*
X0162463Y0039950D01*
X0163998Y0039950D01*
X0164765Y0040717D01*
X0166300Y0040717D02*
X0167067Y0039950D01*
X0168602Y0039950D01*
X0169369Y0040717D01*
X0169369Y0041485D01*
X0168602Y0042252D01*
X0167835Y0042252D01*
X0168602Y0042252D02*
X0169369Y0043019D01*
X0169369Y0043787D01*
X0168602Y0044554D01*
X0167067Y0044554D01*
X0166300Y0043787D01*
X0164765Y0043787D02*
X0163998Y0044554D01*
X0162463Y0044554D01*
X0161696Y0043787D01*
X0161696Y0040717D01*
X0216696Y0041967D02*
X0217463Y0041200D01*
X0218998Y0041200D01*
X0219765Y0041967D01*
X0221300Y0043502D02*
X0224369Y0043502D01*
X0223602Y0045804D02*
X0221300Y0043502D01*
X0219765Y0045037D02*
X0218998Y0045804D01*
X0217463Y0045804D01*
X0216696Y0045037D01*
X0216696Y0041967D01*
X0223602Y0041200D02*
X0223602Y0045804D01*
X0261696Y0045037D02*
X0261696Y0041967D01*
X0262463Y0041200D01*
X0263998Y0041200D01*
X0264765Y0041967D01*
X0266300Y0041967D02*
X0267067Y0041200D01*
X0268602Y0041200D01*
X0269369Y0041967D01*
X0269369Y0043502D01*
X0268602Y0044269D01*
X0267835Y0044269D01*
X0266300Y0043502D01*
X0266300Y0045804D01*
X0269369Y0045804D01*
X0264765Y0045037D02*
X0263998Y0045804D01*
X0262463Y0045804D01*
X0261696Y0045037D01*
X0286296Y0033477D02*
X0290900Y0033477D01*
X0286296Y0030408D01*
X0290900Y0030408D01*
X0290900Y0028873D02*
X0290900Y0025804D01*
X0286296Y0025804D01*
X0286296Y0028873D01*
X0288598Y0027339D02*
X0288598Y0025804D01*
X0287063Y0024269D02*
X0286296Y0023502D01*
X0286296Y0021200D01*
X0290900Y0021200D01*
X0290900Y0023502D01*
X0290133Y0024269D01*
X0287063Y0024269D01*
X0301296Y0023502D02*
X0301296Y0021967D01*
X0302063Y0021200D01*
X0305133Y0021200D01*
X0305900Y0021967D01*
X0305900Y0023502D01*
X0305133Y0024269D01*
X0305900Y0025804D02*
X0305900Y0028873D01*
X0305900Y0030408D02*
X0301296Y0030408D01*
X0303598Y0031175D02*
X0305900Y0033477D01*
X0304365Y0030408D02*
X0301296Y0033477D01*
X0316296Y0031175D02*
X0316296Y0029641D01*
X0317063Y0028873D01*
X0320133Y0028873D01*
X0320900Y0029641D01*
X0320900Y0031175D01*
X0320133Y0031942D01*
X0317063Y0031942D02*
X0316296Y0031175D01*
X0317063Y0027339D02*
X0316296Y0026571D01*
X0316296Y0025037D01*
X0317063Y0024269D01*
X0316296Y0022735D02*
X0316296Y0021200D01*
X0316296Y0021967D02*
X0320900Y0021967D01*
X0320900Y0021200D02*
X0320900Y0022735D01*
X0320900Y0024269D02*
X0317831Y0027339D01*
X0317063Y0027339D01*
X0320900Y0027339D02*
X0320900Y0024269D01*
X0331296Y0024269D02*
X0334365Y0024269D01*
X0335900Y0022735D01*
X0334365Y0021200D01*
X0331296Y0021200D01*
X0331296Y0025804D02*
X0331296Y0028106D01*
X0332063Y0028873D01*
X0333598Y0028873D01*
X0334365Y0028106D01*
X0334365Y0025804D01*
X0334365Y0027339D02*
X0335900Y0028873D01*
X0331296Y0030408D02*
X0331296Y0033477D01*
X0331296Y0031942D02*
X0335900Y0031942D01*
X0335133Y0035012D02*
X0335900Y0035779D01*
X0335900Y0037314D01*
X0335133Y0038081D01*
X0332063Y0038081D02*
X0331296Y0037314D01*
X0331296Y0035779D01*
X0332063Y0035012D01*
X0335133Y0035012D01*
X0346296Y0035779D02*
X0347063Y0035012D01*
X0350133Y0035012D01*
X0350900Y0035779D01*
X0350900Y0037314D01*
X0350133Y0038081D01*
X0347063Y0038081D02*
X0346296Y0037314D01*
X0346296Y0035779D01*
X0346296Y0033477D02*
X0346296Y0030408D01*
X0346296Y0031942D02*
X0350900Y0031942D01*
X0350900Y0028873D02*
X0349365Y0027339D01*
X0349365Y0028106D02*
X0349365Y0025804D01*
X0350900Y0025804D02*
X0346296Y0025804D01*
X0346296Y0028106D01*
X0347063Y0028873D01*
X0348598Y0028873D01*
X0349365Y0028106D01*
X0348598Y0024269D02*
X0348598Y0021200D01*
X0350900Y0021200D02*
X0346296Y0021200D01*
X0346296Y0024269D02*
X0350900Y0024269D01*
X0361296Y0023502D02*
X0361296Y0021200D01*
X0365900Y0021200D01*
X0364365Y0021200D02*
X0364365Y0023502D01*
X0363598Y0024269D01*
X0362063Y0024269D01*
X0361296Y0023502D01*
X0361296Y0025804D02*
X0365900Y0025804D01*
X0364365Y0027339D01*
X0365900Y0028873D01*
X0361296Y0028873D01*
X0361296Y0030408D02*
X0361296Y0032710D01*
X0362063Y0033477D01*
X0363598Y0033477D01*
X0364365Y0032710D01*
X0364365Y0030408D01*
X0364365Y0031942D02*
X0365900Y0033477D01*
X0365900Y0030408D02*
X0361296Y0030408D01*
X0335900Y0025804D02*
X0331296Y0025804D01*
X0305900Y0025804D02*
X0301296Y0025804D01*
X0302063Y0024269D02*
X0301296Y0023502D01*
X0333800Y0049467D02*
X0334567Y0048700D01*
X0336102Y0048700D01*
X0336869Y0049467D01*
X0338404Y0049467D02*
X0339171Y0048700D01*
X0340706Y0048700D01*
X0341473Y0049467D01*
X0341473Y0050235D01*
X0340706Y0051002D01*
X0338404Y0051002D01*
X0338404Y0049467D01*
X0338404Y0051002D02*
X0339939Y0052537D01*
X0341473Y0053304D01*
X0336869Y0052537D02*
X0336102Y0053304D01*
X0334567Y0053304D01*
X0333800Y0052537D01*
X0333800Y0049467D01*
X0391696Y0032537D02*
X0391696Y0029467D01*
X0392463Y0028700D01*
X0393998Y0028700D01*
X0394765Y0029467D01*
X0396300Y0028700D02*
X0399369Y0031769D01*
X0399369Y0032537D01*
X0398602Y0033304D01*
X0397067Y0033304D01*
X0396300Y0032537D01*
X0394765Y0032537D02*
X0393998Y0033304D01*
X0392463Y0033304D01*
X0391696Y0032537D01*
X0396300Y0028700D02*
X0399369Y0028700D01*
X0414196Y0031967D02*
X0414963Y0031200D01*
X0416498Y0031200D01*
X0417265Y0031967D01*
X0418800Y0031200D02*
X0421869Y0031200D01*
X0420335Y0031200D02*
X0420335Y0035804D01*
X0418800Y0034269D01*
X0417265Y0035037D02*
X0416498Y0035804D01*
X0414963Y0035804D01*
X0414196Y0035037D01*
X0414196Y0031967D01*
X0419388Y0028304D02*
X0421690Y0028304D01*
X0422457Y0027537D01*
X0422457Y0024467D01*
X0421690Y0023700D01*
X0419388Y0023700D01*
X0419388Y0028304D01*
X0423992Y0026002D02*
X0423992Y0024467D01*
X0424759Y0023700D01*
X0426294Y0023700D01*
X0427061Y0024467D01*
X0427061Y0026002D01*
X0426294Y0026769D01*
X0424759Y0026769D01*
X0423992Y0026002D01*
X0428596Y0026769D02*
X0430130Y0026769D01*
X0429363Y0027537D02*
X0429363Y0024467D01*
X0430130Y0023700D01*
X0431665Y0024467D02*
X0432432Y0023700D01*
X0433967Y0023700D01*
X0434734Y0024467D01*
X0436269Y0023700D02*
X0437804Y0023700D01*
X0437036Y0023700D02*
X0437036Y0028304D01*
X0436269Y0028304D01*
X0434734Y0027537D02*
X0433967Y0028304D01*
X0432432Y0028304D01*
X0431665Y0027537D01*
X0431665Y0024467D01*
X0439338Y0023700D02*
X0439338Y0028304D01*
X0441640Y0026769D02*
X0439338Y0025235D01*
X0441640Y0023700D01*
X0440873Y0018304D02*
X0438571Y0018304D01*
X0438571Y0013700D01*
X0440873Y0013700D01*
X0441640Y0014467D01*
X0441640Y0017537D01*
X0440873Y0018304D01*
X0437036Y0018304D02*
X0437036Y0013700D01*
X0433967Y0018304D01*
X0433967Y0013700D01*
X0432432Y0014467D02*
X0432432Y0016002D01*
X0430898Y0016002D01*
X0432432Y0017537D02*
X0431665Y0018304D01*
X0430131Y0018304D01*
X0429363Y0017537D01*
X0429363Y0014467D01*
X0430131Y0013700D01*
X0431665Y0013700D01*
X0432432Y0014467D01*
X0432432Y0033700D02*
X0430898Y0035235D01*
X0431665Y0035235D02*
X0429363Y0035235D01*
X0429363Y0033700D02*
X0429363Y0038304D01*
X0431665Y0038304D01*
X0432432Y0037537D01*
X0432432Y0036002D01*
X0431665Y0035235D01*
X0433967Y0034467D02*
X0434734Y0033700D01*
X0436269Y0033700D01*
X0437036Y0034467D01*
X0437036Y0035235D01*
X0436269Y0036002D01*
X0434734Y0036002D01*
X0433967Y0036769D01*
X0433967Y0037537D01*
X0434734Y0038304D01*
X0436269Y0038304D01*
X0437036Y0037537D01*
X0438571Y0038304D02*
X0441640Y0038304D01*
X0440106Y0038304D02*
X0440106Y0033700D01*
X0442975Y0039100D02*
X0429163Y0039100D01*
X0429363Y0043700D02*
X0429363Y0048304D01*
X0431665Y0048304D01*
X0432432Y0047537D01*
X0432432Y0046002D01*
X0431665Y0045235D01*
X0429363Y0045235D01*
X0430898Y0045235D02*
X0432432Y0043700D01*
X0435502Y0043700D02*
X0435502Y0048304D01*
X0437036Y0048304D02*
X0433967Y0048304D01*
X0438571Y0047537D02*
X0438571Y0044467D01*
X0439338Y0043700D01*
X0440873Y0043700D01*
X0441640Y0044467D01*
X0441640Y0047537D02*
X0440873Y0048304D01*
X0439338Y0048304D01*
X0438571Y0047537D01*
X0427829Y0048304D02*
X0427829Y0043700D01*
X0427829Y0046002D02*
X0424759Y0046002D01*
X0424759Y0043700D02*
X0424759Y0048304D01*
X0426294Y0053700D02*
X0427829Y0055235D01*
X0427829Y0058304D01*
X0429363Y0058304D02*
X0431665Y0058304D01*
X0432432Y0057537D01*
X0432432Y0056002D01*
X0431665Y0055235D01*
X0429363Y0055235D01*
X0430898Y0055235D02*
X0432432Y0053700D01*
X0429363Y0053700D02*
X0429363Y0058304D01*
X0424759Y0058304D02*
X0424759Y0055235D01*
X0426294Y0053700D01*
X0435502Y0053700D02*
X0435502Y0058304D01*
X0437036Y0058304D02*
X0433967Y0058304D01*
X0438571Y0057537D02*
X0438571Y0054467D01*
X0439338Y0053700D01*
X0440873Y0053700D01*
X0441640Y0054467D01*
X0441640Y0057537D02*
X0440873Y0058304D01*
X0439338Y0058304D01*
X0438571Y0057537D01*
X0438571Y0063700D02*
X0440873Y0063700D01*
X0441640Y0064467D01*
X0441640Y0065235D01*
X0440873Y0066002D01*
X0438571Y0066002D01*
X0438571Y0063700D02*
X0438571Y0068304D01*
X0440873Y0068304D01*
X0441640Y0067537D01*
X0441640Y0066769D01*
X0440873Y0066002D01*
X0440873Y0073700D02*
X0441640Y0074467D01*
X0441640Y0076002D01*
X0440106Y0076002D01*
X0441640Y0077537D02*
X0440873Y0078304D01*
X0439338Y0078304D01*
X0438571Y0077537D01*
X0438571Y0074467D01*
X0439338Y0073700D01*
X0440873Y0073700D01*
X0441640Y0083700D02*
X0440106Y0085235D01*
X0440873Y0085235D02*
X0438571Y0085235D01*
X0438571Y0083700D02*
X0438571Y0088304D01*
X0440873Y0088304D01*
X0441640Y0087537D01*
X0441640Y0086002D01*
X0440873Y0085235D01*
X0440873Y0093700D02*
X0440873Y0098304D01*
X0440106Y0098304D02*
X0441640Y0098304D01*
X0441640Y0093700D02*
X0440106Y0093700D01*
X0440106Y0103700D02*
X0441640Y0105235D01*
X0441640Y0108304D01*
X0438571Y0108304D02*
X0438571Y0105235D01*
X0440106Y0103700D01*
X0437036Y0104467D02*
X0436269Y0103700D01*
X0434734Y0103700D01*
X0433967Y0104467D01*
X0433967Y0106002D02*
X0435502Y0106769D01*
X0436269Y0106769D01*
X0437036Y0106002D01*
X0437036Y0104467D01*
X0433967Y0106002D02*
X0433967Y0108304D01*
X0437036Y0108304D01*
X0432432Y0106002D02*
X0429363Y0106002D01*
X0430898Y0107537D02*
X0430898Y0104467D01*
X0431665Y0113700D02*
X0430131Y0113700D01*
X0429363Y0114467D01*
X0430131Y0116002D02*
X0429363Y0116769D01*
X0429363Y0117537D01*
X0430131Y0118304D01*
X0431665Y0118304D01*
X0432432Y0117537D01*
X0433967Y0117537D02*
X0433967Y0114467D01*
X0434734Y0113700D01*
X0436269Y0113700D01*
X0437036Y0114467D01*
X0438571Y0113700D02*
X0441640Y0113700D01*
X0438571Y0113700D02*
X0438571Y0118304D01*
X0437036Y0117537D02*
X0436269Y0118304D01*
X0434734Y0118304D01*
X0433967Y0117537D01*
X0431665Y0116002D02*
X0432432Y0115235D01*
X0432432Y0114467D01*
X0431665Y0113700D01*
X0431665Y0116002D02*
X0430131Y0116002D01*
X0416869Y0121200D02*
X0413800Y0121200D01*
X0415335Y0121200D02*
X0415335Y0125804D01*
X0413800Y0124269D01*
X0412265Y0125037D02*
X0412265Y0121967D01*
X0411498Y0121200D01*
X0409963Y0121200D01*
X0409196Y0121967D01*
X0409196Y0125037D01*
X0409963Y0125804D01*
X0411498Y0125804D01*
X0412265Y0125037D01*
X0410731Y0122735D02*
X0412265Y0121200D01*
X0404171Y0121967D02*
X0404171Y0125037D01*
X0401102Y0121967D01*
X0401869Y0121200D01*
X0403404Y0121200D01*
X0404171Y0121967D01*
X0401102Y0121967D02*
X0401102Y0125037D01*
X0401869Y0125804D01*
X0403404Y0125804D01*
X0404171Y0125037D01*
X0398033Y0125804D02*
X0398033Y0121200D01*
X0399567Y0121200D02*
X0396498Y0121200D01*
X0394963Y0121967D02*
X0394196Y0121200D01*
X0392661Y0121200D01*
X0391894Y0121967D01*
X0391894Y0125037D01*
X0392661Y0125804D01*
X0394196Y0125804D01*
X0394963Y0125037D01*
X0396498Y0124269D02*
X0398033Y0125804D01*
X0385904Y0125037D02*
X0385904Y0124269D01*
X0385137Y0123502D01*
X0383602Y0123502D01*
X0382835Y0124269D01*
X0382835Y0125037D01*
X0383602Y0125804D01*
X0385137Y0125804D01*
X0385904Y0125037D01*
X0385137Y0123502D02*
X0385904Y0122735D01*
X0385904Y0121967D01*
X0385137Y0121200D01*
X0383602Y0121200D01*
X0382835Y0121967D01*
X0382835Y0122735D01*
X0383602Y0123502D01*
X0381300Y0125037D02*
X0380533Y0125804D01*
X0378998Y0125804D01*
X0378231Y0125037D01*
X0378231Y0121967D01*
X0378998Y0121200D01*
X0380533Y0121200D01*
X0381300Y0121967D01*
X0376696Y0121200D02*
X0375161Y0121200D01*
X0375929Y0121200D02*
X0375929Y0125804D01*
X0376696Y0125804D02*
X0375161Y0125804D01*
X0429363Y0126769D02*
X0430131Y0126002D01*
X0431665Y0126002D01*
X0432432Y0125235D01*
X0432432Y0124467D01*
X0431665Y0123700D01*
X0430131Y0123700D01*
X0429363Y0124467D01*
X0429363Y0126769D02*
X0429363Y0127537D01*
X0430131Y0128304D01*
X0431665Y0128304D01*
X0432432Y0127537D01*
X0433967Y0128304D02*
X0436269Y0128304D01*
X0437036Y0127537D01*
X0437036Y0124467D01*
X0436269Y0123700D01*
X0433967Y0123700D01*
X0433967Y0128304D01*
X0438571Y0126769D02*
X0440106Y0128304D01*
X0441640Y0126769D01*
X0441640Y0123700D01*
X0438571Y0123700D02*
X0438571Y0126769D01*
X0438571Y0126002D02*
X0441640Y0126002D01*
X0440106Y0133700D02*
X0441640Y0135235D01*
X0441640Y0138304D01*
X0438571Y0138304D02*
X0438571Y0135235D01*
X0440106Y0133700D01*
X0437036Y0134467D02*
X0436269Y0133700D01*
X0434734Y0133700D01*
X0433967Y0134467D01*
X0433967Y0136002D02*
X0435502Y0136769D01*
X0436269Y0136769D01*
X0437036Y0136002D01*
X0437036Y0134467D01*
X0433967Y0136002D02*
X0433967Y0138304D01*
X0437036Y0138304D01*
X0432432Y0136002D02*
X0429363Y0136002D01*
X0430898Y0137537D02*
X0430898Y0134467D01*
X0431665Y0143700D02*
X0432432Y0144467D01*
X0432432Y0146002D01*
X0430898Y0146002D01*
X0432432Y0147537D02*
X0431665Y0148304D01*
X0430131Y0148304D01*
X0429363Y0147537D01*
X0429363Y0144467D01*
X0430131Y0143700D01*
X0431665Y0143700D01*
X0433967Y0143700D02*
X0433967Y0148304D01*
X0437036Y0143700D01*
X0437036Y0148304D01*
X0438571Y0148304D02*
X0440873Y0148304D01*
X0441640Y0147537D01*
X0441640Y0144467D01*
X0440873Y0143700D01*
X0438571Y0143700D01*
X0438571Y0148304D01*
X0391671Y0151200D02*
X0388602Y0151200D01*
X0391671Y0154269D01*
X0391671Y0155037D01*
X0390904Y0155804D01*
X0389369Y0155804D01*
X0388602Y0155037D01*
X0385533Y0155804D02*
X0385533Y0151200D01*
X0387067Y0151200D02*
X0383998Y0151200D01*
X0382463Y0151967D02*
X0381696Y0151200D01*
X0380161Y0151200D01*
X0379394Y0151967D01*
X0379394Y0155037D01*
X0380161Y0155804D01*
X0381696Y0155804D01*
X0382463Y0155037D01*
X0383998Y0154269D02*
X0385533Y0155804D01*
X0310900Y0134269D02*
X0310900Y0131200D01*
X0307831Y0134269D01*
X0307063Y0134269D01*
X0306296Y0133502D01*
X0306296Y0131967D01*
X0307063Y0131200D01*
X0307063Y0129665D02*
X0308598Y0129665D01*
X0309365Y0128898D01*
X0309365Y0126596D01*
X0309365Y0128131D02*
X0310900Y0129665D01*
X0307063Y0129665D02*
X0306296Y0128898D01*
X0306296Y0126596D01*
X0310900Y0126596D01*
X0295275Y0126769D02*
X0295275Y0123700D01*
X0292206Y0126769D01*
X0291438Y0126769D01*
X0290671Y0126002D01*
X0290671Y0124467D01*
X0291438Y0123700D01*
X0291438Y0122165D02*
X0290671Y0121398D01*
X0290671Y0119863D01*
X0291438Y0119096D01*
X0294508Y0119096D01*
X0295275Y0119863D01*
X0295275Y0121398D01*
X0294508Y0122165D01*
X0291438Y0122165D01*
X0293740Y0120631D02*
X0295275Y0122165D01*
X0306296Y0117735D02*
X0307831Y0116200D01*
X0308598Y0114665D02*
X0309365Y0113898D01*
X0309365Y0111596D01*
X0309365Y0113131D02*
X0310900Y0114665D01*
X0310900Y0116200D02*
X0310900Y0119269D01*
X0310900Y0117735D02*
X0306296Y0117735D01*
X0307063Y0114665D02*
X0308598Y0114665D01*
X0307063Y0114665D02*
X0306296Y0113898D01*
X0306296Y0111596D01*
X0310900Y0111596D01*
X0265900Y0111596D02*
X0261296Y0111596D01*
X0261296Y0113898D01*
X0262063Y0114665D01*
X0263598Y0114665D01*
X0264365Y0113898D01*
X0264365Y0111596D01*
X0264365Y0113131D02*
X0265900Y0114665D01*
X0263598Y0116200D02*
X0263598Y0119269D01*
X0261296Y0118502D02*
X0263598Y0116200D01*
X0265900Y0118502D02*
X0261296Y0118502D01*
X0248404Y0115804D02*
X0248404Y0115037D01*
X0245335Y0111967D01*
X0245335Y0111200D01*
X0243800Y0111967D02*
X0243033Y0111200D01*
X0241498Y0111200D01*
X0240731Y0111967D01*
X0240731Y0115037D01*
X0241498Y0115804D01*
X0243033Y0115804D01*
X0243800Y0115037D01*
X0245335Y0115804D02*
X0248404Y0115804D01*
X0239196Y0115804D02*
X0237661Y0115804D01*
X0238429Y0115804D02*
X0238429Y0111200D01*
X0239196Y0111200D02*
X0237661Y0111200D01*
X0261296Y0126596D02*
X0261296Y0128898D01*
X0262063Y0129665D01*
X0263598Y0129665D01*
X0264365Y0128898D01*
X0264365Y0126596D01*
X0264365Y0128131D02*
X0265900Y0129665D01*
X0265133Y0131200D02*
X0265900Y0131967D01*
X0265900Y0133502D01*
X0265133Y0134269D01*
X0263598Y0134269D01*
X0262831Y0133502D01*
X0262831Y0132735D01*
X0263598Y0131200D01*
X0261296Y0131200D01*
X0261296Y0134269D01*
X0261296Y0126596D02*
X0265900Y0126596D01*
X0290671Y0134863D02*
X0290671Y0136398D01*
X0291438Y0137165D01*
X0294508Y0137165D01*
X0295275Y0136398D01*
X0295275Y0134863D01*
X0294508Y0134096D01*
X0291438Y0134096D01*
X0290671Y0134863D01*
X0293740Y0135631D02*
X0295275Y0137165D01*
X0294508Y0138700D02*
X0295275Y0139467D01*
X0295275Y0141002D01*
X0294508Y0141769D01*
X0293740Y0141769D01*
X0292973Y0141002D01*
X0292973Y0140235D01*
X0292973Y0141002D02*
X0292206Y0141769D01*
X0291438Y0141769D01*
X0290671Y0141002D01*
X0290671Y0139467D01*
X0291438Y0138700D01*
X0284369Y0156200D02*
X0281300Y0156200D01*
X0282835Y0156200D02*
X0282835Y0160804D01*
X0281300Y0159269D01*
X0279765Y0159269D02*
X0279765Y0156200D01*
X0279765Y0158502D02*
X0276696Y0158502D01*
X0276696Y0159269D02*
X0276696Y0156200D01*
X0274369Y0156967D02*
X0273602Y0156200D01*
X0272067Y0156200D01*
X0271300Y0156967D01*
X0274369Y0160037D01*
X0274369Y0156967D01*
X0271300Y0156967D02*
X0271300Y0160037D01*
X0272067Y0160804D01*
X0273602Y0160804D01*
X0274369Y0160037D01*
X0276696Y0159269D02*
X0278231Y0160804D01*
X0279765Y0159269D01*
X0269765Y0159269D02*
X0269765Y0156200D01*
X0269765Y0158502D02*
X0266696Y0158502D01*
X0266696Y0159269D02*
X0266696Y0156200D01*
X0266696Y0159269D02*
X0268231Y0160804D01*
X0269765Y0159269D01*
X0254369Y0160037D02*
X0251300Y0156967D01*
X0251300Y0156200D01*
X0249765Y0156200D02*
X0248231Y0157735D01*
X0248998Y0157735D02*
X0246696Y0157735D01*
X0246696Y0156200D02*
X0246696Y0160804D01*
X0248998Y0160804D01*
X0249765Y0160037D01*
X0249765Y0158502D01*
X0248998Y0157735D01*
X0254369Y0160037D02*
X0254369Y0160804D01*
X0251300Y0160804D01*
X0241869Y0160804D02*
X0240335Y0160037D01*
X0238800Y0158502D01*
X0241102Y0158502D01*
X0241869Y0157735D01*
X0241869Y0156967D01*
X0241102Y0156200D01*
X0239567Y0156200D01*
X0238800Y0156967D01*
X0238800Y0158502D01*
X0237265Y0158502D02*
X0236498Y0157735D01*
X0234196Y0157735D01*
X0235731Y0157735D02*
X0237265Y0156200D01*
X0237265Y0158502D02*
X0237265Y0160037D01*
X0236498Y0160804D01*
X0234196Y0160804D01*
X0234196Y0156200D01*
X0227637Y0153304D02*
X0227637Y0148700D01*
X0229171Y0148700D02*
X0226102Y0148700D01*
X0224567Y0148700D02*
X0221498Y0148700D01*
X0223033Y0148700D02*
X0223033Y0153304D01*
X0221498Y0151769D01*
X0219963Y0152537D02*
X0219196Y0153304D01*
X0217661Y0153304D01*
X0216894Y0152537D01*
X0216894Y0149467D01*
X0217661Y0148700D01*
X0219196Y0148700D01*
X0219963Y0149467D01*
X0214171Y0151002D02*
X0211102Y0151002D01*
X0213404Y0153304D01*
X0213404Y0148700D01*
X0209567Y0148700D02*
X0206498Y0148700D01*
X0208033Y0148700D02*
X0208033Y0153304D01*
X0206498Y0151769D01*
X0204963Y0152537D02*
X0204196Y0153304D01*
X0202661Y0153304D01*
X0201894Y0152537D01*
X0201894Y0149467D01*
X0202661Y0148700D01*
X0204196Y0148700D01*
X0204963Y0149467D01*
X0226102Y0151769D02*
X0227637Y0153304D01*
X0081869Y0099412D02*
X0081869Y0098644D01*
X0081102Y0097877D01*
X0081869Y0097110D01*
X0081869Y0096342D01*
X0081102Y0095575D01*
X0079567Y0095575D01*
X0078800Y0096342D01*
X0077265Y0095575D02*
X0075731Y0097110D01*
X0076498Y0097110D02*
X0074196Y0097110D01*
X0074196Y0095575D02*
X0074196Y0100179D01*
X0076498Y0100179D01*
X0077265Y0099412D01*
X0077265Y0097877D01*
X0076498Y0097110D01*
X0080335Y0097877D02*
X0081102Y0097877D01*
X0081869Y0099412D02*
X0081102Y0100179D01*
X0079567Y0100179D01*
X0078800Y0099412D01*
X0069369Y0099412D02*
X0068602Y0100179D01*
X0067067Y0100179D01*
X0066300Y0099412D01*
X0066300Y0098644D01*
X0067067Y0097877D01*
X0069369Y0097877D01*
X0069369Y0096342D02*
X0069369Y0099412D01*
X0064765Y0099412D02*
X0063998Y0100179D01*
X0062463Y0100179D01*
X0061696Y0099412D01*
X0061696Y0096342D01*
X0062463Y0095575D01*
X0063998Y0095575D01*
X0064765Y0096342D01*
X0066300Y0096342D02*
X0067067Y0095575D01*
X0068602Y0095575D01*
X0069369Y0096342D01*
X0055904Y0096342D02*
X0055137Y0095575D01*
X0053602Y0095575D01*
X0052835Y0096342D01*
X0052835Y0097877D01*
X0055137Y0097877D01*
X0055904Y0097110D01*
X0055904Y0096342D01*
X0052835Y0097877D02*
X0054369Y0099412D01*
X0055904Y0100179D01*
X0051300Y0099412D02*
X0050533Y0100179D01*
X0048998Y0100179D01*
X0048231Y0099412D01*
X0048231Y0096342D01*
X0048998Y0095575D01*
X0050533Y0095575D01*
X0051300Y0096342D01*
X0046696Y0095575D02*
X0045161Y0095575D01*
X0045929Y0095575D02*
X0045929Y0100179D01*
X0046696Y0100179D02*
X0045161Y0100179D01*
X0039369Y0099412D02*
X0039369Y0098644D01*
X0038602Y0097877D01*
X0037067Y0097877D01*
X0036300Y0098644D01*
X0036300Y0099412D01*
X0037067Y0100179D01*
X0038602Y0100179D01*
X0039369Y0099412D01*
X0038602Y0097877D02*
X0039369Y0097110D01*
X0039369Y0096342D01*
X0038602Y0095575D01*
X0037067Y0095575D01*
X0036300Y0096342D01*
X0036300Y0097110D01*
X0037067Y0097877D01*
X0034765Y0099412D02*
X0033998Y0100179D01*
X0032463Y0100179D01*
X0031696Y0099412D01*
X0031696Y0096342D01*
X0032463Y0095575D01*
X0033998Y0095575D01*
X0034765Y0096342D01*
X0160161Y0085804D02*
X0161696Y0085804D01*
X0160929Y0085804D02*
X0160929Y0081200D01*
X0161696Y0081200D02*
X0160161Y0081200D01*
X0163231Y0081967D02*
X0163998Y0081200D01*
X0165533Y0081200D01*
X0166300Y0081967D01*
X0167835Y0083502D02*
X0170904Y0083502D01*
X0170137Y0085804D02*
X0167835Y0083502D01*
X0166300Y0085037D02*
X0165533Y0085804D01*
X0163998Y0085804D01*
X0163231Y0085037D01*
X0163231Y0081967D01*
X0170137Y0081200D02*
X0170137Y0085804D01*
X0215161Y0085804D02*
X0216696Y0085804D01*
X0215929Y0085804D02*
X0215929Y0081200D01*
X0216696Y0081200D02*
X0215161Y0081200D01*
X0218231Y0081967D02*
X0218998Y0081200D01*
X0220533Y0081200D01*
X0221300Y0081967D01*
X0222835Y0081967D02*
X0223602Y0081200D01*
X0225137Y0081200D01*
X0225904Y0081967D01*
X0225904Y0083502D01*
X0225137Y0084269D01*
X0224369Y0084269D01*
X0222835Y0083502D01*
X0222835Y0085804D01*
X0225904Y0085804D01*
X0221300Y0085037D02*
X0220533Y0085804D01*
X0218998Y0085804D01*
X0218231Y0085037D01*
X0218231Y0081967D01*
X0275161Y0081200D02*
X0276696Y0081200D01*
X0275929Y0081200D02*
X0275929Y0085804D01*
X0276696Y0085804D02*
X0275161Y0085804D01*
X0278231Y0085037D02*
X0278231Y0081967D01*
X0278998Y0081200D01*
X0280533Y0081200D01*
X0281300Y0081967D01*
X0282835Y0081200D02*
X0285904Y0084269D01*
X0285904Y0085037D01*
X0285137Y0085804D01*
X0283602Y0085804D01*
X0282835Y0085037D01*
X0281300Y0085037D02*
X0280533Y0085804D01*
X0278998Y0085804D01*
X0278231Y0085037D01*
X0282835Y0081200D02*
X0285904Y0081200D01*
X0335161Y0081200D02*
X0336696Y0081200D01*
X0335929Y0081200D02*
X0335929Y0085804D01*
X0336696Y0085804D02*
X0335161Y0085804D01*
X0338231Y0085037D02*
X0338231Y0081967D01*
X0338998Y0081200D01*
X0340533Y0081200D01*
X0341300Y0081967D01*
X0342835Y0081200D02*
X0345904Y0081200D01*
X0344369Y0081200D02*
X0344369Y0085804D01*
X0342835Y0084269D01*
X0341300Y0085037D02*
X0340533Y0085804D01*
X0338998Y0085804D01*
X0338231Y0085037D01*
X0402661Y0088700D02*
X0404196Y0088700D01*
X0403429Y0088700D02*
X0403429Y0093304D01*
X0404196Y0093304D02*
X0402661Y0093304D01*
X0405731Y0092537D02*
X0405731Y0089467D01*
X0406498Y0088700D01*
X0408033Y0088700D01*
X0408800Y0089467D01*
X0410335Y0089467D02*
X0411102Y0088700D01*
X0412637Y0088700D01*
X0413404Y0089467D01*
X0413404Y0090235D01*
X0412637Y0091002D01*
X0411869Y0091002D01*
X0412637Y0091002D02*
X0413404Y0091769D01*
X0413404Y0092537D01*
X0412637Y0093304D01*
X0411102Y0093304D01*
X0410335Y0092537D01*
X0408800Y0092537D02*
X0408033Y0093304D01*
X0406498Y0093304D01*
X0405731Y0092537D01*
X0046869Y0148700D02*
X0043800Y0148700D01*
X0045335Y0148700D02*
X0045335Y0153304D01*
X0043800Y0151769D01*
X0039196Y0153304D02*
X0039196Y0148700D01*
X0042265Y0148700D01*
D11*
X0021304Y0027912D02*
X0021304Y0014100D01*
X0030512Y0014100D02*
X0030512Y0027912D01*
X0039720Y0027912D01*
X0044324Y0027912D02*
X0053531Y0027912D01*
X0048928Y0027912D02*
X0048928Y0014100D01*
X0035116Y0021006D02*
X0030512Y0021006D01*
X0025908Y0027912D02*
X0016700Y0027912D01*
X0016700Y0036600D02*
X0016700Y0045808D01*
X0021304Y0045808D02*
X0023606Y0045808D01*
X0021304Y0045808D02*
X0016700Y0041204D01*
X0028210Y0038902D02*
X0030512Y0041204D01*
X0037418Y0041204D01*
X0042022Y0038902D02*
X0042022Y0043506D01*
X0044324Y0045808D01*
X0051229Y0045808D01*
X0055833Y0045808D02*
X0058135Y0045808D01*
X0058135Y0036600D01*
X0055833Y0036600D02*
X0060437Y0036600D01*
X0065041Y0038902D02*
X0067343Y0036600D01*
X0071947Y0036600D01*
X0074249Y0038902D01*
X0074249Y0043506D01*
X0071947Y0045808D01*
X0067343Y0045808D01*
X0065041Y0043506D01*
X0065041Y0038902D01*
X0051229Y0036600D02*
X0044324Y0036600D01*
X0042022Y0038902D01*
X0037418Y0036600D02*
X0030512Y0036600D01*
X0028210Y0038902D01*
X0037418Y0036600D02*
X0037418Y0043506D01*
X0035116Y0045808D01*
X0030512Y0045808D01*
X0051229Y0050412D02*
X0051229Y0036600D01*
X0081155Y0027912D02*
X0081155Y0014100D01*
X0074249Y0014100D01*
X0071947Y0016402D01*
X0071947Y0021006D01*
X0074249Y0023308D01*
X0081155Y0023308D01*
X0085759Y0023308D02*
X0088061Y0023308D01*
X0088061Y0014100D01*
X0085759Y0014100D02*
X0090363Y0014100D01*
X0094967Y0014100D02*
X0101873Y0014100D01*
X0104175Y0016402D01*
X0101873Y0018704D01*
X0097269Y0018704D01*
X0094967Y0021006D01*
X0097269Y0023308D01*
X0104175Y0023308D01*
X0108779Y0023308D02*
X0115685Y0023308D01*
X0117987Y0021006D01*
X0117987Y0016402D01*
X0115685Y0014100D01*
X0108779Y0014100D01*
X0122590Y0014100D02*
X0127194Y0014100D01*
X0124892Y0014100D02*
X0124892Y0027912D01*
X0122590Y0027912D01*
X0108779Y0023308D02*
X0108779Y0009496D01*
X0131798Y0016402D02*
X0134100Y0018704D01*
X0141006Y0018704D01*
X0141006Y0021006D02*
X0141006Y0014100D01*
X0134100Y0014100D01*
X0131798Y0016402D01*
X0138704Y0023308D02*
X0141006Y0021006D01*
X0138704Y0023308D02*
X0134100Y0023308D01*
X0145610Y0023308D02*
X0145610Y0016402D01*
X0147912Y0014100D01*
X0154818Y0014100D01*
X0154818Y0011798D02*
X0152516Y0009496D01*
X0150214Y0009496D01*
X0154818Y0011798D02*
X0154818Y0023308D01*
X0138704Y0036600D02*
X0131798Y0041204D01*
X0138704Y0045808D01*
X0131798Y0050412D02*
X0131798Y0036600D01*
X0120288Y0036600D02*
X0120288Y0045808D01*
X0120288Y0041204D02*
X0124892Y0045808D01*
X0127194Y0045808D01*
X0115685Y0050412D02*
X0111081Y0048110D01*
X0106477Y0043506D01*
X0113383Y0043506D01*
X0115685Y0041204D01*
X0115685Y0038902D01*
X0113383Y0036600D01*
X0108779Y0036600D01*
X0106477Y0038902D01*
X0106477Y0043506D01*
X0101873Y0045808D02*
X0099571Y0043506D01*
X0094967Y0043506D01*
X0092665Y0045808D01*
X0092665Y0048110D01*
X0094967Y0050412D01*
X0099571Y0050412D01*
X0101873Y0048110D01*
X0101873Y0045808D01*
X0099571Y0043506D02*
X0101873Y0041204D01*
X0101873Y0038902D01*
X0099571Y0036600D01*
X0094967Y0036600D01*
X0092665Y0038902D01*
X0092665Y0041204D01*
X0094967Y0043506D01*
X0094967Y0051996D02*
X0094967Y0065808D01*
X0101873Y0065808D01*
X0104175Y0063506D01*
X0104175Y0058902D01*
X0101873Y0056600D01*
X0094967Y0056600D01*
X0090363Y0056600D02*
X0083457Y0056600D01*
X0081155Y0058902D01*
X0081155Y0063506D01*
X0083457Y0065808D01*
X0090363Y0065808D01*
X0076551Y0065808D02*
X0067343Y0056600D01*
X0060437Y0056600D02*
X0055833Y0056600D01*
X0053531Y0058902D01*
X0053531Y0063506D01*
X0055833Y0065808D01*
X0060437Y0065808D01*
X0062739Y0063506D01*
X0062739Y0061204D01*
X0053531Y0061204D01*
X0048928Y0056600D02*
X0044324Y0056600D01*
X0046626Y0056600D02*
X0046626Y0070412D01*
X0044324Y0070412D01*
X0037418Y0065808D02*
X0039720Y0063506D01*
X0039720Y0056600D01*
X0032814Y0056600D01*
X0030512Y0058902D01*
X0032814Y0061204D01*
X0039720Y0061204D01*
X0037418Y0065808D02*
X0032814Y0065808D01*
X0025908Y0068110D02*
X0025908Y0063506D01*
X0023606Y0061204D01*
X0023606Y0065808D01*
X0019002Y0065808D01*
X0019002Y0061204D01*
X0023606Y0061204D01*
X0025908Y0058902D02*
X0023606Y0056600D01*
X0019002Y0056600D01*
X0016700Y0058902D01*
X0016700Y0068110D01*
X0019002Y0070412D01*
X0023606Y0070412D01*
X0025908Y0068110D01*
X0067343Y0065808D02*
X0076551Y0056600D01*
X0058135Y0052714D02*
X0058135Y0050412D01*
X0088061Y0030214D02*
X0088061Y0027912D01*
D12*
X0162100Y0046250D02*
X0170100Y0046250D01*
X0170100Y0053250D02*
X0162100Y0053250D01*
X0158029Y0057280D02*
X0172439Y0057280D01*
X0172439Y0079720D01*
X0174171Y0079720D01*
X0174171Y0057280D01*
X0172439Y0057280D01*
X0158029Y0057280D02*
X0158029Y0079720D01*
X0172439Y0079720D01*
X0213029Y0078441D02*
X0227261Y0078441D01*
X0227261Y0058559D01*
X0213029Y0058559D01*
X0213029Y0078441D01*
X0227261Y0078441D02*
X0229171Y0078441D01*
X0229171Y0058559D01*
X0227261Y0058559D01*
X0225100Y0054500D02*
X0217100Y0054500D01*
X0217100Y0047500D02*
X0225100Y0047500D01*
X0262100Y0047500D02*
X0270100Y0047500D01*
X0270100Y0054500D02*
X0262100Y0054500D01*
X0273029Y0057280D02*
X0287439Y0057280D01*
X0287439Y0079720D01*
X0289171Y0079720D01*
X0289171Y0057280D01*
X0287439Y0057280D01*
X0273029Y0057280D02*
X0273029Y0079720D01*
X0287439Y0079720D01*
X0333029Y0078441D02*
X0347261Y0078441D01*
X0347261Y0058559D01*
X0333029Y0058559D01*
X0333029Y0078441D01*
X0347261Y0078441D02*
X0349171Y0078441D01*
X0349171Y0058559D01*
X0347261Y0058559D01*
X0330100Y0054500D02*
X0322100Y0054500D01*
X0322100Y0047500D02*
X0330100Y0047500D01*
X0329600Y0040000D02*
X0329600Y0032000D01*
X0322600Y0032000D02*
X0322600Y0040000D01*
X0314600Y0040000D02*
X0314600Y0032000D01*
X0307600Y0032000D02*
X0307600Y0040000D01*
X0299600Y0040000D02*
X0299600Y0032000D01*
X0292600Y0032000D02*
X0292600Y0040000D01*
X0292600Y0025000D02*
X0292600Y0017000D01*
X0294850Y0019750D02*
X0297350Y0019750D01*
X0296100Y0019750D02*
X0294850Y0022250D01*
X0297350Y0022250D01*
X0296100Y0019750D01*
X0299600Y0017000D02*
X0299600Y0025000D01*
X0307600Y0025000D02*
X0307600Y0017000D01*
X0309850Y0019750D02*
X0312350Y0019750D01*
X0311100Y0019750D02*
X0309850Y0022250D01*
X0312350Y0022250D01*
X0311100Y0019750D01*
X0314600Y0017000D02*
X0314600Y0025000D01*
X0322600Y0025000D02*
X0322600Y0017000D01*
X0324850Y0019750D02*
X0327350Y0019750D01*
X0326100Y0019750D02*
X0324850Y0022250D01*
X0327350Y0022250D01*
X0326100Y0019750D01*
X0329600Y0017000D02*
X0329600Y0025000D01*
X0337600Y0025000D02*
X0337600Y0017000D01*
X0339850Y0019750D02*
X0342350Y0019750D01*
X0341100Y0019750D02*
X0339850Y0022250D01*
X0342350Y0022250D01*
X0341100Y0019750D01*
X0344600Y0017000D02*
X0344600Y0025000D01*
X0352600Y0025000D02*
X0352600Y0017000D01*
X0354850Y0019750D02*
X0357350Y0019750D01*
X0356100Y0019750D02*
X0354850Y0022250D01*
X0357350Y0022250D01*
X0356100Y0019750D01*
X0359600Y0017000D02*
X0359600Y0025000D01*
X0367600Y0025000D02*
X0367600Y0017000D01*
X0369850Y0019750D02*
X0372350Y0019750D01*
X0371100Y0019750D02*
X0369850Y0022250D01*
X0372350Y0022250D01*
X0371100Y0019750D01*
X0374600Y0017000D02*
X0374600Y0025000D01*
X0374600Y0032000D02*
X0374600Y0040000D01*
X0367600Y0040000D02*
X0367600Y0032000D01*
X0359600Y0032000D02*
X0359600Y0040000D01*
X0352600Y0040000D02*
X0352600Y0032000D01*
X0344600Y0032000D02*
X0344600Y0040000D01*
X0337600Y0040000D02*
X0337600Y0032000D01*
X0337600Y0014500D02*
X0344600Y0014500D01*
X0352600Y0014500D02*
X0359600Y0014500D01*
X0367600Y0014500D02*
X0374600Y0014500D01*
X0329600Y0014500D02*
X0322600Y0014500D01*
X0314600Y0014500D02*
X0307600Y0014500D01*
X0299600Y0014500D02*
X0292600Y0014500D01*
X0392600Y0039500D02*
X0392600Y0047500D01*
X0399600Y0047500D02*
X0399600Y0039500D01*
X0415100Y0039500D02*
X0415100Y0047500D01*
X0422100Y0047500D02*
X0422100Y0039500D01*
X0416474Y0051276D02*
X0400726Y0051276D01*
X0400726Y0085724D01*
X0416474Y0085724D01*
X0416474Y0051276D01*
X0304600Y0112000D02*
X0304600Y0120000D01*
X0297600Y0120000D02*
X0297600Y0112000D01*
X0287409Y0110916D02*
X0284791Y0110916D01*
X0284791Y0121084D01*
X0287409Y0121084D01*
X0287409Y0110916D01*
X0274600Y0112000D02*
X0274600Y0120000D01*
X0267600Y0120000D02*
X0267600Y0112000D01*
X0251671Y0117280D02*
X0237261Y0117280D01*
X0237261Y0139720D01*
X0251671Y0139720D01*
X0251671Y0117280D01*
X0237261Y0117280D02*
X0235529Y0117280D01*
X0235529Y0139720D01*
X0237261Y0139720D01*
X0227100Y0137000D02*
X0227100Y0145000D01*
X0235100Y0144500D02*
X0235100Y0152500D01*
X0242100Y0152500D02*
X0242100Y0144500D01*
X0245100Y0144500D02*
X0245100Y0152500D01*
X0252100Y0152500D02*
X0252100Y0144500D01*
X0267600Y0135000D02*
X0267600Y0127000D01*
X0274600Y0127000D02*
X0274600Y0135000D01*
X0284791Y0136084D02*
X0287409Y0136084D01*
X0287409Y0125916D01*
X0284791Y0125916D01*
X0284791Y0136084D01*
X0297600Y0135000D02*
X0297600Y0127000D01*
X0304600Y0127000D02*
X0304600Y0135000D01*
X0381016Y0134809D02*
X0381016Y0132191D01*
X0391184Y0132191D01*
X0391184Y0134809D01*
X0381016Y0134809D01*
X0395100Y0137500D02*
X0395100Y0129500D01*
X0402100Y0129500D02*
X0402100Y0137500D01*
X0407891Y0136650D02*
X0419309Y0136650D01*
X0419309Y0130350D01*
X0407891Y0130350D01*
X0407891Y0136650D01*
X0390100Y0142500D02*
X0382100Y0142500D01*
X0382100Y0149500D02*
X0390100Y0149500D01*
X0448850Y0153750D02*
X0450351Y0153750D01*
X0449601Y0153750D02*
X0449601Y0158254D01*
X0450351Y0158254D02*
X0448850Y0158254D01*
X0451919Y0157503D02*
X0452670Y0158254D01*
X0454171Y0158254D01*
X0454922Y0157503D01*
X0454922Y0156753D01*
X0451919Y0153750D01*
X0454922Y0153750D01*
X0456523Y0153750D02*
X0459526Y0158254D01*
X0461127Y0156753D02*
X0462628Y0158254D01*
X0462628Y0153750D01*
X0461127Y0153750D02*
X0464130Y0153750D01*
X0459526Y0153750D02*
X0456523Y0158254D01*
X0220100Y0145000D02*
X0220100Y0137000D01*
X0217100Y0137000D02*
X0217100Y0145000D01*
X0210100Y0145000D02*
X0210100Y0137000D01*
X0194506Y0137614D02*
X0194506Y0133677D01*
X0194506Y0133480D02*
X0192537Y0133480D01*
X0194506Y0137614D02*
X0194506Y0144307D01*
X0190417Y0144307D01*
X0186480Y0144307D02*
X0182392Y0144307D01*
X0178455Y0144307D02*
X0174366Y0144307D01*
X0170429Y0144307D02*
X0166341Y0144307D01*
X0162404Y0144307D02*
X0158315Y0144307D01*
X0154378Y0144307D02*
X0150290Y0144307D01*
X0146353Y0144307D02*
X0142264Y0144307D01*
X0138327Y0144307D02*
X0134239Y0144307D01*
X0130302Y0144307D02*
X0126214Y0144307D01*
X0122277Y0144307D02*
X0118188Y0144307D01*
X0114251Y0144307D02*
X0110163Y0144307D01*
X0106226Y0144307D02*
X0102137Y0144307D01*
X0098200Y0144307D02*
X0094112Y0144307D01*
X0094112Y0137614D01*
X0094112Y0133677D01*
X0094112Y0133480D02*
X0096080Y0133480D01*
X0094112Y0137614D02*
X0194506Y0137614D01*
X0192537Y0121669D02*
X0192537Y0117929D01*
X0185647Y0117929D01*
X0146277Y0109858D02*
X0142340Y0109858D01*
X0144309Y0112811D01*
X0146277Y0109858D01*
X0115100Y0112000D02*
X0107100Y0112000D01*
X0107100Y0105000D02*
X0115100Y0105000D01*
X0079600Y0104500D02*
X0079600Y0112500D01*
X0072600Y0112500D02*
X0072600Y0104500D01*
X0069600Y0104500D02*
X0069600Y0112500D01*
X0062600Y0112500D02*
X0062600Y0104500D01*
X0056809Y0105350D02*
X0056809Y0111650D01*
X0045391Y0111650D01*
X0045391Y0105350D01*
X0056809Y0105350D01*
X0039600Y0104500D02*
X0039600Y0112500D01*
X0032600Y0112500D02*
X0032600Y0104500D01*
X0029820Y0119720D02*
X0057380Y0119720D01*
X0096080Y0117929D02*
X0096080Y0121669D01*
X0096080Y0117929D02*
X0102970Y0117929D01*
X0057380Y0147280D02*
X0029820Y0147280D01*
D13*
X0055037Y0109484D03*
X0417537Y0134484D03*
D14*
X0371100Y0011000D03*
X0356100Y0011000D03*
X0341100Y0011000D03*
X0326100Y0011000D03*
X0311100Y0011000D03*
X0296100Y0011000D03*
D15*
X0291100Y0053500D03*
X0233600Y0056000D03*
X0176100Y0053500D03*
X0353600Y0056000D03*
X0413718Y0055646D03*
X0233600Y0143500D03*
D16*
X0267100Y0143000D02*
X0267100Y0154000D01*
X0267102Y0154060D01*
X0267107Y0154121D01*
X0267116Y0154180D01*
X0267129Y0154239D01*
X0267145Y0154298D01*
X0267165Y0154355D01*
X0267188Y0154410D01*
X0267215Y0154465D01*
X0267244Y0154517D01*
X0267277Y0154568D01*
X0267313Y0154617D01*
X0267351Y0154663D01*
X0267393Y0154707D01*
X0267437Y0154749D01*
X0267483Y0154787D01*
X0267532Y0154823D01*
X0267583Y0154856D01*
X0267635Y0154885D01*
X0267690Y0154912D01*
X0267745Y0154935D01*
X0267802Y0154955D01*
X0267861Y0154971D01*
X0267920Y0154984D01*
X0267979Y0154993D01*
X0268040Y0154998D01*
X0268100Y0155000D01*
X0274100Y0155000D01*
X0274160Y0154998D01*
X0274221Y0154993D01*
X0274280Y0154984D01*
X0274339Y0154971D01*
X0274398Y0154955D01*
X0274455Y0154935D01*
X0274510Y0154912D01*
X0274565Y0154885D01*
X0274617Y0154856D01*
X0274668Y0154823D01*
X0274717Y0154787D01*
X0274763Y0154749D01*
X0274807Y0154707D01*
X0274849Y0154663D01*
X0274887Y0154617D01*
X0274923Y0154568D01*
X0274956Y0154517D01*
X0274985Y0154465D01*
X0275012Y0154410D01*
X0275035Y0154355D01*
X0275055Y0154298D01*
X0275071Y0154239D01*
X0275084Y0154180D01*
X0275093Y0154121D01*
X0275098Y0154060D01*
X0275100Y0154000D01*
X0275100Y0143000D01*
X0275098Y0142940D01*
X0275093Y0142879D01*
X0275084Y0142820D01*
X0275071Y0142761D01*
X0275055Y0142702D01*
X0275035Y0142645D01*
X0275012Y0142590D01*
X0274985Y0142535D01*
X0274956Y0142483D01*
X0274923Y0142432D01*
X0274887Y0142383D01*
X0274849Y0142337D01*
X0274807Y0142293D01*
X0274763Y0142251D01*
X0274717Y0142213D01*
X0274668Y0142177D01*
X0274617Y0142144D01*
X0274565Y0142115D01*
X0274510Y0142088D01*
X0274455Y0142065D01*
X0274398Y0142045D01*
X0274339Y0142029D01*
X0274280Y0142016D01*
X0274221Y0142007D01*
X0274160Y0142002D01*
X0274100Y0142000D01*
X0268100Y0142000D01*
X0268040Y0142002D01*
X0267979Y0142007D01*
X0267920Y0142016D01*
X0267861Y0142029D01*
X0267802Y0142045D01*
X0267745Y0142065D01*
X0267690Y0142088D01*
X0267635Y0142115D01*
X0267583Y0142144D01*
X0267532Y0142177D01*
X0267483Y0142213D01*
X0267437Y0142251D01*
X0267393Y0142293D01*
X0267351Y0142337D01*
X0267313Y0142383D01*
X0267277Y0142432D01*
X0267244Y0142483D01*
X0267215Y0142535D01*
X0267188Y0142590D01*
X0267165Y0142645D01*
X0267145Y0142702D01*
X0267129Y0142761D01*
X0267116Y0142820D01*
X0267107Y0142879D01*
X0267102Y0142940D01*
X0267100Y0143000D01*
X0277100Y0143000D02*
X0277100Y0154000D01*
X0277102Y0154060D01*
X0277107Y0154121D01*
X0277116Y0154180D01*
X0277129Y0154239D01*
X0277145Y0154298D01*
X0277165Y0154355D01*
X0277188Y0154410D01*
X0277215Y0154465D01*
X0277244Y0154517D01*
X0277277Y0154568D01*
X0277313Y0154617D01*
X0277351Y0154663D01*
X0277393Y0154707D01*
X0277437Y0154749D01*
X0277483Y0154787D01*
X0277532Y0154823D01*
X0277583Y0154856D01*
X0277635Y0154885D01*
X0277690Y0154912D01*
X0277745Y0154935D01*
X0277802Y0154955D01*
X0277861Y0154971D01*
X0277920Y0154984D01*
X0277979Y0154993D01*
X0278040Y0154998D01*
X0278100Y0155000D01*
X0284100Y0155000D01*
X0284160Y0154998D01*
X0284221Y0154993D01*
X0284280Y0154984D01*
X0284339Y0154971D01*
X0284398Y0154955D01*
X0284455Y0154935D01*
X0284510Y0154912D01*
X0284565Y0154885D01*
X0284617Y0154856D01*
X0284668Y0154823D01*
X0284717Y0154787D01*
X0284763Y0154749D01*
X0284807Y0154707D01*
X0284849Y0154663D01*
X0284887Y0154617D01*
X0284923Y0154568D01*
X0284956Y0154517D01*
X0284985Y0154465D01*
X0285012Y0154410D01*
X0285035Y0154355D01*
X0285055Y0154298D01*
X0285071Y0154239D01*
X0285084Y0154180D01*
X0285093Y0154121D01*
X0285098Y0154060D01*
X0285100Y0154000D01*
X0285100Y0143000D01*
X0285098Y0142940D01*
X0285093Y0142879D01*
X0285084Y0142820D01*
X0285071Y0142761D01*
X0285055Y0142702D01*
X0285035Y0142645D01*
X0285012Y0142590D01*
X0284985Y0142535D01*
X0284956Y0142483D01*
X0284923Y0142432D01*
X0284887Y0142383D01*
X0284849Y0142337D01*
X0284807Y0142293D01*
X0284763Y0142251D01*
X0284717Y0142213D01*
X0284668Y0142177D01*
X0284617Y0142144D01*
X0284565Y0142115D01*
X0284510Y0142088D01*
X0284455Y0142065D01*
X0284398Y0142045D01*
X0284339Y0142029D01*
X0284280Y0142016D01*
X0284221Y0142007D01*
X0284160Y0142002D01*
X0284100Y0142000D01*
X0278100Y0142000D01*
X0278040Y0142002D01*
X0277979Y0142007D01*
X0277920Y0142016D01*
X0277861Y0142029D01*
X0277802Y0142045D01*
X0277745Y0142065D01*
X0277690Y0142088D01*
X0277635Y0142115D01*
X0277583Y0142144D01*
X0277532Y0142177D01*
X0277483Y0142213D01*
X0277437Y0142251D01*
X0277393Y0142293D01*
X0277351Y0142337D01*
X0277313Y0142383D01*
X0277277Y0142432D01*
X0277244Y0142483D01*
X0277215Y0142535D01*
X0277188Y0142590D01*
X0277165Y0142645D01*
X0277145Y0142702D01*
X0277129Y0142761D01*
X0277116Y0142820D01*
X0277107Y0142879D01*
X0277102Y0142940D01*
X0277100Y0143000D01*
X0456100Y0141000D02*
X0456100Y0131000D01*
X0456100Y0121000D01*
X0456100Y0111000D01*
X0466100Y0111000D01*
X0466100Y0121000D01*
X0466100Y0131000D01*
X0466100Y0141000D01*
X0466100Y0151000D01*
X0456100Y0151000D01*
X0456100Y0141000D01*
X0466100Y0141000D01*
X0466100Y0131000D02*
X0456100Y0131000D01*
X0456100Y0121000D02*
X0466100Y0121000D01*
X0466100Y0111000D02*
X0456100Y0111000D01*
X0456100Y0101000D01*
X0456100Y0091000D01*
X0456100Y0081000D01*
X0456100Y0071000D01*
X0456100Y0061000D01*
X0456100Y0051000D01*
X0456100Y0041000D01*
X0456100Y0031000D01*
X0456100Y0021000D01*
X0456100Y0011000D01*
X0466100Y0011000D01*
X0466100Y0021000D01*
X0466100Y0031000D01*
X0466100Y0041000D01*
X0466100Y0051000D01*
X0466100Y0061000D01*
X0466100Y0071000D01*
X0466100Y0081000D01*
X0466100Y0091000D01*
X0466100Y0101000D01*
X0466100Y0111000D01*
X0466100Y0101000D02*
X0456100Y0101000D01*
X0456100Y0091000D02*
X0466100Y0091000D01*
X0466100Y0081000D02*
X0456100Y0081000D01*
X0456100Y0071000D02*
X0466100Y0071000D01*
X0466100Y0061000D02*
X0456100Y0061000D01*
X0456100Y0051000D02*
X0466100Y0051000D01*
X0466100Y0041000D02*
X0456100Y0041000D01*
X0456100Y0031000D02*
X0466100Y0031000D01*
X0466100Y0021000D02*
X0456100Y0021000D01*
D17*
X0468600Y0016000D02*
X0491100Y0016000D01*
X0491100Y0026000D02*
X0468600Y0026000D01*
X0468600Y0036000D02*
X0491100Y0036000D01*
X0491100Y0046000D02*
X0468600Y0046000D01*
X0468600Y0056000D02*
X0491100Y0056000D01*
X0491100Y0066000D02*
X0468600Y0066000D01*
X0468600Y0076000D02*
X0491100Y0076000D01*
X0491100Y0086000D02*
X0468600Y0086000D01*
X0468600Y0096000D02*
X0491100Y0096000D01*
X0491100Y0106000D02*
X0468600Y0106000D01*
X0468600Y0116000D02*
X0491100Y0116000D01*
X0491100Y0126000D02*
X0468600Y0126000D01*
X0468600Y0136000D02*
X0491100Y0136000D01*
X0491100Y0146000D02*
X0468600Y0146000D01*
D18*
X0467100Y0146000D03*
X0467100Y0136000D03*
X0467100Y0126000D03*
X0467100Y0116000D03*
X0467100Y0106000D03*
X0467100Y0096000D03*
X0467100Y0086000D03*
X0467100Y0076000D03*
X0467100Y0066000D03*
X0467100Y0056000D03*
X0467100Y0046000D03*
X0467100Y0036000D03*
X0467100Y0026000D03*
X0467100Y0016000D03*
D19*
X0454100Y0016000D03*
X0454100Y0026000D03*
X0454100Y0036000D03*
X0454100Y0046000D03*
X0454100Y0056000D03*
X0454100Y0066000D03*
X0454100Y0076000D03*
X0454100Y0086000D03*
X0454100Y0096000D03*
X0454100Y0106000D03*
X0454100Y0116000D03*
X0454100Y0126000D03*
X0454100Y0136000D03*
X0454100Y0146000D03*
M02*
