%
M48
M72
T01C0.0120
T02C0.0400
%
T01
X17423Y4975
X18298Y5954
X18315Y6704
X18782Y6988
X18399Y7321
X17735Y8038
X20278Y8273
X21193Y8125
X18359Y9743
X14516Y10156
X15991Y11226
X16783Y11126
X22689Y12466
X22876Y14495
X28760Y10306
X29743Y7775
X32489Y6735
X32236Y6370
X33609Y5640
X31641Y4979
X29733Y6520
X25760Y7528
X23735Y6338
X23700Y5866
X22846Y5641
X22897Y5136
X20972Y5453
X21129Y4271
X14983Y6383
X10360Y10850
X5110Y11725
X3610Y11725
X34772Y1705
X39610Y3600
X41360Y3975
X40610Y4350
X40048Y4350
X36900Y5408
X39173Y5975
X36264Y6749
X35770Y6786
X35738Y7651
X38031Y7427
X39270Y7725
X39173Y8225
X42470Y8015
X36610Y15225
X35610Y15225
X35610Y15725
X36610Y15725
T02
X44860Y14600
X44860Y13600
X44860Y12600
X44860Y11600
X44860Y10600
X44860Y9600
X44860Y8600
X44860Y7600
X44860Y6600
X44860Y5600
X44860Y4600
X44860Y3600
X44860Y2600
X44860Y1600
M30
