G75*
%MOIN*%
%OFA0B0*%
%FSLAX25Y25*%
%IPPOS*%
%LPD*%
%AMOC8*
5,1,8,0,0,1.08239X$1,22.5*
%
%ADD10C,0.03564*%
%ADD11C,0.02728*%
%ADD12R,0.12598X0.26969*%
%ADD13C,0.01169*%
%ADD14C,0.00945*%
%ADD15C,0.03960*%
%ADD16C,0.01559*%
%ADD17R,0.05315X0.01575*%
%ADD18C,0.06000*%
%ADD19R,0.06299X0.01575*%
%ADD20C,0.04554*%
%ADD21C,0.01000*%
%ADD22C,0.02200*%
%ADD23C,0.00600*%
D10*
X0162132Y0050968D02*
X0162168Y0050968D01*
X0162168Y0048532D01*
X0162132Y0048532D01*
X0162132Y0050968D01*
X0170032Y0050968D02*
X0170068Y0050968D01*
X0170068Y0048532D01*
X0170032Y0048532D01*
X0170032Y0050968D01*
X0217132Y0052218D02*
X0217168Y0052218D01*
X0217168Y0049782D01*
X0217132Y0049782D01*
X0217132Y0052218D01*
X0225032Y0052218D02*
X0225068Y0052218D01*
X0225068Y0049782D01*
X0225032Y0049782D01*
X0225032Y0052218D01*
X0262132Y0049782D02*
X0262168Y0049782D01*
X0262132Y0049782D02*
X0262132Y0052218D01*
X0262168Y0052218D01*
X0262168Y0049782D01*
X0270032Y0049782D02*
X0270068Y0049782D01*
X0270032Y0049782D02*
X0270032Y0052218D01*
X0270068Y0052218D01*
X0270068Y0049782D01*
X0294882Y0039968D02*
X0294882Y0039932D01*
X0294882Y0039968D02*
X0297318Y0039968D01*
X0297318Y0039932D01*
X0294882Y0039932D01*
X0309882Y0039932D02*
X0309882Y0039968D01*
X0312318Y0039968D01*
X0312318Y0039932D01*
X0309882Y0039932D01*
X0324882Y0039932D02*
X0324882Y0039968D01*
X0327318Y0039968D01*
X0327318Y0039932D01*
X0324882Y0039932D01*
X0339882Y0039932D02*
X0339882Y0039968D01*
X0342318Y0039968D01*
X0342318Y0039932D01*
X0339882Y0039932D01*
X0354882Y0039932D02*
X0354882Y0039968D01*
X0357318Y0039968D01*
X0357318Y0039932D01*
X0354882Y0039932D01*
X0369882Y0039932D02*
X0369882Y0039968D01*
X0372318Y0039968D01*
X0372318Y0039932D01*
X0369882Y0039932D01*
X0369882Y0032068D02*
X0369882Y0032032D01*
X0369882Y0032068D02*
X0372318Y0032068D01*
X0372318Y0032032D01*
X0369882Y0032032D01*
X0354882Y0032032D02*
X0354882Y0032068D01*
X0357318Y0032068D01*
X0357318Y0032032D01*
X0354882Y0032032D01*
X0339882Y0032032D02*
X0339882Y0032068D01*
X0342318Y0032068D01*
X0342318Y0032032D01*
X0339882Y0032032D01*
X0324882Y0032032D02*
X0324882Y0032068D01*
X0327318Y0032068D01*
X0327318Y0032032D01*
X0324882Y0032032D01*
X0309882Y0032032D02*
X0309882Y0032068D01*
X0312318Y0032068D01*
X0312318Y0032032D01*
X0309882Y0032032D01*
X0294882Y0032032D02*
X0294882Y0032068D01*
X0297318Y0032068D01*
X0297318Y0032032D01*
X0294882Y0032032D01*
X0294882Y0024968D02*
X0294882Y0024932D01*
X0294882Y0024968D02*
X0297318Y0024968D01*
X0297318Y0024932D01*
X0294882Y0024932D01*
X0309882Y0024932D02*
X0309882Y0024968D01*
X0312318Y0024968D01*
X0312318Y0024932D01*
X0309882Y0024932D01*
X0324882Y0024932D02*
X0324882Y0024968D01*
X0327318Y0024968D01*
X0327318Y0024932D01*
X0324882Y0024932D01*
X0339882Y0024932D02*
X0339882Y0024968D01*
X0342318Y0024968D01*
X0342318Y0024932D01*
X0339882Y0024932D01*
X0354882Y0024932D02*
X0354882Y0024968D01*
X0357318Y0024968D01*
X0357318Y0024932D01*
X0354882Y0024932D01*
X0369882Y0024932D02*
X0369882Y0024968D01*
X0372318Y0024968D01*
X0372318Y0024932D01*
X0369882Y0024932D01*
X0369882Y0017068D02*
X0369882Y0017032D01*
X0369882Y0017068D02*
X0372318Y0017068D01*
X0372318Y0017032D01*
X0369882Y0017032D01*
X0354882Y0017032D02*
X0354882Y0017068D01*
X0357318Y0017068D01*
X0357318Y0017032D01*
X0354882Y0017032D01*
X0339882Y0017032D02*
X0339882Y0017068D01*
X0342318Y0017068D01*
X0342318Y0017032D01*
X0339882Y0017032D01*
X0324882Y0017032D02*
X0324882Y0017068D01*
X0327318Y0017068D01*
X0327318Y0017032D01*
X0324882Y0017032D01*
X0309882Y0017032D02*
X0309882Y0017068D01*
X0312318Y0017068D01*
X0312318Y0017032D01*
X0309882Y0017032D01*
X0294882Y0017032D02*
X0294882Y0017068D01*
X0297318Y0017068D01*
X0297318Y0017032D01*
X0294882Y0017032D01*
X0322132Y0049782D02*
X0322168Y0049782D01*
X0322132Y0049782D02*
X0322132Y0052218D01*
X0322168Y0052218D01*
X0322168Y0049782D01*
X0330032Y0049782D02*
X0330068Y0049782D01*
X0330032Y0049782D02*
X0330032Y0052218D01*
X0330068Y0052218D01*
X0330068Y0049782D01*
X0397318Y0047468D02*
X0397318Y0047432D01*
X0394882Y0047432D01*
X0394882Y0047468D01*
X0397318Y0047468D01*
X0419818Y0047468D02*
X0419818Y0047432D01*
X0417382Y0047432D01*
X0417382Y0047468D01*
X0419818Y0047468D01*
X0419818Y0039568D02*
X0419818Y0039532D01*
X0417382Y0039532D01*
X0417382Y0039568D01*
X0419818Y0039568D01*
X0397318Y0039568D02*
X0397318Y0039532D01*
X0394882Y0039532D01*
X0394882Y0039568D01*
X0397318Y0039568D01*
X0302318Y0112032D02*
X0302318Y0112068D01*
X0302318Y0112032D02*
X0299882Y0112032D01*
X0299882Y0112068D01*
X0302318Y0112068D01*
X0302318Y0119932D02*
X0302318Y0119968D01*
X0302318Y0119932D02*
X0299882Y0119932D01*
X0299882Y0119968D01*
X0302318Y0119968D01*
X0302318Y0127032D02*
X0302318Y0127068D01*
X0302318Y0127032D02*
X0299882Y0127032D01*
X0299882Y0127068D01*
X0302318Y0127068D01*
X0302318Y0134932D02*
X0302318Y0134968D01*
X0302318Y0134932D02*
X0299882Y0134932D01*
X0299882Y0134968D01*
X0302318Y0134968D01*
X0272318Y0134968D02*
X0272318Y0134932D01*
X0269882Y0134932D01*
X0269882Y0134968D01*
X0272318Y0134968D01*
X0272318Y0127068D02*
X0272318Y0127032D01*
X0269882Y0127032D01*
X0269882Y0127068D01*
X0272318Y0127068D01*
X0272318Y0119968D02*
X0272318Y0119932D01*
X0269882Y0119932D01*
X0269882Y0119968D01*
X0272318Y0119968D01*
X0272318Y0112068D02*
X0272318Y0112032D01*
X0269882Y0112032D01*
X0269882Y0112068D01*
X0272318Y0112068D01*
X0222382Y0137032D02*
X0222382Y0137068D01*
X0224818Y0137068D01*
X0224818Y0137032D01*
X0222382Y0137032D01*
X0212382Y0137032D02*
X0212382Y0137068D01*
X0214818Y0137068D01*
X0214818Y0137032D01*
X0212382Y0137032D01*
X0212382Y0144932D02*
X0212382Y0144968D01*
X0214818Y0144968D01*
X0214818Y0144932D01*
X0212382Y0144932D01*
X0222382Y0144932D02*
X0222382Y0144968D01*
X0224818Y0144968D01*
X0224818Y0144932D01*
X0222382Y0144932D01*
X0237382Y0144568D02*
X0237382Y0144532D01*
X0237382Y0144568D02*
X0239818Y0144568D01*
X0239818Y0144532D01*
X0237382Y0144532D01*
X0247382Y0144532D02*
X0247382Y0144568D01*
X0249818Y0144568D01*
X0249818Y0144532D01*
X0247382Y0144532D01*
X0247382Y0152432D02*
X0247382Y0152468D01*
X0249818Y0152468D01*
X0249818Y0152432D01*
X0247382Y0152432D01*
X0237382Y0152432D02*
X0237382Y0152468D01*
X0239818Y0152468D01*
X0239818Y0152432D01*
X0237382Y0152432D01*
X0115068Y0107282D02*
X0115032Y0107282D01*
X0115032Y0109718D01*
X0115068Y0109718D01*
X0115068Y0107282D01*
X0107168Y0107282D02*
X0107132Y0107282D01*
X0107132Y0109718D01*
X0107168Y0109718D01*
X0107168Y0107282D01*
X0074882Y0104568D02*
X0074882Y0104532D01*
X0074882Y0104568D02*
X0077318Y0104568D01*
X0077318Y0104532D01*
X0074882Y0104532D01*
X0064882Y0104532D02*
X0064882Y0104568D01*
X0067318Y0104568D01*
X0067318Y0104532D01*
X0064882Y0104532D01*
X0064882Y0112432D02*
X0064882Y0112468D01*
X0067318Y0112468D01*
X0067318Y0112432D01*
X0064882Y0112432D01*
X0074882Y0112432D02*
X0074882Y0112468D01*
X0077318Y0112468D01*
X0077318Y0112432D01*
X0074882Y0112432D01*
X0034882Y0112432D02*
X0034882Y0112468D01*
X0037318Y0112468D01*
X0037318Y0112432D01*
X0034882Y0112432D01*
X0034882Y0104568D02*
X0034882Y0104532D01*
X0034882Y0104568D02*
X0037318Y0104568D01*
X0037318Y0104532D01*
X0034882Y0104532D01*
X0382132Y0147218D02*
X0382168Y0147218D01*
X0382168Y0144782D01*
X0382132Y0144782D01*
X0382132Y0147218D01*
X0390032Y0147218D02*
X0390068Y0147218D01*
X0390068Y0144782D01*
X0390032Y0144782D01*
X0390032Y0147218D01*
X0397382Y0137468D02*
X0397382Y0137432D01*
X0397382Y0137468D02*
X0399818Y0137468D01*
X0399818Y0137432D01*
X0397382Y0137432D01*
X0397382Y0129568D02*
X0397382Y0129532D01*
X0397382Y0129568D02*
X0399818Y0129568D01*
X0399818Y0129532D01*
X0397382Y0129532D01*
D11*
X0409846Y0129380D02*
X0409874Y0129380D01*
X0409874Y0128172D01*
X0409846Y0128172D01*
X0409846Y0129380D01*
X0413586Y0129380D02*
X0413614Y0129380D01*
X0413614Y0128172D01*
X0413586Y0128172D01*
X0413586Y0129380D01*
X0417326Y0129380D02*
X0417354Y0129380D01*
X0417354Y0128172D01*
X0417326Y0128172D01*
X0417326Y0129380D01*
X0417326Y0138828D02*
X0417354Y0138828D01*
X0417354Y0137620D01*
X0417326Y0137620D01*
X0417326Y0138828D01*
X0413614Y0138828D02*
X0413586Y0138828D01*
X0413614Y0138828D02*
X0413614Y0137620D01*
X0413586Y0137620D01*
X0413586Y0138828D01*
X0409874Y0138828D02*
X0409846Y0138828D01*
X0409874Y0138828D02*
X0409874Y0137620D01*
X0409846Y0137620D01*
X0409846Y0138828D01*
X0054854Y0113828D02*
X0054826Y0113828D01*
X0054854Y0113828D02*
X0054854Y0112620D01*
X0054826Y0112620D01*
X0054826Y0113828D01*
X0051114Y0113828D02*
X0051086Y0113828D01*
X0051114Y0113828D02*
X0051114Y0112620D01*
X0051086Y0112620D01*
X0051086Y0113828D01*
X0047374Y0113828D02*
X0047346Y0113828D01*
X0047374Y0113828D02*
X0047374Y0112620D01*
X0047346Y0112620D01*
X0047346Y0113828D01*
X0047346Y0104380D02*
X0047374Y0104380D01*
X0047374Y0103172D01*
X0047346Y0103172D01*
X0047346Y0104380D01*
X0051086Y0104380D02*
X0051114Y0104380D01*
X0051114Y0103172D01*
X0051086Y0103172D01*
X0051086Y0104380D01*
X0054826Y0104380D02*
X0054854Y0104380D01*
X0054854Y0103172D01*
X0054826Y0103172D01*
X0054826Y0104380D01*
D12*
X0053935Y0133500D03*
X0033265Y0133500D03*
D13*
X0105917Y0118526D02*
X0105917Y0114970D01*
X0105917Y0118526D02*
X0105929Y0118526D01*
X0105929Y0114970D01*
X0105917Y0114970D01*
X0105929Y0116138D02*
X0105917Y0116138D01*
X0105917Y0117306D02*
X0105929Y0117306D01*
X0105929Y0118474D02*
X0105917Y0118474D01*
X0107885Y0118526D02*
X0107885Y0114970D01*
X0107885Y0118526D02*
X0107897Y0118526D01*
X0107897Y0114970D01*
X0107885Y0114970D01*
X0107897Y0116138D02*
X0107885Y0116138D01*
X0107885Y0117306D02*
X0107897Y0117306D01*
X0107897Y0118474D02*
X0107885Y0118474D01*
X0109854Y0118526D02*
X0109854Y0114970D01*
X0109854Y0118526D02*
X0109866Y0118526D01*
X0109866Y0114970D01*
X0109854Y0114970D01*
X0109866Y0116138D02*
X0109854Y0116138D01*
X0109854Y0117306D02*
X0109866Y0117306D01*
X0109866Y0118474D02*
X0109854Y0118474D01*
X0111822Y0118526D02*
X0111822Y0114970D01*
X0111822Y0118526D02*
X0111834Y0118526D01*
X0111834Y0114970D01*
X0111822Y0114970D01*
X0111834Y0116138D02*
X0111822Y0116138D01*
X0111822Y0117306D02*
X0111834Y0117306D01*
X0111834Y0118474D02*
X0111822Y0118474D01*
X0113791Y0118526D02*
X0113791Y0114970D01*
X0113791Y0118526D02*
X0113803Y0118526D01*
X0113803Y0114970D01*
X0113791Y0114970D01*
X0113803Y0116138D02*
X0113791Y0116138D01*
X0113791Y0117306D02*
X0113803Y0117306D01*
X0113803Y0118474D02*
X0113791Y0118474D01*
X0115759Y0118526D02*
X0115759Y0114970D01*
X0115759Y0118526D02*
X0115771Y0118526D01*
X0115771Y0114970D01*
X0115759Y0114970D01*
X0115771Y0116138D02*
X0115759Y0116138D01*
X0115759Y0117306D02*
X0115771Y0117306D01*
X0115771Y0118474D02*
X0115759Y0118474D01*
X0117728Y0118526D02*
X0117728Y0114970D01*
X0117728Y0118526D02*
X0117740Y0118526D01*
X0117740Y0114970D01*
X0117728Y0114970D01*
X0117740Y0116138D02*
X0117728Y0116138D01*
X0117728Y0117306D02*
X0117740Y0117306D01*
X0117740Y0118474D02*
X0117728Y0118474D01*
X0119696Y0118526D02*
X0119696Y0114970D01*
X0119696Y0118526D02*
X0119708Y0118526D01*
X0119708Y0114970D01*
X0119696Y0114970D01*
X0119708Y0116138D02*
X0119696Y0116138D01*
X0119696Y0117306D02*
X0119708Y0117306D01*
X0119708Y0118474D02*
X0119696Y0118474D01*
X0121665Y0118526D02*
X0121665Y0114970D01*
X0121665Y0118526D02*
X0121677Y0118526D01*
X0121677Y0114970D01*
X0121665Y0114970D01*
X0121677Y0116138D02*
X0121665Y0116138D01*
X0121665Y0117306D02*
X0121677Y0117306D01*
X0121677Y0118474D02*
X0121665Y0118474D01*
X0123633Y0118526D02*
X0123633Y0114970D01*
X0123633Y0118526D02*
X0123645Y0118526D01*
X0123645Y0114970D01*
X0123633Y0114970D01*
X0123645Y0116138D02*
X0123633Y0116138D01*
X0123633Y0117306D02*
X0123645Y0117306D01*
X0123645Y0118474D02*
X0123633Y0118474D01*
X0125602Y0118526D02*
X0125602Y0114970D01*
X0125602Y0118526D02*
X0125614Y0118526D01*
X0125614Y0114970D01*
X0125602Y0114970D01*
X0125614Y0116138D02*
X0125602Y0116138D01*
X0125602Y0117306D02*
X0125614Y0117306D01*
X0125614Y0118474D02*
X0125602Y0118474D01*
X0127570Y0118526D02*
X0127570Y0114970D01*
X0127570Y0118526D02*
X0127582Y0118526D01*
X0127582Y0114970D01*
X0127570Y0114970D01*
X0127582Y0116138D02*
X0127570Y0116138D01*
X0127570Y0117306D02*
X0127582Y0117306D01*
X0127582Y0118474D02*
X0127570Y0118474D01*
X0129539Y0118526D02*
X0129539Y0114970D01*
X0129539Y0118526D02*
X0129551Y0118526D01*
X0129551Y0114970D01*
X0129539Y0114970D01*
X0129551Y0116138D02*
X0129539Y0116138D01*
X0129539Y0117306D02*
X0129551Y0117306D01*
X0129551Y0118474D02*
X0129539Y0118474D01*
X0131507Y0118526D02*
X0131507Y0114970D01*
X0131507Y0118526D02*
X0131519Y0118526D01*
X0131519Y0114970D01*
X0131507Y0114970D01*
X0131519Y0116138D02*
X0131507Y0116138D01*
X0131507Y0117306D02*
X0131519Y0117306D01*
X0131519Y0118474D02*
X0131507Y0118474D01*
X0133476Y0118526D02*
X0133476Y0114970D01*
X0133476Y0118526D02*
X0133488Y0118526D01*
X0133488Y0114970D01*
X0133476Y0114970D01*
X0133488Y0116138D02*
X0133476Y0116138D01*
X0133476Y0117306D02*
X0133488Y0117306D01*
X0133488Y0118474D02*
X0133476Y0118474D01*
X0135444Y0118526D02*
X0135444Y0114970D01*
X0135444Y0118526D02*
X0135456Y0118526D01*
X0135456Y0114970D01*
X0135444Y0114970D01*
X0135456Y0116138D02*
X0135444Y0116138D01*
X0135444Y0117306D02*
X0135456Y0117306D01*
X0135456Y0118474D02*
X0135444Y0118474D01*
X0137413Y0118526D02*
X0137413Y0114970D01*
X0137413Y0118526D02*
X0137425Y0118526D01*
X0137425Y0114970D01*
X0137413Y0114970D01*
X0137425Y0116138D02*
X0137413Y0116138D01*
X0137413Y0117306D02*
X0137425Y0117306D01*
X0137425Y0118474D02*
X0137413Y0118474D01*
X0139381Y0118526D02*
X0139381Y0114970D01*
X0139381Y0118526D02*
X0139393Y0118526D01*
X0139393Y0114970D01*
X0139381Y0114970D01*
X0139393Y0116138D02*
X0139381Y0116138D01*
X0139381Y0117306D02*
X0139393Y0117306D01*
X0139393Y0118474D02*
X0139381Y0118474D01*
X0141350Y0118526D02*
X0141350Y0114970D01*
X0141350Y0118526D02*
X0141362Y0118526D01*
X0141362Y0114970D01*
X0141350Y0114970D01*
X0141362Y0116138D02*
X0141350Y0116138D01*
X0141350Y0117306D02*
X0141362Y0117306D01*
X0141362Y0118474D02*
X0141350Y0118474D01*
X0143318Y0118526D02*
X0143318Y0114970D01*
X0143318Y0118526D02*
X0143330Y0118526D01*
X0143330Y0114970D01*
X0143318Y0114970D01*
X0143330Y0116138D02*
X0143318Y0116138D01*
X0143318Y0117306D02*
X0143330Y0117306D01*
X0143330Y0118474D02*
X0143318Y0118474D01*
X0145287Y0118526D02*
X0145287Y0114970D01*
X0145287Y0118526D02*
X0145299Y0118526D01*
X0145299Y0114970D01*
X0145287Y0114970D01*
X0145299Y0116138D02*
X0145287Y0116138D01*
X0145287Y0117306D02*
X0145299Y0117306D01*
X0145299Y0118474D02*
X0145287Y0118474D01*
X0147255Y0118526D02*
X0147255Y0114970D01*
X0147255Y0118526D02*
X0147267Y0118526D01*
X0147267Y0114970D01*
X0147255Y0114970D01*
X0147267Y0116138D02*
X0147255Y0116138D01*
X0147255Y0117306D02*
X0147267Y0117306D01*
X0147267Y0118474D02*
X0147255Y0118474D01*
X0149224Y0118526D02*
X0149224Y0114970D01*
X0149224Y0118526D02*
X0149236Y0118526D01*
X0149236Y0114970D01*
X0149224Y0114970D01*
X0149236Y0116138D02*
X0149224Y0116138D01*
X0149224Y0117306D02*
X0149236Y0117306D01*
X0149236Y0118474D02*
X0149224Y0118474D01*
X0151192Y0118526D02*
X0151192Y0114970D01*
X0151192Y0118526D02*
X0151204Y0118526D01*
X0151204Y0114970D01*
X0151192Y0114970D01*
X0151204Y0116138D02*
X0151192Y0116138D01*
X0151192Y0117306D02*
X0151204Y0117306D01*
X0151204Y0118474D02*
X0151192Y0118474D01*
X0153161Y0118526D02*
X0153161Y0114970D01*
X0153161Y0118526D02*
X0153173Y0118526D01*
X0153173Y0114970D01*
X0153161Y0114970D01*
X0153173Y0116138D02*
X0153161Y0116138D01*
X0153161Y0117306D02*
X0153173Y0117306D01*
X0153173Y0118474D02*
X0153161Y0118474D01*
X0155129Y0118526D02*
X0155129Y0114970D01*
X0155129Y0118526D02*
X0155141Y0118526D01*
X0155141Y0114970D01*
X0155129Y0114970D01*
X0155141Y0116138D02*
X0155129Y0116138D01*
X0155129Y0117306D02*
X0155141Y0117306D01*
X0155141Y0118474D02*
X0155129Y0118474D01*
X0157098Y0118526D02*
X0157098Y0114970D01*
X0157098Y0118526D02*
X0157110Y0118526D01*
X0157110Y0114970D01*
X0157098Y0114970D01*
X0157110Y0116138D02*
X0157098Y0116138D01*
X0157098Y0117306D02*
X0157110Y0117306D01*
X0157110Y0118474D02*
X0157098Y0118474D01*
X0159066Y0118526D02*
X0159066Y0114970D01*
X0159066Y0118526D02*
X0159078Y0118526D01*
X0159078Y0114970D01*
X0159066Y0114970D01*
X0159078Y0116138D02*
X0159066Y0116138D01*
X0159066Y0117306D02*
X0159078Y0117306D01*
X0159078Y0118474D02*
X0159066Y0118474D01*
X0161035Y0118526D02*
X0161035Y0114970D01*
X0161035Y0118526D02*
X0161047Y0118526D01*
X0161047Y0114970D01*
X0161035Y0114970D01*
X0161047Y0116138D02*
X0161035Y0116138D01*
X0161035Y0117306D02*
X0161047Y0117306D01*
X0161047Y0118474D02*
X0161035Y0118474D01*
X0163003Y0118526D02*
X0163003Y0114970D01*
X0163003Y0118526D02*
X0163015Y0118526D01*
X0163015Y0114970D01*
X0163003Y0114970D01*
X0163015Y0116138D02*
X0163003Y0116138D01*
X0163003Y0117306D02*
X0163015Y0117306D01*
X0163015Y0118474D02*
X0163003Y0118474D01*
X0164972Y0118526D02*
X0164972Y0114970D01*
X0164972Y0118526D02*
X0164984Y0118526D01*
X0164984Y0114970D01*
X0164972Y0114970D01*
X0164984Y0116138D02*
X0164972Y0116138D01*
X0164972Y0117306D02*
X0164984Y0117306D01*
X0164984Y0118474D02*
X0164972Y0118474D01*
X0166940Y0118526D02*
X0166940Y0114970D01*
X0166940Y0118526D02*
X0166952Y0118526D01*
X0166952Y0114970D01*
X0166940Y0114970D01*
X0166952Y0116138D02*
X0166940Y0116138D01*
X0166940Y0117306D02*
X0166952Y0117306D01*
X0166952Y0118474D02*
X0166940Y0118474D01*
X0168909Y0118526D02*
X0168909Y0114970D01*
X0168909Y0118526D02*
X0168921Y0118526D01*
X0168921Y0114970D01*
X0168909Y0114970D01*
X0168921Y0116138D02*
X0168909Y0116138D01*
X0168909Y0117306D02*
X0168921Y0117306D01*
X0168921Y0118474D02*
X0168909Y0118474D01*
X0170877Y0118526D02*
X0170877Y0114970D01*
X0170877Y0118526D02*
X0170889Y0118526D01*
X0170889Y0114970D01*
X0170877Y0114970D01*
X0170889Y0116138D02*
X0170877Y0116138D01*
X0170877Y0117306D02*
X0170889Y0117306D01*
X0170889Y0118474D02*
X0170877Y0118474D01*
X0172846Y0118526D02*
X0172846Y0114970D01*
X0172846Y0118526D02*
X0172858Y0118526D01*
X0172858Y0114970D01*
X0172846Y0114970D01*
X0172858Y0116138D02*
X0172846Y0116138D01*
X0172846Y0117306D02*
X0172858Y0117306D01*
X0172858Y0118474D02*
X0172846Y0118474D01*
X0174814Y0118526D02*
X0174814Y0114970D01*
X0174814Y0118526D02*
X0174826Y0118526D01*
X0174826Y0114970D01*
X0174814Y0114970D01*
X0174826Y0116138D02*
X0174814Y0116138D01*
X0174814Y0117306D02*
X0174826Y0117306D01*
X0174826Y0118474D02*
X0174814Y0118474D01*
X0176783Y0118526D02*
X0176783Y0114970D01*
X0176783Y0118526D02*
X0176795Y0118526D01*
X0176795Y0114970D01*
X0176783Y0114970D01*
X0176795Y0116138D02*
X0176783Y0116138D01*
X0176783Y0117306D02*
X0176795Y0117306D01*
X0176795Y0118474D02*
X0176783Y0118474D01*
X0178751Y0118526D02*
X0178751Y0114970D01*
X0178751Y0118526D02*
X0178763Y0118526D01*
X0178763Y0114970D01*
X0178751Y0114970D01*
X0178763Y0116138D02*
X0178751Y0116138D01*
X0178751Y0117306D02*
X0178763Y0117306D01*
X0178763Y0118474D02*
X0178751Y0118474D01*
X0180720Y0118526D02*
X0180720Y0114970D01*
X0180720Y0118526D02*
X0180732Y0118526D01*
X0180732Y0114970D01*
X0180720Y0114970D01*
X0180732Y0116138D02*
X0180720Y0116138D01*
X0180720Y0117306D02*
X0180732Y0117306D01*
X0180732Y0118474D02*
X0180720Y0118474D01*
X0182688Y0118526D02*
X0182688Y0114970D01*
X0182688Y0118526D02*
X0182700Y0118526D01*
X0182700Y0114970D01*
X0182688Y0114970D01*
X0182700Y0116138D02*
X0182688Y0116138D01*
X0182688Y0117306D02*
X0182700Y0117306D01*
X0182700Y0118474D02*
X0182688Y0118474D01*
D14*
X0186710Y0131630D02*
X0195214Y0131630D01*
X0195214Y0123126D01*
X0186710Y0123126D01*
X0186710Y0131630D01*
X0186710Y0124070D02*
X0195214Y0124070D01*
X0195214Y0125014D02*
X0186710Y0125014D01*
X0186710Y0125958D02*
X0195214Y0125958D01*
X0195214Y0126902D02*
X0186710Y0126902D01*
X0186710Y0127846D02*
X0195214Y0127846D01*
X0195214Y0128790D02*
X0186710Y0128790D01*
X0186710Y0129734D02*
X0195214Y0129734D01*
X0195214Y0130678D02*
X0186710Y0130678D01*
X0186710Y0131622D02*
X0195214Y0131622D01*
X0101907Y0131630D02*
X0093403Y0131630D01*
X0101907Y0131630D02*
X0101907Y0123126D01*
X0093403Y0123126D01*
X0093403Y0131630D01*
X0093403Y0124070D02*
X0101907Y0124070D01*
X0101907Y0125014D02*
X0093403Y0125014D01*
X0093403Y0125958D02*
X0101907Y0125958D01*
X0101907Y0126902D02*
X0093403Y0126902D01*
X0093403Y0127846D02*
X0101907Y0127846D01*
X0101907Y0128790D02*
X0093403Y0128790D01*
X0093403Y0129734D02*
X0101907Y0129734D01*
X0101907Y0130678D02*
X0093403Y0130678D01*
X0093403Y0131622D02*
X0101907Y0131622D01*
D15*
X0281580Y0134730D02*
X0281620Y0134730D01*
X0281580Y0134730D02*
X0281580Y0134770D01*
X0281620Y0134770D01*
X0281620Y0134730D01*
X0290580Y0130980D02*
X0290620Y0130980D01*
X0290580Y0130980D02*
X0290580Y0131020D01*
X0290620Y0131020D01*
X0290620Y0130980D01*
X0281620Y0127230D02*
X0281580Y0127230D01*
X0281580Y0127270D01*
X0281620Y0127270D01*
X0281620Y0127230D01*
X0281620Y0119730D02*
X0281580Y0119730D01*
X0281580Y0119770D01*
X0281620Y0119770D01*
X0281620Y0119730D01*
X0290580Y0115980D02*
X0290620Y0115980D01*
X0290580Y0115980D02*
X0290580Y0116020D01*
X0290620Y0116020D01*
X0290620Y0115980D01*
X0281620Y0112230D02*
X0281580Y0112230D01*
X0281580Y0112270D01*
X0281620Y0112270D01*
X0281620Y0112230D01*
X0382330Y0137980D02*
X0382330Y0138020D01*
X0382370Y0138020D01*
X0382370Y0137980D01*
X0382330Y0137980D01*
X0389830Y0137980D02*
X0389830Y0138020D01*
X0389870Y0138020D01*
X0389870Y0137980D01*
X0389830Y0137980D01*
X0386080Y0129020D02*
X0386080Y0128980D01*
X0386080Y0129020D02*
X0386120Y0129020D01*
X0386120Y0128980D01*
X0386080Y0128980D01*
D16*
X0256994Y0129772D02*
X0253238Y0129772D01*
X0253238Y0129788D01*
X0256994Y0129788D01*
X0256994Y0129772D01*
X0256994Y0132331D02*
X0253238Y0132331D01*
X0253238Y0132347D01*
X0256994Y0132347D01*
X0256994Y0132331D01*
X0256994Y0134890D02*
X0253238Y0134890D01*
X0253238Y0134906D01*
X0256994Y0134906D01*
X0256994Y0134890D01*
X0256994Y0137449D02*
X0253238Y0137449D01*
X0253238Y0137465D01*
X0256994Y0137465D01*
X0256994Y0137449D01*
X0233962Y0134890D02*
X0230206Y0134890D01*
X0230206Y0134906D01*
X0233962Y0134906D01*
X0233962Y0134890D01*
X0233962Y0132331D02*
X0230206Y0132331D01*
X0230206Y0132347D01*
X0233962Y0132347D01*
X0233962Y0132331D01*
X0233962Y0129772D02*
X0230206Y0129772D01*
X0230206Y0129788D01*
X0233962Y0129788D01*
X0233962Y0129772D01*
X0233962Y0127212D02*
X0230206Y0127212D01*
X0230206Y0127228D01*
X0233962Y0127228D01*
X0233962Y0127212D01*
X0233962Y0124653D02*
X0230206Y0124653D01*
X0230206Y0124669D01*
X0233962Y0124669D01*
X0233962Y0124653D01*
X0233962Y0122094D02*
X0230206Y0122094D01*
X0230206Y0122110D01*
X0233962Y0122110D01*
X0233962Y0122094D01*
X0233962Y0119535D02*
X0230206Y0119535D01*
X0230206Y0119551D01*
X0233962Y0119551D01*
X0233962Y0119535D01*
X0253238Y0119535D02*
X0256994Y0119535D01*
X0253238Y0119535D02*
X0253238Y0119551D01*
X0256994Y0119551D01*
X0256994Y0119535D01*
X0256994Y0122094D02*
X0253238Y0122094D01*
X0253238Y0122110D01*
X0256994Y0122110D01*
X0256994Y0122094D01*
X0256994Y0124653D02*
X0253238Y0124653D01*
X0253238Y0124669D01*
X0256994Y0124669D01*
X0256994Y0124653D01*
X0256994Y0127212D02*
X0253238Y0127212D01*
X0253238Y0127228D01*
X0256994Y0127228D01*
X0256994Y0127212D01*
X0395600Y0082258D02*
X0400340Y0082258D01*
X0400340Y0082242D01*
X0395600Y0082242D01*
X0395600Y0082258D01*
X0395600Y0079758D02*
X0400340Y0079758D01*
X0400340Y0079742D01*
X0395600Y0079742D01*
X0395600Y0079758D01*
X0395600Y0077258D02*
X0400340Y0077258D01*
X0400340Y0077242D01*
X0395600Y0077242D01*
X0395600Y0077258D01*
X0395600Y0074758D02*
X0400340Y0074758D01*
X0400340Y0074742D01*
X0395600Y0074742D01*
X0395600Y0074758D01*
X0395600Y0072258D02*
X0400340Y0072258D01*
X0400340Y0072242D01*
X0395600Y0072242D01*
X0395600Y0072258D01*
X0395600Y0069758D02*
X0400340Y0069758D01*
X0400340Y0069742D01*
X0395600Y0069742D01*
X0395600Y0069758D01*
X0395600Y0067258D02*
X0400340Y0067258D01*
X0400340Y0067242D01*
X0395600Y0067242D01*
X0395600Y0067258D01*
X0395600Y0064758D02*
X0400340Y0064758D01*
X0400340Y0064742D01*
X0395600Y0064742D01*
X0395600Y0064758D01*
X0395600Y0062258D02*
X0400340Y0062258D01*
X0400340Y0062242D01*
X0395600Y0062242D01*
X0395600Y0062258D01*
X0395600Y0059758D02*
X0400340Y0059758D01*
X0400340Y0059742D01*
X0395600Y0059742D01*
X0395600Y0059758D01*
X0395600Y0057258D02*
X0400340Y0057258D01*
X0400340Y0057242D01*
X0395600Y0057242D01*
X0395600Y0057258D01*
X0395600Y0054758D02*
X0400340Y0054758D01*
X0400340Y0054742D01*
X0395600Y0054742D01*
X0395600Y0054758D01*
X0416860Y0057258D02*
X0421600Y0057258D01*
X0421600Y0057242D01*
X0416860Y0057242D01*
X0416860Y0057258D01*
X0416860Y0059758D02*
X0421600Y0059758D01*
X0421600Y0059742D01*
X0416860Y0059742D01*
X0416860Y0059758D01*
X0416860Y0062258D02*
X0421600Y0062258D01*
X0421600Y0062242D01*
X0416860Y0062242D01*
X0416860Y0062258D01*
X0416860Y0064758D02*
X0421600Y0064758D01*
X0421600Y0064742D01*
X0416860Y0064742D01*
X0416860Y0064758D01*
X0416860Y0067258D02*
X0421600Y0067258D01*
X0421600Y0067242D01*
X0416860Y0067242D01*
X0416860Y0067258D01*
X0416860Y0069758D02*
X0421600Y0069758D01*
X0421600Y0069742D01*
X0416860Y0069742D01*
X0416860Y0069758D01*
X0416860Y0072258D02*
X0421600Y0072258D01*
X0421600Y0072242D01*
X0416860Y0072242D01*
X0416860Y0072258D01*
X0416860Y0074758D02*
X0421600Y0074758D01*
X0421600Y0074742D01*
X0416860Y0074742D01*
X0416860Y0074758D01*
X0416860Y0077258D02*
X0421600Y0077258D01*
X0421600Y0077242D01*
X0416860Y0077242D01*
X0416860Y0077258D01*
X0416860Y0079758D02*
X0421600Y0079758D01*
X0421600Y0079742D01*
X0416860Y0079742D01*
X0416860Y0079758D01*
X0416860Y0082258D02*
X0421600Y0082258D01*
X0421600Y0082242D01*
X0416860Y0082242D01*
X0416860Y0082258D01*
X0354494Y0076185D02*
X0350738Y0076185D01*
X0354494Y0076185D02*
X0354494Y0076169D01*
X0350738Y0076169D01*
X0350738Y0076185D01*
X0350738Y0073626D02*
X0354494Y0073626D01*
X0354494Y0073610D01*
X0350738Y0073610D01*
X0350738Y0073626D01*
X0350738Y0071067D02*
X0354494Y0071067D01*
X0354494Y0071051D01*
X0350738Y0071051D01*
X0350738Y0071067D01*
X0350738Y0068508D02*
X0354494Y0068508D01*
X0354494Y0068492D01*
X0350738Y0068492D01*
X0350738Y0068508D01*
X0350738Y0065949D02*
X0354494Y0065949D01*
X0354494Y0065933D01*
X0350738Y0065933D01*
X0350738Y0065949D01*
X0350738Y0063390D02*
X0354494Y0063390D01*
X0354494Y0063374D01*
X0350738Y0063374D01*
X0350738Y0063390D01*
X0350738Y0060831D02*
X0354494Y0060831D01*
X0354494Y0060815D01*
X0350738Y0060815D01*
X0350738Y0060831D01*
X0331462Y0060831D02*
X0327706Y0060831D01*
X0331462Y0060831D02*
X0331462Y0060815D01*
X0327706Y0060815D01*
X0327706Y0060831D01*
X0327706Y0063390D02*
X0331462Y0063390D01*
X0331462Y0063374D01*
X0327706Y0063374D01*
X0327706Y0063390D01*
X0327706Y0065949D02*
X0331462Y0065949D01*
X0331462Y0065933D01*
X0327706Y0065933D01*
X0327706Y0065949D01*
X0327706Y0068508D02*
X0331462Y0068508D01*
X0331462Y0068492D01*
X0327706Y0068492D01*
X0327706Y0068508D01*
X0327706Y0071067D02*
X0331462Y0071067D01*
X0331462Y0071051D01*
X0327706Y0071051D01*
X0327706Y0071067D01*
X0327706Y0073626D02*
X0331462Y0073626D01*
X0331462Y0073610D01*
X0327706Y0073610D01*
X0327706Y0073626D01*
X0327706Y0076185D02*
X0331462Y0076185D01*
X0331462Y0076169D01*
X0327706Y0076169D01*
X0327706Y0076185D01*
X0294494Y0077465D02*
X0290738Y0077465D01*
X0294494Y0077465D02*
X0294494Y0077449D01*
X0290738Y0077449D01*
X0290738Y0077465D01*
X0290738Y0074906D02*
X0294494Y0074906D01*
X0294494Y0074890D01*
X0290738Y0074890D01*
X0290738Y0074906D01*
X0290738Y0072347D02*
X0294494Y0072347D01*
X0294494Y0072331D01*
X0290738Y0072331D01*
X0290738Y0072347D01*
X0290738Y0069788D02*
X0294494Y0069788D01*
X0294494Y0069772D01*
X0290738Y0069772D01*
X0290738Y0069788D01*
X0290738Y0067228D02*
X0294494Y0067228D01*
X0294494Y0067212D01*
X0290738Y0067212D01*
X0290738Y0067228D01*
X0290738Y0064669D02*
X0294494Y0064669D01*
X0294494Y0064653D01*
X0290738Y0064653D01*
X0290738Y0064669D01*
X0290738Y0062110D02*
X0294494Y0062110D01*
X0294494Y0062094D01*
X0290738Y0062094D01*
X0290738Y0062110D01*
X0271462Y0062110D02*
X0267706Y0062110D01*
X0271462Y0062110D02*
X0271462Y0062094D01*
X0267706Y0062094D01*
X0267706Y0062110D01*
X0267706Y0064669D02*
X0271462Y0064669D01*
X0271462Y0064653D01*
X0267706Y0064653D01*
X0267706Y0064669D01*
X0267706Y0067228D02*
X0271462Y0067228D01*
X0271462Y0067212D01*
X0267706Y0067212D01*
X0267706Y0067228D01*
X0267706Y0069788D02*
X0271462Y0069788D01*
X0271462Y0069772D01*
X0267706Y0069772D01*
X0267706Y0069788D01*
X0267706Y0072347D02*
X0271462Y0072347D01*
X0271462Y0072331D01*
X0267706Y0072331D01*
X0267706Y0072347D01*
X0267706Y0074906D02*
X0271462Y0074906D01*
X0271462Y0074890D01*
X0267706Y0074890D01*
X0267706Y0074906D01*
X0267706Y0077465D02*
X0271462Y0077465D01*
X0271462Y0077449D01*
X0267706Y0077449D01*
X0267706Y0077465D01*
X0234494Y0076185D02*
X0230738Y0076185D01*
X0234494Y0076185D02*
X0234494Y0076169D01*
X0230738Y0076169D01*
X0230738Y0076185D01*
X0230738Y0073626D02*
X0234494Y0073626D01*
X0234494Y0073610D01*
X0230738Y0073610D01*
X0230738Y0073626D01*
X0230738Y0071067D02*
X0234494Y0071067D01*
X0234494Y0071051D01*
X0230738Y0071051D01*
X0230738Y0071067D01*
X0230738Y0068508D02*
X0234494Y0068508D01*
X0234494Y0068492D01*
X0230738Y0068492D01*
X0230738Y0068508D01*
X0230738Y0065949D02*
X0234494Y0065949D01*
X0234494Y0065933D01*
X0230738Y0065933D01*
X0230738Y0065949D01*
X0230738Y0063390D02*
X0234494Y0063390D01*
X0234494Y0063374D01*
X0230738Y0063374D01*
X0230738Y0063390D01*
X0230738Y0060831D02*
X0234494Y0060831D01*
X0234494Y0060815D01*
X0230738Y0060815D01*
X0230738Y0060831D01*
X0211462Y0060831D02*
X0207706Y0060831D01*
X0211462Y0060831D02*
X0211462Y0060815D01*
X0207706Y0060815D01*
X0207706Y0060831D01*
X0207706Y0063390D02*
X0211462Y0063390D01*
X0211462Y0063374D01*
X0207706Y0063374D01*
X0207706Y0063390D01*
X0207706Y0065949D02*
X0211462Y0065949D01*
X0211462Y0065933D01*
X0207706Y0065933D01*
X0207706Y0065949D01*
X0207706Y0068508D02*
X0211462Y0068508D01*
X0211462Y0068492D01*
X0207706Y0068492D01*
X0207706Y0068508D01*
X0207706Y0071067D02*
X0211462Y0071067D01*
X0211462Y0071051D01*
X0207706Y0071051D01*
X0207706Y0071067D01*
X0207706Y0073626D02*
X0211462Y0073626D01*
X0211462Y0073610D01*
X0207706Y0073610D01*
X0207706Y0073626D01*
X0207706Y0076185D02*
X0211462Y0076185D01*
X0211462Y0076169D01*
X0207706Y0076169D01*
X0207706Y0076185D01*
X0179494Y0077465D02*
X0175738Y0077465D01*
X0179494Y0077465D02*
X0179494Y0077449D01*
X0175738Y0077449D01*
X0175738Y0077465D01*
X0175738Y0074906D02*
X0179494Y0074906D01*
X0179494Y0074890D01*
X0175738Y0074890D01*
X0175738Y0074906D01*
X0175738Y0072347D02*
X0179494Y0072347D01*
X0179494Y0072331D01*
X0175738Y0072331D01*
X0175738Y0072347D01*
X0175738Y0069788D02*
X0179494Y0069788D01*
X0179494Y0069772D01*
X0175738Y0069772D01*
X0175738Y0069788D01*
X0175738Y0067228D02*
X0179494Y0067228D01*
X0179494Y0067212D01*
X0175738Y0067212D01*
X0175738Y0067228D01*
X0175738Y0064669D02*
X0179494Y0064669D01*
X0179494Y0064653D01*
X0175738Y0064653D01*
X0175738Y0064669D01*
X0175738Y0062110D02*
X0179494Y0062110D01*
X0179494Y0062094D01*
X0175738Y0062094D01*
X0175738Y0062110D01*
X0156462Y0062110D02*
X0152706Y0062110D01*
X0156462Y0062110D02*
X0156462Y0062094D01*
X0152706Y0062094D01*
X0152706Y0062110D01*
X0152706Y0064669D02*
X0156462Y0064669D01*
X0156462Y0064653D01*
X0152706Y0064653D01*
X0152706Y0064669D01*
X0152706Y0067228D02*
X0156462Y0067228D01*
X0156462Y0067212D01*
X0152706Y0067212D01*
X0152706Y0067228D01*
X0152706Y0069788D02*
X0156462Y0069788D01*
X0156462Y0069772D01*
X0152706Y0069772D01*
X0152706Y0069788D01*
X0152706Y0072347D02*
X0156462Y0072347D01*
X0156462Y0072331D01*
X0152706Y0072331D01*
X0152706Y0072347D01*
X0152706Y0074906D02*
X0156462Y0074906D01*
X0156462Y0074890D01*
X0152706Y0074890D01*
X0152706Y0074906D01*
X0152706Y0077465D02*
X0156462Y0077465D01*
X0156462Y0077449D01*
X0152706Y0077449D01*
X0152706Y0077465D01*
X0152706Y0059551D02*
X0156462Y0059551D01*
X0156462Y0059535D01*
X0152706Y0059535D01*
X0152706Y0059551D01*
X0267706Y0059551D02*
X0271462Y0059551D01*
X0271462Y0059535D01*
X0267706Y0059535D01*
X0267706Y0059551D01*
D17*
X0292616Y0059543D03*
X0177616Y0059543D03*
X0232084Y0137457D03*
D18*
X0445600Y0136000D02*
X0451600Y0136000D01*
X0451600Y0126000D02*
X0445600Y0126000D01*
X0445600Y0116000D02*
X0451600Y0116000D01*
X0451600Y0106000D02*
X0445600Y0106000D01*
X0445600Y0096000D02*
X0451600Y0096000D01*
X0451600Y0086000D02*
X0445600Y0086000D01*
X0445600Y0076000D02*
X0451600Y0076000D01*
X0451600Y0066000D02*
X0445600Y0066000D01*
X0445600Y0056000D02*
X0451600Y0056000D01*
X0451600Y0046000D02*
X0445600Y0046000D01*
X0445600Y0036000D02*
X0451600Y0036000D01*
X0451600Y0026000D02*
X0445600Y0026000D01*
X0445600Y0016000D02*
X0451600Y0016000D01*
X0451600Y0146000D02*
X0445600Y0146000D01*
D19*
X0419230Y0054750D03*
D20*
X0280227Y0145477D02*
X0280227Y0145523D01*
X0281973Y0145523D01*
X0281973Y0145477D01*
X0280227Y0145477D01*
X0270227Y0145477D02*
X0270227Y0145523D01*
X0271973Y0145523D01*
X0271973Y0145477D01*
X0270227Y0145477D01*
X0270227Y0151477D02*
X0270227Y0151523D01*
X0271973Y0151523D01*
X0271973Y0151477D01*
X0270227Y0151477D01*
X0280227Y0151477D02*
X0280227Y0151523D01*
X0281973Y0151523D01*
X0281973Y0151477D01*
X0280227Y0151477D01*
D21*
X0281100Y0151500D02*
X0285350Y0151500D01*
X0285350Y0141601D01*
X0281600Y0137850D01*
X0281600Y0134750D01*
X0281600Y0132812D01*
X0285076Y0129337D01*
X0285076Y0120125D01*
X0284700Y0119750D01*
X0281600Y0119750D01*
X0295350Y0106000D01*
X0375474Y0106000D01*
X0398600Y0106000D01*
X0408600Y0096000D01*
X0408600Y0046000D01*
X0406100Y0043500D01*
X0400475Y0043500D02*
X0400050Y0043500D01*
X0396100Y0047450D01*
X0395845Y0047450D01*
X0371100Y0047450D01*
X0371100Y0051986D01*
X0369002Y0054084D01*
X0371100Y0047450D02*
X0371100Y0039950D01*
X0396100Y0039550D02*
X0396100Y0036000D01*
X0413600Y0039750D02*
X0418600Y0039750D01*
X0418600Y0039550D01*
X0418600Y0047450D02*
X0418600Y0054750D01*
X0419230Y0054750D01*
X0413600Y0054750D01*
X0413600Y0057250D01*
X0419230Y0057250D01*
X0413600Y0057250D02*
X0413600Y0101000D01*
X0398600Y0116000D01*
X0398600Y0129550D01*
X0401100Y0129550D01*
X0401100Y0129000D01*
X0409860Y0129000D01*
X0409860Y0128776D01*
X0413600Y0128776D02*
X0417340Y0128776D01*
X0417340Y0138224D01*
X0413600Y0138224D01*
X0409860Y0138224D02*
X0409860Y0138000D01*
X0401100Y0138000D01*
X0401100Y0137450D01*
X0398600Y0137450D01*
X0401100Y0138000D02*
X0390050Y0138000D01*
X0390050Y0146000D01*
X0386100Y0149529D02*
X0380879Y0154750D01*
X0369850Y0154750D01*
X0348600Y0154750D01*
X0346321Y0157029D01*
X0288686Y0157029D01*
X0024629Y0157029D01*
X0023600Y0156000D01*
X0023600Y0104550D01*
X0036100Y0104550D01*
X0036100Y0103776D01*
X0047360Y0103776D01*
X0047360Y0099971D01*
X0054840Y0099971D01*
X0054840Y0103776D01*
X0051100Y0103776D02*
X0051100Y0106844D01*
X0059705Y0106844D01*
X0062000Y0104550D01*
X0066100Y0104550D01*
X0066100Y0101625D01*
X0086725Y0101625D01*
X0097975Y0112875D01*
X0107891Y0112875D01*
X0107891Y0116748D01*
X0105923Y0116748D02*
X0105923Y0114750D01*
X0097350Y0114750D01*
X0086100Y0103500D01*
X0076100Y0103500D01*
X0076100Y0104550D01*
X0076100Y0107450D01*
X0075050Y0108500D01*
X0049064Y0108500D01*
X0047360Y0110204D01*
X0047360Y0113224D01*
X0051100Y0113224D02*
X0051100Y0117250D01*
X0036100Y0117250D01*
X0036100Y0112450D01*
X0031100Y0109550D02*
X0031100Y0131335D01*
X0033265Y0133500D01*
X0053935Y0133500D02*
X0054840Y0132594D01*
X0054840Y0113224D01*
X0051100Y0113224D02*
X0051100Y0110156D01*
X0059705Y0110156D01*
X0062000Y0112450D01*
X0066100Y0112450D01*
X0076100Y0112450D01*
X0103600Y0108500D02*
X0107150Y0108500D01*
X0109860Y0108500D01*
X0109860Y0116748D01*
X0111828Y0116748D02*
X0111828Y0108821D01*
X0112150Y0108500D01*
X0115050Y0108500D01*
X0115050Y0104400D01*
X0115267Y0104400D01*
X0147328Y0072339D01*
X0147328Y0062795D01*
X0150580Y0059543D01*
X0154584Y0059543D01*
X0158342Y0059543D01*
X0162150Y0055735D01*
X0162150Y0049750D01*
X0170050Y0049750D02*
X0170050Y0053850D01*
X0171343Y0055143D01*
X0171343Y0059543D01*
X0168783Y0062102D01*
X0154584Y0062102D01*
X0171343Y0059543D02*
X0177616Y0059543D01*
X0182975Y0059543D01*
X0184018Y0059543D01*
X0187506Y0063031D01*
X0187506Y0069883D01*
X0187820Y0069883D01*
X0187506Y0069883D02*
X0187506Y0073230D01*
X0183279Y0077457D01*
X0177616Y0077457D01*
X0177350Y0077457D01*
X0177350Y0080375D01*
X0154584Y0072339D02*
X0147328Y0072339D01*
X0171100Y0051000D02*
X0171100Y0049750D01*
X0174225Y0049750D01*
X0209584Y0060823D02*
X0213342Y0060823D01*
X0213342Y0065941D01*
X0209584Y0065941D01*
X0213342Y0065941D02*
X0213342Y0071059D01*
X0209584Y0071059D01*
X0225050Y0072369D02*
X0228858Y0076177D01*
X0232616Y0076177D01*
X0225050Y0072369D02*
X0225050Y0051000D01*
X0227950Y0051000D01*
X0228311Y0051360D01*
X0228970Y0051360D01*
X0231461Y0053851D01*
X0261999Y0053851D01*
X0261999Y0051151D01*
X0262150Y0051000D01*
X0270050Y0051000D02*
X0270050Y0059543D01*
X0269584Y0059543D01*
X0272942Y0059543D01*
X0274867Y0057619D01*
X0288838Y0057619D01*
X0288838Y0063392D01*
X0290108Y0064661D01*
X0292532Y0064661D01*
X0292532Y0067220D01*
X0292616Y0067220D01*
X0292532Y0067220D02*
X0292532Y0069780D01*
X0292532Y0072339D01*
X0290137Y0072339D01*
X0287578Y0074898D01*
X0269584Y0074898D01*
X0269584Y0077457D01*
X0292616Y0077457D02*
X0296374Y0077457D01*
X0296664Y0077747D01*
X0297430Y0077747D01*
X0292616Y0072339D02*
X0292532Y0072339D01*
X0292532Y0069780D02*
X0292616Y0069780D01*
X0292532Y0064661D02*
X0292616Y0064661D01*
X0288838Y0057619D02*
X0322622Y0057619D01*
X0325826Y0060823D01*
X0329584Y0060823D01*
X0330050Y0060357D01*
X0330050Y0051000D01*
X0322150Y0051000D02*
X0317614Y0051000D01*
X0316406Y0049792D01*
X0333342Y0059146D02*
X0336088Y0056401D01*
X0336088Y0056163D01*
X0333342Y0059146D02*
X0333342Y0060823D01*
X0329584Y0060823D01*
X0352616Y0076177D02*
X0356374Y0076177D01*
X0356702Y0076506D01*
X0357379Y0076506D01*
X0391725Y0082250D02*
X0397970Y0082250D01*
X0419230Y0082250D02*
X0424700Y0082250D01*
X0424700Y0080151D01*
X0423881Y0080151D01*
X0423480Y0079750D01*
X0419230Y0079750D01*
X0397970Y0059750D02*
X0391725Y0059750D01*
X0393720Y0057250D02*
X0393720Y0054750D01*
X0395845Y0054750D01*
X0395845Y0047450D01*
X0395845Y0054750D02*
X0397970Y0054750D01*
X0397970Y0057250D02*
X0393720Y0057250D01*
X0371100Y0017050D02*
X0356100Y0017050D01*
X0347724Y0017050D01*
X0341100Y0017050D01*
X0326100Y0017050D01*
X0311100Y0017050D01*
X0296100Y0017050D01*
X0270050Y0046850D02*
X0220250Y0046850D01*
X0217150Y0049950D01*
X0217150Y0051000D01*
X0217150Y0057015D01*
X0213342Y0060823D01*
X0213342Y0060823D01*
X0270050Y0051000D02*
X0270050Y0046850D01*
X0375474Y0106000D02*
X0375474Y0112417D01*
X0375474Y0146000D01*
X0382150Y0146000D01*
X0382150Y0141900D01*
X0382350Y0141700D01*
X0382350Y0138000D01*
X0389850Y0138000D02*
X0390050Y0138000D01*
X0409860Y0138224D02*
X0409860Y0141000D01*
X0414860Y0146000D01*
X0448600Y0146000D01*
X0448600Y0136000D02*
X0436100Y0136000D01*
X0436100Y0128776D01*
X0436100Y0106000D01*
X0448600Y0106000D01*
X0436100Y0128776D02*
X0417340Y0128776D01*
X0401100Y0129000D02*
X0386100Y0129000D01*
X0386100Y0149529D01*
X0301100Y0134950D02*
X0288686Y0134950D01*
X0288686Y0157029D01*
X0281100Y0151500D02*
X0271100Y0151500D01*
X0271100Y0154900D01*
X0270650Y0155351D01*
X0217606Y0155351D01*
X0209499Y0147244D01*
X0209499Y0137050D01*
X0213600Y0137050D01*
X0223600Y0137050D01*
X0227700Y0137050D01*
X0228107Y0137457D01*
X0232084Y0137457D01*
X0235842Y0138753D02*
X0229645Y0144950D01*
X0228763Y0144950D01*
X0236263Y0152450D01*
X0238600Y0152450D01*
X0248600Y0152450D01*
X0228763Y0144950D02*
X0223600Y0144950D01*
X0213600Y0144950D01*
X0235842Y0138753D02*
X0235842Y0124661D01*
X0232084Y0124661D01*
X0222376Y0124661D01*
X0211000Y0113285D01*
X0174820Y0113285D01*
X0174820Y0116748D01*
X0174820Y0120211D01*
X0161041Y0120211D01*
X0161041Y0116748D01*
X0128668Y0137050D02*
X0111828Y0120211D01*
X0111828Y0116748D01*
X0128668Y0137050D02*
X0209499Y0137050D01*
X0271100Y0134950D02*
X0275200Y0134950D01*
X0275400Y0134750D01*
X0281600Y0134750D01*
X0287499Y0133763D02*
X0287499Y0128434D01*
X0295983Y0119950D01*
X0301100Y0119950D01*
X0281600Y0119750D02*
X0275400Y0119750D01*
X0275200Y0119950D01*
X0271100Y0119950D01*
X0287499Y0133763D02*
X0288686Y0134950D01*
X0036100Y0104550D02*
X0031100Y0109550D01*
D22*
X0036100Y0117250D03*
X0051100Y0117250D03*
X0103600Y0108500D03*
X0145160Y0101559D03*
X0159911Y0112260D03*
X0167829Y0111259D03*
X0183594Y0097434D03*
X0202784Y0082733D03*
X0211934Y0081247D03*
X0183989Y0073211D03*
X0187820Y0069883D03*
X0183146Y0067036D03*
X0182975Y0059543D03*
X0174225Y0049750D03*
X0209721Y0054532D03*
X0228459Y0056413D03*
X0236999Y0058663D03*
X0237351Y0063382D03*
X0228970Y0051360D03*
X0211285Y0042715D03*
X0149831Y0063828D03*
X0177350Y0080375D03*
X0257598Y0075279D03*
X0297430Y0077747D03*
X0324893Y0067351D03*
X0322361Y0063698D03*
X0336088Y0056401D03*
X0316406Y0049792D03*
X0297335Y0065200D03*
X0357696Y0067862D03*
X0362637Y0067492D03*
X0380310Y0074267D03*
X0392700Y0077250D03*
X0391725Y0082250D03*
X0424700Y0080151D03*
X0391725Y0059750D03*
X0369002Y0054084D03*
X0400475Y0043500D03*
X0406100Y0043500D03*
X0413600Y0039750D03*
X0396100Y0036000D03*
X0347724Y0017050D03*
X0357379Y0076506D03*
X0287600Y0103065D03*
X0226888Y0124661D03*
X0228763Y0144950D03*
X0356100Y0152250D03*
X0366100Y0152250D03*
X0366100Y0157250D03*
X0356100Y0157250D03*
D23*
X0356100Y0161000D01*
X0461100Y0161000D01*
X0468600Y0153500D01*
X0468600Y0121000D01*
X0463600Y0116000D01*
X0448600Y0116000D01*
X0448600Y0126000D02*
X0463600Y0126000D01*
X0466100Y0128500D01*
X0466100Y0151000D01*
X0458600Y0158500D01*
X0367350Y0158500D01*
X0366100Y0157250D01*
X0366100Y0152250D02*
X0327150Y0112050D01*
X0301100Y0112050D01*
X0297200Y0112050D01*
X0297200Y0112301D01*
X0293500Y0116000D01*
X0290600Y0116000D01*
X0281600Y0112250D02*
X0278700Y0112250D01*
X0278500Y0112050D01*
X0275000Y0112050D01*
X0271100Y0112050D01*
X0271100Y0112235D01*
X0268585Y0114750D01*
X0258674Y0124661D01*
X0255116Y0124661D01*
X0255116Y0127220D02*
X0258674Y0127220D01*
X0258844Y0127050D01*
X0271100Y0127050D01*
X0275000Y0127050D01*
X0275200Y0127250D01*
X0281600Y0127250D01*
X0290600Y0131000D02*
X0299850Y0131000D01*
X0301100Y0129750D01*
X0301100Y0127050D01*
X0332150Y0127050D01*
X0354850Y0149750D01*
X0356100Y0151000D01*
X0356100Y0152250D01*
X0281100Y0145500D02*
X0281100Y0142300D01*
X0271194Y0142300D01*
X0258674Y0129780D01*
X0255116Y0129780D01*
X0250670Y0129780D01*
X0238600Y0141850D01*
X0238600Y0144550D01*
X0248600Y0144550D02*
X0248600Y0141850D01*
X0251558Y0138892D01*
X0251558Y0132339D01*
X0255116Y0132339D01*
X0232084Y0132339D02*
X0216922Y0132339D01*
X0206078Y0121494D01*
X0180241Y0121494D01*
X0178757Y0120011D01*
X0178757Y0116748D01*
X0176789Y0116748D02*
X0176789Y0128935D01*
X0181881Y0134027D01*
X0227656Y0134027D01*
X0228526Y0134898D01*
X0232084Y0134898D01*
X0232084Y0129780D02*
X0216570Y0129780D01*
X0206802Y0120011D01*
X0180726Y0120011D01*
X0180726Y0116748D01*
X0182694Y0116748D02*
X0206992Y0116748D01*
X0217465Y0127220D01*
X0232084Y0127220D01*
X0281600Y0112250D02*
X0281600Y0109065D01*
X0287600Y0103065D01*
X0267926Y0080596D02*
X0356555Y0080596D01*
X0359730Y0077421D01*
X0359730Y0074615D01*
X0356174Y0071059D01*
X0352616Y0071059D01*
X0352616Y0068500D02*
X0356174Y0068500D01*
X0356811Y0067863D01*
X0357696Y0067863D01*
X0357696Y0067862D01*
X0358615Y0065335D02*
X0360337Y0067057D01*
X0360337Y0068445D01*
X0362107Y0070215D01*
X0362107Y0076814D01*
X0357124Y0081796D01*
X0212484Y0081796D01*
X0211934Y0081247D01*
X0203667Y0083615D02*
X0362182Y0083615D01*
X0373953Y0071844D01*
X0393514Y0071844D01*
X0393920Y0072250D01*
X0397970Y0072250D01*
X0397970Y0069750D02*
X0393920Y0069750D01*
X0393455Y0070215D01*
X0362107Y0070215D01*
X0362637Y0067492D02*
X0393678Y0067492D01*
X0393920Y0067250D01*
X0397970Y0067250D01*
X0397970Y0064750D02*
X0367350Y0064750D01*
X0361100Y0058500D01*
X0361100Y0036000D01*
X0221591Y0036000D01*
X0200883Y0056708D01*
X0200883Y0073811D01*
X0164978Y0109715D01*
X0164978Y0116748D01*
X0166946Y0116748D02*
X0166946Y0112141D01*
X0167829Y0111259D01*
X0168915Y0113485D02*
X0183594Y0098807D01*
X0183594Y0097434D01*
X0163009Y0102079D02*
X0199537Y0065552D01*
X0199537Y0055635D01*
X0211871Y0043300D01*
X0234172Y0021000D01*
X0363600Y0021000D01*
X0363600Y0056000D01*
X0369850Y0062250D01*
X0397970Y0062250D01*
X0419230Y0062250D02*
X0422350Y0062250D01*
X0448600Y0036000D01*
X0448600Y0026000D02*
X0429301Y0045299D01*
X0429301Y0052483D01*
X0422033Y0059750D01*
X0419230Y0059750D01*
X0419230Y0064750D02*
X0429850Y0064750D01*
X0448600Y0046000D01*
X0448600Y0056000D02*
X0437350Y0067250D01*
X0419230Y0067250D01*
X0419230Y0069750D02*
X0437950Y0069750D01*
X0441700Y0066000D01*
X0448600Y0066000D01*
X0441700Y0076000D02*
X0437950Y0072250D01*
X0419230Y0072250D01*
X0419230Y0074750D02*
X0437350Y0074750D01*
X0448600Y0086000D01*
X0448600Y0096000D02*
X0429850Y0077250D01*
X0419230Y0077250D01*
X0403600Y0079750D02*
X0397970Y0079750D01*
X0403600Y0079750D02*
X0403600Y0030708D01*
X0387150Y0014258D01*
X0236489Y0014258D01*
X0190807Y0059940D01*
X0190807Y0071909D01*
X0154687Y0108029D01*
X0150749Y0108029D01*
X0145293Y0113485D01*
X0145293Y0116748D01*
X0145293Y0120011D01*
X0149230Y0120011D01*
X0153167Y0120011D01*
X0157104Y0120011D01*
X0157104Y0116748D01*
X0159072Y0116748D02*
X0159072Y0113485D01*
X0155135Y0113485D01*
X0155135Y0116748D01*
X0153167Y0116748D02*
X0153167Y0120011D01*
X0149230Y0120011D02*
X0149230Y0116748D01*
X0151198Y0116748D02*
X0151198Y0113485D01*
X0155135Y0113485D01*
X0151198Y0113485D02*
X0147261Y0113485D01*
X0147261Y0116748D01*
X0143324Y0116748D02*
X0143324Y0118380D01*
X0143324Y0120011D01*
X0139387Y0120011D01*
X0139387Y0116748D01*
X0137419Y0116748D02*
X0137419Y0113485D01*
X0141356Y0113485D01*
X0151026Y0103815D01*
X0151026Y0077457D01*
X0154584Y0077457D01*
X0154584Y0074898D02*
X0151026Y0074898D01*
X0125608Y0100316D01*
X0125608Y0113485D01*
X0125608Y0116748D01*
X0127576Y0116748D02*
X0127576Y0115417D01*
X0127576Y0113485D01*
X0139503Y0101559D01*
X0145160Y0101559D01*
X0163009Y0102079D02*
X0163009Y0116748D01*
X0168915Y0116748D02*
X0168915Y0113485D01*
X0170883Y0113485D02*
X0170883Y0116748D01*
X0170883Y0113485D02*
X0198942Y0085427D01*
X0198942Y0083315D01*
X0203311Y0078946D01*
X0211696Y0078946D01*
X0213142Y0077500D01*
X0213142Y0073618D01*
X0209584Y0073618D01*
X0206026Y0076177D02*
X0203428Y0073578D01*
X0203428Y0055861D01*
X0219339Y0039950D01*
X0296100Y0039950D01*
X0311100Y0039950D02*
X0311100Y0043500D01*
X0217487Y0043500D01*
X0204727Y0056259D01*
X0204727Y0067201D01*
X0206026Y0068500D01*
X0209584Y0068500D01*
X0209584Y0063382D02*
X0206026Y0063382D01*
X0206026Y0058227D01*
X0209721Y0054532D01*
X0228459Y0056413D02*
X0229058Y0057013D01*
X0229058Y0065941D01*
X0232616Y0065941D01*
X0232616Y0063382D02*
X0237351Y0063382D01*
X0236174Y0060823D02*
X0236174Y0059489D01*
X0236999Y0058663D01*
X0236174Y0060823D02*
X0232616Y0060823D01*
X0232616Y0068500D02*
X0262894Y0068500D01*
X0266026Y0065368D01*
X0266026Y0062102D01*
X0269584Y0062102D01*
X0262894Y0068500D02*
X0262894Y0075563D01*
X0267926Y0080596D01*
X0257598Y0075279D02*
X0253378Y0071059D01*
X0232616Y0071059D01*
X0232616Y0073618D02*
X0236174Y0073618D01*
X0236174Y0077519D01*
X0235827Y0077865D01*
X0213507Y0077865D01*
X0213142Y0077500D01*
X0209584Y0076177D02*
X0206026Y0076177D01*
X0202784Y0082733D02*
X0203667Y0083615D01*
X0185520Y0071680D02*
X0183989Y0073211D01*
X0185520Y0071680D02*
X0185520Y0066156D01*
X0181466Y0062102D01*
X0177616Y0062102D01*
X0177616Y0064661D02*
X0181174Y0064661D01*
X0181174Y0067036D01*
X0183146Y0067036D01*
X0181174Y0069008D01*
X0181174Y0072339D01*
X0177616Y0072339D01*
X0177616Y0069780D02*
X0158142Y0069780D01*
X0158142Y0067220D01*
X0154584Y0067220D01*
X0154584Y0064661D02*
X0151026Y0064661D01*
X0150193Y0063828D01*
X0149831Y0063828D01*
X0149831Y0063828D01*
X0154584Y0069780D02*
X0158142Y0069780D01*
X0158142Y0074898D01*
X0154584Y0074898D01*
X0174058Y0074898D02*
X0174058Y0082752D01*
X0143324Y0113485D01*
X0143324Y0116748D01*
X0141356Y0116748D02*
X0141356Y0113786D01*
X0141356Y0113486D01*
X0141356Y0113485D01*
X0137419Y0113485D02*
X0133482Y0113485D01*
X0133482Y0113786D01*
X0133482Y0116748D01*
X0135450Y0116748D02*
X0135450Y0120011D01*
X0139387Y0120011D01*
X0135450Y0120011D02*
X0131513Y0120011D01*
X0131513Y0116748D01*
X0129545Y0116748D02*
X0129545Y0113485D01*
X0133482Y0113485D01*
X0127576Y0116748D02*
X0127576Y0120011D01*
X0123639Y0120011D01*
X0123639Y0119711D01*
X0123639Y0116748D01*
X0121671Y0116748D02*
X0121671Y0113485D01*
X0125608Y0113485D01*
X0121671Y0113485D02*
X0117734Y0113485D01*
X0113797Y0113485D01*
X0113797Y0116748D01*
X0113797Y0120011D01*
X0114998Y0121211D01*
X0144092Y0121211D01*
X0145293Y0120011D01*
X0159072Y0113485D02*
X0159072Y0113099D01*
X0159911Y0112260D01*
X0123639Y0120011D02*
X0120002Y0120011D01*
X0119702Y0119711D01*
X0119702Y0116748D01*
X0117734Y0116748D02*
X0117734Y0113485D01*
X0115765Y0116748D02*
X0115765Y0120011D01*
X0119402Y0120011D01*
X0119702Y0119711D01*
X0248600Y0144550D02*
X0266100Y0144550D01*
X0267050Y0145500D01*
X0271100Y0145500D01*
X0319479Y0079314D02*
X0341127Y0079314D01*
X0346823Y0073618D01*
X0352616Y0073618D01*
X0347756Y0063382D02*
X0333025Y0078113D01*
X0326588Y0078113D01*
X0326026Y0077552D01*
X0326026Y0073618D01*
X0305752Y0073618D01*
X0297335Y0065200D01*
X0296174Y0064039D01*
X0296174Y0062102D01*
X0292616Y0062102D01*
X0292616Y0059543D02*
X0312857Y0059543D01*
X0320665Y0067351D01*
X0324893Y0067351D01*
X0326026Y0068485D01*
X0326026Y0068500D01*
X0329584Y0068500D01*
X0329584Y0071059D02*
X0333142Y0071059D01*
X0341100Y0063101D01*
X0341100Y0039950D01*
X0339875Y0047572D02*
X0332253Y0039950D01*
X0326100Y0039950D01*
X0339875Y0047572D02*
X0339875Y0059208D01*
X0333142Y0065941D01*
X0329584Y0065941D01*
X0329584Y0063382D02*
X0326026Y0063382D01*
X0325710Y0063698D01*
X0322361Y0063698D01*
X0333142Y0076177D02*
X0347312Y0062007D01*
X0347312Y0044788D01*
X0352150Y0039950D01*
X0356100Y0039950D01*
X0356100Y0032050D02*
X0356100Y0024950D01*
X0341100Y0024950D02*
X0341100Y0032050D01*
X0326100Y0032050D02*
X0326100Y0024950D01*
X0311100Y0024950D02*
X0311100Y0032050D01*
X0296100Y0032050D02*
X0296100Y0024950D01*
X0371100Y0024950D02*
X0371100Y0032050D01*
X0356174Y0060823D02*
X0352616Y0060823D01*
X0356174Y0060823D02*
X0356174Y0061029D01*
X0362637Y0067492D01*
X0358615Y0065335D02*
X0356780Y0065335D01*
X0356174Y0065941D01*
X0352616Y0065941D01*
X0352616Y0063382D02*
X0347756Y0063382D01*
X0329584Y0073618D02*
X0326026Y0073618D01*
X0329584Y0076177D02*
X0333142Y0076177D01*
X0319479Y0079314D02*
X0315063Y0074898D01*
X0292616Y0074898D01*
X0380310Y0074267D02*
X0393437Y0074267D01*
X0393920Y0074750D01*
X0397970Y0074750D01*
X0397970Y0077250D02*
X0392700Y0077250D01*
X0441700Y0076000D02*
X0448600Y0076000D01*
X0211871Y0043300D02*
X0211285Y0042715D01*
X0181174Y0067036D02*
X0181174Y0067220D01*
X0177616Y0067220D01*
X0177616Y0074898D02*
X0174058Y0074898D01*
M02*
