G75*
%MOIN*%
%OFA0B0*%
%FSLAX25Y25*%
%IPPOS*%
%LPD*%
%AMOC8*
5,1,8,0,0,1.08239X$1,22.5*
%
%ADD10C,0.00400*%
D10*
X0457435Y0014467D02*
X0457435Y0017537D01*
X0458202Y0018304D01*
X0460504Y0018304D01*
X0460504Y0013700D01*
X0458202Y0013700D01*
X0457435Y0014467D01*
X0462039Y0013700D02*
X0462039Y0018304D01*
X0465108Y0018304D02*
X0462039Y0013700D01*
X0465108Y0013700D02*
X0465108Y0018304D01*
X0466643Y0017537D02*
X0467410Y0018304D01*
X0468944Y0018304D01*
X0469712Y0017537D01*
X0469712Y0014467D01*
X0468944Y0013700D01*
X0467410Y0013700D01*
X0466643Y0014467D01*
X0466643Y0016002D01*
X0468177Y0016002D01*
X0467410Y0023700D02*
X0466643Y0024467D01*
X0467410Y0023700D02*
X0468944Y0023700D01*
X0469712Y0024467D01*
X0469712Y0027537D01*
X0468944Y0028304D01*
X0467410Y0028304D01*
X0466643Y0027537D01*
X0465108Y0028304D02*
X0465108Y0023700D01*
X0462039Y0023700D01*
X0460504Y0023700D02*
X0460504Y0028304D01*
X0460504Y0025235D02*
X0457435Y0028304D01*
X0459737Y0026002D02*
X0457435Y0023700D01*
X0458969Y0033700D02*
X0458969Y0038304D01*
X0457435Y0038304D02*
X0460504Y0038304D01*
X0462039Y0037537D02*
X0462806Y0038304D01*
X0464341Y0038304D01*
X0465108Y0037537D01*
X0465108Y0036769D01*
X0464341Y0036002D01*
X0462806Y0036002D01*
X0462039Y0035235D01*
X0462039Y0034467D01*
X0462806Y0033700D01*
X0464341Y0033700D01*
X0465108Y0034467D01*
X0466643Y0033700D02*
X0468177Y0035235D01*
X0467410Y0035235D02*
X0469712Y0035235D01*
X0469712Y0033700D02*
X0469712Y0038304D01*
X0467410Y0038304D01*
X0466643Y0037537D01*
X0466643Y0036002D01*
X0467410Y0035235D01*
X0469912Y0039100D02*
X0456100Y0039100D01*
X0458202Y0043700D02*
X0457435Y0044467D01*
X0458202Y0043700D02*
X0459737Y0043700D01*
X0460504Y0044467D01*
X0460504Y0047537D01*
X0459737Y0048304D01*
X0458202Y0048304D01*
X0457435Y0047537D01*
X0462039Y0048304D02*
X0465108Y0048304D01*
X0463573Y0048304D02*
X0463573Y0043700D01*
X0466643Y0043700D02*
X0468177Y0045235D01*
X0467410Y0045235D02*
X0469712Y0045235D01*
X0469712Y0043700D02*
X0469712Y0048304D01*
X0467410Y0048304D01*
X0466643Y0047537D01*
X0466643Y0046002D01*
X0467410Y0045235D01*
X0471246Y0046002D02*
X0474316Y0046002D01*
X0474316Y0043700D02*
X0474316Y0048304D01*
X0471246Y0048304D02*
X0471246Y0043700D01*
X0469712Y0053700D02*
X0469712Y0058304D01*
X0467410Y0058304D01*
X0466643Y0057537D01*
X0466643Y0056002D01*
X0467410Y0055235D01*
X0469712Y0055235D01*
X0471246Y0055235D02*
X0471246Y0058304D01*
X0474316Y0058304D02*
X0474316Y0055235D01*
X0472781Y0053700D01*
X0471246Y0055235D01*
X0468177Y0055235D02*
X0466643Y0053700D01*
X0463573Y0053700D02*
X0463573Y0058304D01*
X0462039Y0058304D02*
X0465108Y0058304D01*
X0460504Y0057537D02*
X0460504Y0054467D01*
X0459737Y0053700D01*
X0458202Y0053700D01*
X0457435Y0054467D01*
X0457435Y0057537D02*
X0458202Y0058304D01*
X0459737Y0058304D01*
X0460504Y0057537D01*
X0460504Y0063700D02*
X0458202Y0063700D01*
X0457435Y0064467D01*
X0457435Y0065235D01*
X0458202Y0066002D01*
X0460504Y0066002D01*
X0460504Y0063700D02*
X0460504Y0068304D01*
X0458202Y0068304D01*
X0457435Y0067537D01*
X0457435Y0066769D01*
X0458202Y0066002D01*
X0458202Y0073700D02*
X0457435Y0074467D01*
X0457435Y0076002D01*
X0458969Y0076002D01*
X0457435Y0077537D02*
X0458202Y0078304D01*
X0459737Y0078304D01*
X0460504Y0077537D01*
X0460504Y0074467D01*
X0459737Y0073700D01*
X0458202Y0073700D01*
X0457435Y0083700D02*
X0458969Y0085235D01*
X0458202Y0085235D02*
X0460504Y0085235D01*
X0460504Y0083700D02*
X0460504Y0088304D01*
X0458202Y0088304D01*
X0457435Y0087537D01*
X0457435Y0086002D01*
X0458202Y0085235D01*
X0458202Y0093700D02*
X0458202Y0098304D01*
X0458969Y0098304D02*
X0457435Y0098304D01*
X0457435Y0093700D02*
X0458969Y0093700D01*
X0458969Y0103700D02*
X0457435Y0105235D01*
X0457435Y0108304D01*
X0460504Y0108304D02*
X0460504Y0105235D01*
X0458969Y0103700D01*
X0462039Y0104467D02*
X0462806Y0103700D01*
X0464341Y0103700D01*
X0465108Y0104467D01*
X0465108Y0106002D02*
X0463573Y0106769D01*
X0462806Y0106769D01*
X0462039Y0106002D01*
X0462039Y0104467D01*
X0465108Y0106002D02*
X0465108Y0108304D01*
X0462039Y0108304D01*
X0466643Y0106002D02*
X0469712Y0106002D01*
X0468177Y0107537D02*
X0468177Y0104467D01*
X0467410Y0113700D02*
X0468944Y0113700D01*
X0469712Y0114467D01*
X0468944Y0116002D02*
X0467410Y0116002D01*
X0466643Y0115235D01*
X0466643Y0114467D01*
X0467410Y0113700D01*
X0465108Y0114467D02*
X0464341Y0113700D01*
X0462806Y0113700D01*
X0462039Y0114467D01*
X0460504Y0113700D02*
X0457435Y0113700D01*
X0460504Y0113700D02*
X0460504Y0118304D01*
X0462039Y0117537D02*
X0462806Y0118304D01*
X0464341Y0118304D01*
X0465108Y0117537D01*
X0465108Y0114467D01*
X0468944Y0116002D02*
X0469712Y0116769D01*
X0469712Y0117537D01*
X0468944Y0118304D01*
X0467410Y0118304D01*
X0466643Y0117537D01*
X0467410Y0123700D02*
X0468944Y0123700D01*
X0469712Y0124467D01*
X0468944Y0126002D02*
X0467410Y0126002D01*
X0466643Y0125235D01*
X0466643Y0124467D01*
X0467410Y0123700D01*
X0465108Y0123700D02*
X0462806Y0123700D01*
X0462039Y0124467D01*
X0462039Y0127537D01*
X0462806Y0128304D01*
X0465108Y0128304D01*
X0465108Y0123700D01*
X0460504Y0123700D02*
X0460504Y0126769D01*
X0458969Y0128304D01*
X0457435Y0126769D01*
X0457435Y0123700D01*
X0457435Y0126002D02*
X0460504Y0126002D01*
X0466643Y0127537D02*
X0467410Y0128304D01*
X0468944Y0128304D01*
X0469712Y0127537D01*
X0469712Y0126769D01*
X0468944Y0126002D01*
X0464341Y0133700D02*
X0462806Y0133700D01*
X0462039Y0134467D01*
X0462039Y0136002D01*
X0462806Y0136769D01*
X0463573Y0136769D01*
X0465108Y0136002D01*
X0465108Y0138304D01*
X0462039Y0138304D01*
X0460504Y0138304D02*
X0460504Y0135235D01*
X0458969Y0133700D01*
X0457435Y0135235D01*
X0457435Y0138304D01*
X0464341Y0133700D02*
X0465108Y0134467D01*
X0466643Y0136002D02*
X0469712Y0136002D01*
X0468177Y0137537D02*
X0468177Y0134467D01*
X0467410Y0143700D02*
X0466643Y0144467D01*
X0466643Y0146002D01*
X0468177Y0146002D01*
X0466643Y0147537D02*
X0467410Y0148304D01*
X0468944Y0148304D01*
X0469712Y0147537D01*
X0469712Y0144467D01*
X0468944Y0143700D01*
X0467410Y0143700D01*
X0465108Y0143700D02*
X0465108Y0148304D01*
X0462039Y0143700D01*
X0462039Y0148304D01*
X0460504Y0148304D02*
X0458202Y0148304D01*
X0457435Y0147537D01*
X0457435Y0144467D01*
X0458202Y0143700D01*
X0460504Y0143700D01*
X0460504Y0148304D01*
M02*
